<svg xmlns="http://www.w3.org/2000/svg" xmlns:xlink="http://www.w3.org/1999/xlink" width="500" zoomAndPan="magnify" viewBox="0 0 375 374.999991" height="500" preserveAspectRatio="xMidYMid meet" version="1.0">
	<defs>
		<g />
		<clipPath id="5bd3df8048">
			<path d="M 25.136719 46.6875 L 349.886719 46.6875 L 349.886719 328.6875 L 25.136719 328.6875 Z M 25.136719 46.6875 " clip-rule="nonzero" />
		</clipPath>
		<clipPath id="4447a59337">
			<path d="M 196.527344 161.285156 L 315 161.285156 L 315 183.035156 L 196.527344 183.035156 Z M 196.527344 161.285156 " clip-rule="nonzero" />
		</clipPath>
		<clipPath id="fc3ff9908a">
			<path d="M 135 180 L 141 180 L 141 182.414062 L 135 182.414062 Z M 135 180 " clip-rule="nonzero" />
		</clipPath>
		<clipPath id="89458f34b8">
			<path d="M 134.480469 170 L 140 170 L 140 174 L 134.480469 174 Z M 134.480469 170 " clip-rule="nonzero" />
		</clipPath>
		<clipPath id="6fa84123ef">
			<path d="M 147 160.664062 L 149.480469 160.664062 L 149.480469 167 L 147 167 Z M 147 160.664062 " clip-rule="nonzero" />
		</clipPath>
	</defs>
	<rect x="-37.5" width="450" fill="#fffff" y="-37.499999" height="449.999989" fill-opacity="0" />
	<rect x="-37.5" width="450" fill="#ffffff" y="-37.499999" height="449.999989" fill-opacity="0" />
	<g clip-path="url(#5bd3df8048)">
		<path fill="#04428c" d="M 349.820312 230.691406 C 349.820312 233.6875 347.351562 235.835938 345.464844 237.917969 C 342.929688 240.457031 339.480469 241.890625 336.230469 243.257812 C 332.328125 244.886719 328.492188 246.644531 324.65625 248.464844 C 315.941406 252.4375 306.902344 255.691406 297.992188 259.210938 C 292.140625 261.554688 286.289062 264.09375 280.4375 266.371094 C 259.5625 273.988281 239.011719 282.648438 217.554688 288.445312 C 194.402344 294.757812 171.125 300.554688 147.519531 305.175781 C 136.855469 307.652344 126.253906 310.777344 115.523438 312.988281 C 110.582031 313.964844 105.511719 314.488281 100.503906 315.140625 C 94.324219 316.050781 88.277344 317.417969 82.296875 318.980469 C 77.613281 319.957031 73.125 321.648438 68.445312 322.886719 C 66.429688 323.539062 64.476562 324.578125 62.398438 325.035156 C 60.640625 325.554688 58.820312 325.554688 57 325.6875 C 54.917969 326.078125 52.96875 326.988281 50.820312 326.988281 C 50.171875 328.09375 48.546875 328.679688 47.570312 327.835938 C 47.375 327.835938 47.117188 327.835938 46.921875 327.769531 C 45.683594 327.378906 45.554688 325.945312 45.164062 324.90625 C 43.800781 321.390625 42.171875 318.132812 41.199219 314.488281 C 39.703125 309.539062 38.597656 304.527344 37.230469 299.578125 C 33.589844 287.921875 32.027344 275.746094 30.46875 263.765625 C 28.84375 253.152344 27.347656 242.476562 26.761719 231.796875 C 26.371094 226.328125 26.242188 220.792969 25.917969 215.324219 C 25.589844 210.050781 25.136719 204.84375 25.136719 199.570312 C 25.136719 194.230469 25.265625 188.957031 25.527344 183.617188 C 26.046875 174.304688 26.109375 164.929688 27.738281 155.75 C 29.558594 146.894531 32.222656 138.234375 36.644531 130.355469 C 39.117188 125.863281 41.394531 121.175781 45.035156 117.464844 C 50.300781 112.0625 55.960938 106.785156 62.460938 102.816406 C 70.65625 96.957031 79.890625 92.789062 89.253906 89.207031 C 99.007812 84.84375 109.542969 82.632812 120.011719 80.484375 C 128.140625 78.527344 136.398438 76.835938 144.460938 74.6875 C 148.429688 73.839844 152.527344 73.386719 156.425781 72.734375 C 156.753906 72.539062 157.144531 72.410156 157.597656 72.410156 C 160.265625 68.046875 164.296875 63.945312 169.171875 62.25 C 171.058594 61.730469 173.007812 61.015625 174.960938 60.882812 C 178.601562 60.820312 182.242188 61.40625 185.753906 62.511719 C 186.40625 62.578125 186.992188 62.773438 187.378906 62.96875 C 189.65625 61.730469 191.933594 60.558594 194.207031 59.515625 C 196.160156 58.605469 198.175781 57.695312 200.191406 56.847656 C 200.453125 56.652344 200.710938 56.523438 201.035156 56.457031 C 201.558594 52.484375 203.964844 48.773438 207.800781 47.277344 C 209.359375 46.691406 210.984375 46.753906 212.613281 46.949219 C 215.992188 47.082031 219.632812 47.339844 222.367188 49.554688 C 226.332031 51.703125 228.21875 55.9375 229.972656 59.84375 C 230.496094 60.6875 230.882812 61.535156 231.273438 62.382812 C 241.875 60.167969 252.734375 59.453125 263.464844 58.148438 C 277.964844 56.914062 292.464844 55.742188 306.96875 55.414062 C 308.074219 55.609375 309.761719 55.285156 310.867188 55.675781 C 311.648438 55.871094 312.167969 56.585938 312.167969 57.433594 C 311.648438 63.617188 312.234375 69.804688 312.820312 75.988281 C 313.339844 80.289062 313.078125 84.648438 313.078125 89.011719 C 313.210938 92.65625 313.925781 96.238281 314.054688 99.820312 C 314.316406 103.464844 315.160156 107.046875 315.8125 110.628906 C 317.113281 122.609375 319.386719 134.261719 321.730469 146.046875 C 322.769531 152.882812 324.132812 159.65625 326.152344 166.296875 C 327.125 169.945312 327.839844 173.65625 328.816406 177.300781 C 329.855469 180.621094 331.027344 183.941406 331.875 187.328125 C 333.238281 192.144531 335.191406 196.832031 337.011719 201.523438 C 338.960938 206.144531 340.457031 210.898438 342.40625 215.519531 C 343.96875 218.839844 345.59375 222.355469 347.480469 225.417969 C 348 226.199219 348.457031 227.046875 348.84375 227.890625 C 349.820312 228.476562 349.886719 229.648438 349.820312 230.691406 Z M 349.820312 230.691406 " fill-opacity="1" fill-rule="nonzero" />
	</g>
	<path fill="#defff4" d="M 343.511719 224.894531 C 342.601562 223.269531 341.757812 221.640625 340.976562 220.011719 C 340.457031 219.035156 340 217.996094 339.546875 216.953125 C 337.660156 212.65625 336.296875 208.164062 334.472656 203.867188 C 333.824219 202.304688 333.238281 200.804688 332.589844 199.242188 C 330.703125 194.488281 329.011719 189.671875 327.710938 184.660156 C 326.085938 180.035156 324.914062 175.347656 323.746094 170.59375 C 323.417969 169.226562 323.09375 167.859375 322.769531 166.492188 C 321.921875 163.367188 321.078125 160.308594 320.296875 157.117188 C 320.167969 156.597656 320.101562 156.074219 319.972656 155.488281 C 319.128906 151.0625 318.414062 146.632812 317.566406 142.207031 C 317.371094 141.164062 317.175781 140.125 316.917969 139.148438 C 316.527344 136.996094 316.136719 134.847656 315.746094 132.699219 C 314.511719 125.929688 313.273438 119.222656 312.625 112.386719 C 312.558594 111.996094 312.496094 111.605469 312.429688 111.214844 C 312.105469 109.457031 311.78125 107.699219 311.453125 105.875 C 311.128906 103.921875 310.867188 102.035156 310.609375 100.082031 C 310.480469 98.84375 310.347656 97.542969 310.285156 96.304688 C 310.023438 94.808594 309.894531 93.308594 309.761719 91.8125 C 309.503906 88.101562 309.570312 84.390625 309.632812 80.679688 C 309.375 76.054688 308.851562 71.433594 308.527344 66.746094 C 308.464844 65.507812 308.398438 64.269531 308.332031 63.03125 C 308.332031 61.601562 308.398438 60.167969 308.527344 58.800781 C 307.488281 58.734375 306.511719 58.734375 305.472656 58.734375 C 303.585938 58.800781 301.699219 58.867188 299.878906 58.996094 C 283.753906 59.710938 267.558594 60.949219 251.5 62.835938 C 245.710938 63.421875 239.988281 64.007812 234.265625 65.183594 C 233.617188 65.246094 232.835938 65.441406 232.054688 65.636719 C 232.25 66.875 232.378906 68.113281 232.25 69.347656 C 232.25 69.480469 232.25 69.609375 232.25 69.738281 C 232.25 73.515625 229.390625 76.511719 226.203125 78.074219 C 225.683594 78.332031 225.097656 78.59375 224.511719 78.917969 C 222.429688 79.898438 220.21875 80.679688 217.945312 80.546875 C 217.617188 81.003906 217.230469 81.460938 216.707031 81.589844 C 213.457031 84.84375 209.945312 87.839844 206.5625 90.964844 C 207.539062 93.179688 207.667969 95.71875 207.410156 98.0625 C 207.214844 99.949219 207.019531 101.902344 206.175781 103.660156 C 205.980469 104.050781 205.71875 104.378906 205.523438 104.769531 C 204.875 105.808594 204.15625 106.722656 203.378906 107.632812 C 202.792969 108.347656 202.140625 109.066406 201.492188 109.71875 C 198.628906 112.90625 194.46875 114.664062 190.4375 115.902344 C 190.046875 116.03125 189.589844 116.164062 189.203125 116.226562 C 187.316406 116.617188 185.429688 116.683594 183.542969 116.617188 C 182.375 116.554688 181.136719 116.488281 179.96875 116.421875 C 176.714844 116.359375 173.660156 115.578125 170.796875 114.144531 C 170.472656 114.015625 170.214844 113.820312 169.886719 113.625 C 169.824219 113.625 169.824219 113.558594 169.824219 113.558594 C 168.394531 112.84375 167.027344 111.996094 165.660156 111.085938 C 165.269531 111.28125 164.816406 111.410156 164.359375 111.476562 C 164.296875 111.476562 164.230469 111.539062 164.164062 111.539062 C 162.996094 111.929688 161.824219 112.320312 160.65625 112.777344 C 158.703125 113.558594 156.753906 114.46875 154.867188 115.445312 C 154.28125 115.707031 153.304688 116.226562 152.332031 116.683594 C 152.589844 117.59375 151.941406 118.570312 151.09375 118.832031 C 150.703125 118.960938 150.25 118.898438 149.792969 118.570312 C 148.039062 117.074219 146.476562 115.25 145.632812 113.101562 C 144.722656 109.914062 144.460938 106.332031 145.828125 103.207031 C 146.414062 102.164062 147.0625 100.339844 148.363281 100.144531 C 148.625 100.082031 148.949219 100.144531 149.339844 100.277344 C 150.964844 101.1875 150.183594 102.683594 149.339844 103.855469 C 149.273438 103.988281 149.210938 104.117188 149.144531 104.246094 C 148.753906 104.898438 148.558594 105.679688 148.492188 106.394531 C 148.558594 106.332031 148.6875 106.332031 148.753906 106.265625 C 149.664062 105.160156 150.511719 104.050781 151.421875 102.945312 C 151.421875 102.945312 151.484375 102.878906 151.484375 102.878906 C 152.722656 101.1875 154.019531 99.625 155.257812 97.933594 C 155.257812 97.800781 155.320312 97.738281 155.386719 97.605469 C 154.800781 95.589844 154.476562 93.503906 154.347656 91.421875 C 154.347656 91.160156 154.28125 90.964844 154.28125 90.703125 C 154.214844 90.25 154.214844 89.859375 154.152344 89.402344 C 153.761719 84.976562 154.347656 80.417969 155.84375 76.183594 C 152.199219 76.769531 148.949219 77.160156 145.4375 77.878906 C 144.527344 78.136719 143.550781 78.332031 142.640625 78.59375 C 134.511719 80.613281 126.382812 82.5 118.191406 84.257812 C 115.589844 84.84375 112.988281 85.429688 110.324219 85.953125 C 109.933594 86.082031 109.476562 86.148438 109.085938 86.277344 C 106.160156 87.058594 103.234375 87.839844 100.308594 88.6875 C 98.292969 89.273438 96.277344 89.921875 94.261719 90.640625 C 92.699219 91.289062 91.140625 91.941406 89.644531 92.59375 C 88.667969 92.984375 87.691406 93.375 86.71875 93.765625 C 86.523438 93.828125 86.261719 93.960938 86.003906 94.027344 C 85.9375 94.027344 85.871094 94.089844 85.871094 94.089844 C 82.492188 95.457031 79.175781 96.957031 75.988281 98.582031 C 75.792969 98.910156 75.53125 99.167969 75.335938 99.429688 C 74.363281 100.730469 73.453125 102.097656 72.605469 103.464844 C 71.761719 104.832031 70.980469 106.265625 70.332031 107.761719 C 70.199219 108.023438 70.136719 108.285156 70.003906 108.542969 C 69.289062 110.5 69.03125 112.648438 68.898438 114.730469 C 68.835938 115.511719 68.769531 116.226562 68.769531 116.945312 C 68.703125 118.898438 68.378906 120.851562 68.640625 122.738281 C 69.550781 126.777344 70.460938 131.007812 73.0625 134.328125 C 74.363281 136.152344 75.53125 138.234375 77.417969 139.539062 C 77.875 139.734375 78.265625 139.992188 78.589844 140.320312 C 79.175781 140.96875 79.371094 141.882812 78.523438 142.726562 C 75.402344 144.875 71.761719 146.308594 68.25 147.742188 C 65.257812 148.976562 62.722656 150.867188 59.992188 152.625 C 57.066406 154.253906 54.464844 156.464844 51.863281 158.550781 C 48.742188 160.761719 46.011719 163.367188 43.472656 166.230469 C 43.277344 166.425781 43.082031 166.6875 42.886719 166.882812 C 38.855469 171.3125 36.386719 176.78125 33.785156 182.117188 C 33.070312 184.527344 32.417969 186.9375 31.898438 189.410156 C 31.183594 192.925781 30.597656 196.441406 29.882812 199.960938 C 29.816406 201 29.753906 201.976562 29.621094 202.953125 C 29.296875 206.078125 28.90625 209.140625 29.363281 212.265625 C 29.363281 212.460938 29.425781 212.65625 29.425781 212.851562 C 29.492188 213.113281 29.558594 213.308594 29.558594 213.566406 C 29.753906 214.480469 29.882812 215.457031 29.363281 216.042969 C 29.363281 216.042969 29.363281 216.105469 29.363281 216.105469 C 29.425781 216.886719 29.492188 217.605469 29.492188 218.386719 C 29.753906 225.871094 30.144531 233.296875 30.792969 240.78125 C 31.636719 249.703125 33.132812 258.558594 34.371094 267.414062 C 34.433594 268 34.5 268.648438 34.566406 269.234375 C 35.34375 275.683594 36.320312 282.0625 37.75 288.378906 C 38.011719 289.421875 38.207031 290.460938 38.464844 291.503906 C 39.441406 295.019531 40.417969 298.601562 41.328125 302.183594 C 42.238281 305.699219 43.148438 309.148438 44.1875 312.597656 C 44.515625 313.835938 44.90625 315.007812 45.292969 316.179688 C 46.203125 318.914062 47.570312 321.519531 48.546875 324.253906 C 48.546875 324.1875 48.609375 324.1875 48.675781 324.1875 C 48.804688 324.125 48.871094 323.992188 49 323.929688 C 49.066406 323.929688 49.066406 323.863281 49.132812 323.863281 C 49.328125 323.796875 49.457031 323.667969 49.652344 323.667969 C 49.714844 323.667969 49.78125 323.667969 49.847656 323.667969 C 50.105469 323.667969 50.367188 323.601562 50.625 323.601562 C 50.886719 323.601562 51.210938 323.601562 51.472656 323.539062 C 52.058594 323.472656 52.644531 323.277344 53.164062 323.148438 C 54.332031 322.820312 55.503906 322.429688 56.738281 322.234375 C 56.871094 322.234375 57 322.234375 57.128906 322.234375 C 59.015625 322.105469 60.835938 321.976562 62.65625 321.390625 C 69.550781 318.851562 76.574219 316.765625 83.792969 315.136719 C 85.808594 314.550781 87.757812 314.097656 89.773438 313.640625 C 95.429688 312.402344 101.152344 311.621094 106.8125 310.90625 C 107.917969 310.777344 109.085938 310.644531 110.191406 310.449219 C 117.28125 309.277344 124.238281 307.519531 131.195312 305.761719 C 137.246094 304.199219 143.292969 302.636719 149.339844 301.335938 C 151.484375 300.878906 153.632812 300.421875 155.84375 300.03125 C 177.886719 295.34375 199.734375 289.941406 221.390625 283.820312 C 236.671875 279.457031 251.433594 273.664062 266.261719 268 C 266.324219 268 266.453125 267.933594 266.519531 267.933594 C 266.910156 267.804688 267.367188 267.609375 267.753906 267.476562 C 276.144531 264.417969 284.46875 261.226562 292.660156 257.648438 C 299.75 254.78125 306.902344 252.242188 313.925781 249.3125 C 318.867188 247.359375 323.746094 245.144531 328.558594 242.867188 C 329.855469 242.214844 331.15625 241.695312 332.457031 241.109375 C 336.359375 239.480469 340.390625 238.046875 343.449219 235.054688 C 344.292969 234.078125 345.398438 233.101562 345.984375 231.929688 C 346.308594 231.34375 346.503906 230.691406 346.375 229.910156 C 345.398438 228.28125 344.488281 226.589844 343.511719 224.894531 Z M 155.515625 122.085938 C 155.386719 122.085938 155.257812 122.023438 155.125 122.023438 C 154.28125 121.761719 153.632812 120.914062 153.4375 120.070312 C 153.304688 119.546875 153.304688 118.960938 153.566406 118.507812 C 153.761719 118.179688 154.085938 117.855469 154.605469 117.726562 C 155.453125 117.53125 156.296875 118.050781 156.621094 118.832031 C 157.988281 119.351562 157.988281 120.785156 157.273438 121.632812 C 156.882812 122.023438 156.230469 122.28125 155.515625 122.085938 Z M 155.515625 122.085938 " fill-opacity="1" fill-rule="nonzero" />
	<path fill="#82dcd0" d="M 29.296875 175.804688 C 29.101562 179.90625 28.90625 183.941406 28.777344 188.042969 C 28.84375 187.71875 28.90625 187.394531 28.972656 187.066406 C 29.363281 185.441406 29.753906 183.8125 30.144531 182.117188 C 30.46875 181.011719 30.988281 179.96875 31.445312 178.929688 C 32.09375 177.625 32.808594 176.324219 33.460938 175.023438 C 33.980469 173.914062 34.566406 172.875 35.148438 171.832031 C 35.867188 170.53125 36.644531 169.292969 37.492188 168.121094 C 37.75 167.796875 38.011719 167.46875 38.273438 167.144531 C 40.027344 164.863281 41.976562 162.714844 44.058594 160.699219 C 44.1875 160.566406 44.320312 160.4375 44.449219 160.308594 C 45.230469 159.589844 46.011719 158.808594 46.855469 158.09375 C 49.457031 156.140625 51.992188 153.992188 54.59375 152.039062 C 55.046875 151.710938 55.570312 151.453125 56.023438 151.125 C 57.519531 150.148438 59.015625 149.171875 60.511719 148.195312 C 61.679688 147.480469 62.785156 146.765625 63.957031 146.046875 C 67.273438 144.226562 70.914062 143.183594 74.167969 141.359375 C 71.5 138.171875 68.703125 134.785156 67.339844 130.8125 C 66.167969 127.035156 64.804688 123.195312 65.324219 119.15625 C 65.386719 117.921875 65.453125 116.683594 65.519531 115.382812 C 65.714844 112.972656 65.972656 110.5625 66.625 108.285156 C 67.144531 106.460938 67.925781 104.636719 69.03125 102.945312 C 69.03125 102.878906 69.09375 102.816406 69.09375 102.816406 C 69.226562 102.621094 69.355469 102.425781 69.421875 102.230469 C 67.792969 103.207031 66.234375 104.246094 64.671875 105.289062 C 64.609375 105.355469 64.542969 105.355469 64.476562 105.417969 C 64.28125 105.550781 64.152344 105.613281 63.957031 105.746094 C 60.1875 108.152344 56.542969 110.890625 53.292969 114.015625 C 53.097656 114.144531 52.96875 114.339844 52.773438 114.46875 C 52.449219 114.796875 52.058594 115.121094 51.730469 115.445312 C 50.042969 117.007812 48.351562 118.636719 46.789062 120.394531 C 45.945312 121.304688 45.164062 122.28125 44.449219 123.257812 C 43.082031 125.34375 41.847656 127.492188 40.675781 129.640625 C 38.988281 132.765625 37.359375 136.019531 35.929688 139.277344 C 34.238281 143.703125 32.808594 148.261719 31.703125 152.886719 C 30.988281 155.878906 30.46875 158.875 30.144531 161.933594 C 29.816406 166.621094 29.558594 171.179688 29.296875 175.804688 Z M 29.296875 175.804688 " fill-opacity="1" fill-rule="nonzero" />
	<path fill="#ff9900" d="M 211.636719 79.960938 C 210.464844 81.199219 209.296875 82.371094 207.996094 83.542969 C 207.28125 84.195312 206.238281 84.128906 205.589844 83.414062 C 204.9375 82.695312 205.003906 81.589844 205.71875 81.003906 C 205.785156 80.9375 205.847656 80.875 205.914062 80.875 C 206.890625 79.960938 207.863281 78.984375 208.839844 78.007812 C 209.425781 77.421875 209.945312 76.835938 210.53125 76.183594 C 210.269531 75.925781 210.074219 75.730469 209.816406 75.46875 C 209.554688 75.207031 209.230469 74.949219 208.90625 74.6875 C 207.34375 73.777344 206.175781 72.34375 204.742188 71.238281 C 204.679688 71.171875 204.546875 71.105469 204.484375 71.042969 C 203.769531 70.457031 203.050781 69.871094 202.664062 68.957031 C 202.664062 68.894531 202.597656 68.894531 202.597656 68.828125 C 202.273438 68.046875 201.6875 67.136719 202.011719 66.289062 C 201.945312 66.222656 201.945312 66.09375 201.882812 65.964844 C 201.035156 64.140625 200.777344 62.121094 200.839844 60.167969 C 200.320312 60.363281 199.800781 60.558594 199.410156 60.753906 C 199.410156 60.753906 199.347656 60.753906 199.28125 60.820312 C 197.851562 61.46875 196.417969 62.121094 194.988281 62.835938 C 194.664062 62.96875 194.339844 63.164062 194.078125 63.292969 C 192.714844 63.945312 191.347656 64.660156 189.980469 65.378906 C 189.65625 65.574219 189.332031 65.703125 188.941406 65.898438 C 187.902344 66.484375 186.796875 67.070312 185.753906 67.589844 C 185.234375 67.851562 184.714844 68.175781 184.195312 68.4375 C 182.894531 69.152344 181.59375 69.933594 180.359375 70.652344 C 180.226562 70.714844 180.097656 70.78125 180.03125 70.847656 C 179.316406 71.300781 178.535156 71.757812 177.820312 72.214844 C 177.171875 72.605469 176.457031 72.996094 175.742188 73.320312 C 174.179688 74.101562 172.621094 74.816406 170.929688 75.273438 C 170.082031 75.597656 169.042969 75.144531 168.71875 74.230469 C 168.003906 71.691406 171.515625 71.691406 173.007812 70.847656 C 173.398438 70.652344 173.726562 70.457031 174.050781 70.261719 C 177.105469 68.566406 180.164062 66.808594 183.21875 65.050781 C 178.082031 63.683594 172.878906 63.617188 168.003906 66.289062 C 165.402344 67.917969 163.386719 69.933594 161.761719 72.214844 C 160.394531 74.230469 159.355469 76.378906 158.636719 78.722656 C 157.921875 81.265625 157.53125 83.933594 157.53125 86.734375 C 157.726562 90.769531 158.054688 94.808594 159.484375 98.386719 C 160.328125 100.472656 161.5 102.359375 163.253906 104.050781 C 164.101562 104.832031 164.945312 105.550781 165.792969 106.265625 C 166.183594 106.589844 166.570312 106.851562 166.960938 107.175781 C 169.042969 108.742188 171.253906 110.109375 173.660156 111.148438 C 174.441406 111.476562 175.21875 111.800781 176 112.0625 C 178.015625 112.515625 180.164062 112.582031 182.242188 112.710938 C 182.570312 112.710938 182.894531 112.777344 183.21875 112.777344 C 184.195312 112.84375 185.167969 112.84375 186.144531 112.777344 C 187.964844 112.710938 189.722656 112.386719 191.414062 111.671875 C 191.996094 111.476562 192.519531 111.28125 193.039062 111.085938 C 195.378906 110.171875 197.523438 108.871094 199.214844 107.046875 C 199.542969 106.722656 199.800781 106.394531 200.0625 106.070312 C 202.011719 103.988281 204.027344 101.449219 204.09375 98.519531 C 204.351562 96.695312 204.417969 94.871094 204.027344 93.113281 C 203.703125 93.4375 203.378906 93.699219 203.117188 94.027344 C 202.859375 94.285156 202.597656 94.546875 202.335938 94.808594 C 201.753906 95.394531 201.230469 95.980469 200.648438 96.628906 C 199.476562 97.800781 198.242188 98.972656 197.003906 100.144531 C 196.03125 101.058594 194.988281 101.96875 194.011719 102.878906 C 193.753906 103.074219 193.558594 103.269531 193.296875 103.53125 C 193.167969 103.660156 192.972656 103.855469 192.84375 103.988281 C 192.90625 104.3125 192.90625 104.636719 192.777344 105.027344 C 192.714844 105.160156 192.714844 105.222656 192.582031 105.355469 C 191.085938 107.242188 188.292969 107.632812 186.015625 107.503906 C 184.195312 107.308594 180.746094 107.4375 178.730469 106.265625 C 177.886719 105.808594 177.300781 105.09375 177.171875 104.050781 C 177.238281 103.140625 178.015625 102.359375 178.992188 102.425781 C 179.578125 102.425781 180.03125 102.75 180.292969 103.207031 C 181.136719 103.660156 182.046875 103.726562 182.957031 103.921875 C 184.78125 103.988281 186.796875 104.441406 188.617188 103.921875 C 188.617188 103.921875 188.617188 103.855469 188.617188 103.855469 C 188.617188 103.792969 188.617188 103.660156 188.617188 103.597656 C 188.617188 103.53125 188.617188 103.464844 188.679688 103.402344 C 188.679688 103.402344 188.679688 103.335938 188.679688 103.335938 C 188.8125 102.816406 189.203125 102.425781 189.722656 102.164062 C 189.722656 102.164062 189.785156 102.164062 189.785156 102.164062 C 191.085938 100.992188 192.324219 99.753906 193.625 98.582031 C 194.46875 97.867188 195.3125 97.085938 196.09375 96.304688 C 198.4375 94.023438 200.648438 91.617188 202.988281 89.335938 C 203.183594 88.945312 203.507812 88.621094 203.898438 88.425781 C 204.222656 88.164062 204.484375 87.90625 204.808594 87.578125 C 205.070312 87.382812 205.261719 87.1875 205.457031 86.929688 C 208.449219 84.324219 211.375 81.65625 214.238281 78.855469 C 213.78125 78.660156 213.328125 78.398438 212.9375 78.136719 C 212.613281 78.984375 212.089844 79.441406 211.636719 79.960938 Z M 165.792969 84.195312 C 166.117188 82.4375 165.660156 78.074219 168.394531 78.464844 C 168.523438 78.464844 168.652344 78.527344 168.78125 78.59375 C 170.472656 79.3125 169.433594 81.523438 169.304688 82.957031 C 169.238281 84.257812 169.171875 86.015625 167.417969 85.953125 C 167.289062 85.953125 167.15625 85.953125 167.09375 85.886719 C 166.3125 85.757812 165.726562 85.039062 165.792969 84.195312 Z M 174.636719 102.425781 C 174.503906 102.621094 174.308594 102.75 174.113281 102.878906 C 173.59375 103.207031 172.945312 103.269531 172.359375 102.816406 C 172.097656 102.621094 171.839844 102.425781 171.644531 102.164062 C 170.992188 101.449219 170.472656 100.667969 169.953125 99.886719 C 169.824219 99.691406 169.691406 99.496094 169.5625 99.300781 C 168.328125 97.605469 167.289062 95.785156 166.636719 93.765625 C 166.570312 93.503906 166.507812 93.242188 166.441406 93.046875 C 166.117188 91.355469 165.53125 87.96875 168.066406 87.90625 C 169.886719 88.101562 169.757812 89.664062 169.628906 91.03125 C 169.628906 91.289062 169.691406 91.617188 169.757812 91.941406 C 169.886719 92.527344 170.082031 93.113281 170.277344 93.570312 C 171.253906 95.914062 172.816406 97.996094 174.375 100.015625 C 174.441406 100.082031 174.570312 100.144531 174.636719 100.210938 C 174.894531 100.40625 175.027344 100.730469 175.089844 101.058594 C 175.089844 101.578125 174.894531 102.035156 174.636719 102.425781 Z M 200.453125 90.835938 C 198.109375 93.4375 195.640625 95.980469 193.101562 98.386719 C 192.84375 98.648438 192.453125 98.777344 192.128906 98.84375 C 191.609375 98.910156 191.085938 98.714844 190.761719 98.324219 C 190.113281 97.605469 190.242188 96.566406 190.890625 95.914062 C 192.582031 94.285156 194.273438 92.527344 195.898438 90.835938 C 196.875 89.988281 197.523438 88.75 198.628906 88.164062 C 198.824219 88.101562 198.957031 88.035156 199.152344 88.035156 C 200.453125 87.90625 201.492188 89.664062 200.453125 90.835938 Z M 204.875 86.796875 C 204.546875 87.253906 204.027344 87.449219 203.441406 87.449219 C 202.53125 87.449219 201.816406 86.539062 201.816406 85.625 C 201.816406 85.171875 202.078125 84.714844 202.402344 84.453125 C 202.726562 84.195312 203.183594 84 203.636719 84 C 204.546875 84 205.261719 84.910156 205.261719 85.820312 C 205.199219 86.210938 205.070312 86.539062 204.875 86.796875 Z M 228.867188 65.507812 C 228.609375 65.378906 228.414062 65.183594 228.21875 64.988281 C 227.828125 64.398438 227.828125 63.75 228.089844 63.226562 C 226.136719 59.710938 224.96875 55.480469 221.714844 53.070312 C 221.390625 52.8125 221.066406 52.617188 220.738281 52.421875 C 219.828125 51.703125 218.855469 51.25 217.8125 50.921875 C 216.96875 50.664062 216.125 50.53125 215.210938 50.46875 C 214.628906 50.402344 214.042969 50.402344 213.523438 50.335938 C 211.894531 50.011719 210.597656 50.078125 209.425781 50.402344 C 205.394531 51.507812 204.09375 56.066406 204.222656 60.882812 C 204.222656 62.316406 204.546875 63.75 205.132812 65.050781 C 205.847656 65.507812 206.109375 66.679688 205.589844 67.394531 C 206.109375 68.503906 207.410156 68.957031 208.191406 69.871094 C 209.164062 70.976562 210.464844 71.757812 211.570312 72.667969 C 212.9375 74.035156 214.367188 75.46875 216.125 76.316406 C 216.96875 76.769531 217.878906 77.03125 218.855469 77.097656 C 219.441406 77.03125 220.023438 76.964844 220.546875 76.835938 C 221.585938 76.574219 222.5625 76.25 223.472656 75.730469 C 224.578125 75.207031 225.617188 74.558594 226.65625 73.90625 C 226.789062 73.839844 226.917969 73.710938 227.046875 73.644531 C 227.046875 73.644531 227.113281 73.582031 227.113281 73.582031 C 228.347656 72.539062 228.933594 71.105469 229.0625 69.542969 C 229.0625 69.542969 229.0625 69.480469 229.0625 69.480469 C 229.0625 69.414062 229.0625 69.347656 229.0625 69.285156 C 229.257812 67.917969 229.128906 66.679688 228.867188 65.507812 Z M 228.867188 65.507812 " fill-opacity="1" fill-rule="nonzero" />
	<path fill="#dcd8ca" d="M 155.125 103.855469 C 155.0625 103.921875 155.0625 103.988281 154.996094 103.988281 C 153.632812 105.746094 152.265625 107.503906 150.835938 109.195312 C 150.769531 109.261719 150.703125 109.328125 150.640625 109.390625 C 150.445312 109.585938 150.183594 109.71875 149.925781 109.78125 C 149.792969 109.914062 149.730469 110.042969 149.597656 110.109375 C 149.40625 110.304688 149.273438 110.5 149.144531 110.628906 C 149.144531 110.628906 149.144531 110.695312 149.078125 110.695312 C 149.015625 110.890625 148.882812 111.085938 148.820312 111.214844 C 148.882812 111.539062 149.015625 111.867188 149.078125 112.125 C 149.339844 112.710938 149.730469 113.234375 150.121094 113.753906 C 150.640625 113.558594 151.160156 113.429688 151.617188 113.234375 C 152.199219 112.972656 152.785156 112.648438 153.371094 112.320312 C 156.363281 110.824219 159.417969 109.328125 162.671875 108.285156 C 160.980469 106.785156 159.484375 105.222656 158.183594 103.402344 C 158.183594 103.402344 158.117188 103.335938 158.117188 103.335938 C 157.664062 102.683594 157.273438 102.035156 156.949219 101.316406 C 156.363281 102.230469 155.777344 103.011719 155.125 103.855469 Z M 155.125 103.855469 " fill-opacity="1" fill-rule="nonzero" />
	<g fill="#04428c" fill-opacity="1">
		<g transform="translate(58.63966, 205.050136)">
			<g>
				<path d="M 5.328125 -22.234375 C 5.578125 -22.316406 5.90625 -22.359375 6.3125 -22.359375 C 6.71875 -22.359375 7.1875 -22.359375 7.71875 -22.359375 L 9.375 -22.359375 L 9.671875 -22.109375 C 9.960938 -21.910156 10.21875 -21.71875 10.4375 -21.53125 C 10.664062 -21.34375 10.820312 -21.171875 10.90625 -21.015625 C 10.945312 -20.929688 10.988281 -20.785156 11.03125 -20.578125 C 11.070312 -20.378906 11.128906 -20.113281 11.203125 -19.78125 L 11.328125 -18.75 L 11.328125 -7.65625 L 11.640625 -7.46875 C 11.722656 -7.34375 11.914062 -7.25 12.21875 -7.1875 C 12.519531 -7.132812 12.898438 -7.085938 13.359375 -7.046875 C 14.046875 -6.960938 14.515625 -6.960938 14.765625 -7.046875 C 15.828125 -7.242188 16.691406 -7.628906 17.359375 -8.203125 C 18.035156 -8.773438 18.515625 -9.613281 18.796875 -10.71875 C 19.285156 -12.394531 18.960938 -13.84375 17.828125 -15.0625 C 16.890625 -15.925781 15.765625 -16.273438 14.453125 -16.109375 C 13.960938 -16.066406 13.578125 -16.109375 13.296875 -16.234375 C 12.597656 -16.390625 12.144531 -16.976562 11.9375 -18 C 11.894531 -18.164062 11.800781 -18.585938 11.65625 -19.265625 C 11.519531 -19.941406 11.535156 -20.523438 11.703125 -21.015625 L 11.875 -21.625 L 12.671875 -21.859375 C 13.898438 -22.234375 15.207031 -22.421875 16.59375 -22.421875 C 17.5 -22.421875 18.429688 -22.316406 19.390625 -22.109375 C 20.347656 -21.910156 21.253906 -21.59375 22.109375 -21.15625 C 22.960938 -20.726562 23.75 -20.195312 24.46875 -19.5625 C 25.1875 -18.9375 25.75 -18.191406 26.15625 -17.328125 C 26.601562 -16.515625 26.914062 -15.609375 27.09375 -14.609375 C 27.28125 -13.609375 27.332031 -12.515625 27.25 -11.328125 C 27.207031 -10.265625 27.054688 -9.191406 26.796875 -8.109375 C 26.535156 -7.035156 26.128906 -6.023438 25.578125 -5.078125 C 25.023438 -4.140625 24.347656 -3.3125 23.546875 -2.59375 C 22.753906 -1.882812 21.828125 -1.347656 20.765625 -0.984375 C 19.617188 -0.609375 17.617188 -0.421875 14.765625 -0.421875 L 12.25 -0.421875 L 12.1875 -0.0625 C 12.0625 0.257812 11.976562 0.757812 11.9375 1.4375 C 11.894531 2.113281 11.875 2.984375 11.875 4.046875 C 11.875 6.660156 11.816406 8.394531 11.703125 9.25 C 11.660156 9.695312 11.332031 10.1875 10.71875 10.71875 C 10.3125 11.039062 9.875 11.242188 9.40625 11.328125 C 8.9375 11.410156 8.109375 11.453125 6.921875 11.453125 C 5.734375 11.410156 4.769531 11.234375 4.03125 10.921875 C 3.300781 10.617188 2.851562 9.816406 2.6875 8.515625 C 2.65625 8.304688 2.640625 7.734375 2.640625 6.796875 C 2.640625 5.859375 2.640625 4.59375 2.640625 3 C 2.640625 1.320312 2.644531 -0.0351562 2.65625 -1.078125 C 2.675781 -2.117188 2.707031 -2.921875 2.75 -3.484375 C 2.789062 -4.097656 2.8125 -4.90625 2.8125 -5.90625 C 2.8125 -6.90625 2.8125 -8.101562 2.8125 -9.5 C 2.8125 -10.882812 2.820312 -12.003906 2.84375 -12.859375 C 2.863281 -13.722656 2.894531 -14.335938 2.9375 -14.703125 C 3.0625 -15.765625 3.144531 -16.773438 3.1875 -17.734375 C 3.226562 -18.691406 3.226562 -19.617188 3.1875 -20.515625 C 3.1875 -21.046875 3.367188 -21.4375 3.734375 -21.6875 C 4.097656 -21.96875 4.628906 -22.148438 5.328125 -22.234375 Z M 21.3125 -20.578125 C 20.90625 -20.703125 20.5625 -20.765625 20.28125 -20.765625 C 19.820312 -20.765625 19.492188 -20.660156 19.296875 -20.453125 L 19.234375 -20.28125 L 19.71875 -19.90625 C 20.457031 -19.457031 21.273438 -19.070312 22.171875 -18.75 C 22.296875 -18.707031 22.40625 -18.675781 22.5 -18.65625 C 22.601562 -18.632812 22.71875 -18.644531 22.84375 -18.6875 C 23.132812 -18.800781 23.238281 -18.984375 23.15625 -19.234375 C 22.945312 -19.847656 22.332031 -20.296875 21.3125 -20.578125 Z M 21.3125 -20.578125 " />
			</g>
		</g>
	</g>
	<g fill="#04428c" fill-opacity="1">
		<g transform="translate(87.178833, 205.050136)">
			<g>
				<path d="M 6.859375 -22.59375 C 7.671875 -22.59375 8.585938 -22.539062 9.609375 -22.4375 C 10.628906 -22.34375 11.46875 -21.96875 12.125 -21.3125 L 12.3125 -21.0625 L 12.984375 -21.1875 C 13.109375 -21.226562 13.300781 -21.289062 13.5625 -21.375 C 13.832031 -21.457031 14.128906 -21.539062 14.453125 -21.625 C 15.679688 -22.113281 16.703125 -22.359375 17.515625 -22.359375 C 18.296875 -22.359375 18.765625 -22.316406 18.921875 -22.234375 C 19.941406 -22.066406 20.59375 -21.847656 20.875 -21.578125 C 21.164062 -21.316406 21.394531 -20.863281 21.5625 -20.21875 C 21.6875 -19.5625 21.601562 -18.765625 21.3125 -17.828125 L 21.1875 -17.328125 L 20.703125 -17.09375 C 20.128906 -16.84375 19.609375 -16.632812 19.140625 -16.46875 C 18.671875 -16.3125 18.210938 -16.148438 17.765625 -15.984375 C 17.597656 -15.941406 17.28125 -15.835938 16.8125 -15.671875 C 16.34375 -15.515625 15.851562 -15.332031 15.34375 -15.125 C 14.832031 -14.925781 14.363281 -14.734375 13.9375 -14.546875 C 13.507812 -14.359375 13.253906 -14.226562 13.171875 -14.15625 C 13.210938 -14.113281 13.171875 -13.875 13.046875 -13.4375 C 12.921875 -13.007812 12.835938 -12.390625 12.796875 -11.578125 C 12.753906 -11.171875 12.742188 -10.585938 12.765625 -9.828125 C 12.785156 -9.078125 12.796875 -8.128906 12.796875 -6.984375 C 12.835938 -5.597656 12.828125 -4.515625 12.765625 -3.734375 C 12.703125 -2.960938 12.632812 -2.367188 12.5625 -1.953125 C 12.3125 -0.972656 11.816406 -0.320312 11.078125 0 C 10.347656 0.320312 9.515625 0.484375 8.578125 0.484375 C 7.878906 0.484375 7.203125 0.453125 6.546875 0.390625 C 5.898438 0.335938 5.3125 0.195312 4.78125 -0.03125 C 4.25 -0.257812 3.785156 -0.597656 3.390625 -1.046875 C 3.003906 -1.492188 2.753906 -2.101562 2.640625 -2.875 C 2.554688 -3.164062 2.503906 -3.644531 2.484375 -4.3125 C 2.460938 -4.988281 2.472656 -5.921875 2.515625 -7.109375 C 2.515625 -7.796875 2.515625 -8.523438 2.515625 -9.296875 C 2.515625 -10.078125 2.554688 -10.9375 2.640625 -11.875 C 2.710938 -14.488281 2.757812 -16.5 2.78125 -17.90625 C 2.800781 -19.320312 2.851562 -20.128906 2.9375 -20.328125 C 3.101562 -20.898438 3.328125 -21.296875 3.609375 -21.515625 C 3.898438 -21.742188 4.453125 -21.984375 5.265625 -22.234375 C 5.710938 -22.441406 6.242188 -22.5625 6.859375 -22.59375 Z M 9.375 -21.5625 C 9.039062 -21.644531 8.734375 -21.675781 8.453125 -21.65625 C 8.171875 -21.632812 8.046875 -21.519531 8.078125 -21.3125 C 8.160156 -20.988281 8.34375 -20.753906 8.625 -20.609375 C 8.914062 -20.460938 9.265625 -20.289062 9.671875 -20.09375 C 9.878906 -20.050781 10.046875 -20.09375 10.171875 -20.21875 C 10.253906 -20.375 10.296875 -20.535156 10.296875 -20.703125 C 10.296875 -20.941406 10.203125 -21.125 10.015625 -21.25 C 9.828125 -21.375 9.613281 -21.476562 9.375 -21.5625 Z M 9.375 -21.5625 " />
			</g>
		</g>
	</g>
	<g fill="#04428c" fill-opacity="1">
		<g transform="translate(109.28751, 205.050136)">
			<g>
				<path d="M 14.03125 -22.65625 L 18.375 -22.65625 L 19.109375 -22.421875 C 20.742188 -21.972656 21.90625 -21.519531 22.59375 -21.0625 C 23.09375 -20.78125 23.523438 -20.472656 23.890625 -20.140625 C 24.253906 -19.816406 24.597656 -19.472656 24.921875 -19.109375 C 26.273438 -17.316406 26.929688 -14.867188 26.890625 -11.765625 C 26.847656 -10.492188 26.660156 -9.265625 26.328125 -8.078125 C 26.003906 -6.898438 25.535156 -5.800781 24.921875 -4.78125 C 24.316406 -3.757812 23.539062 -2.867188 22.59375 -2.109375 C 21.65625 -1.359375 20.554688 -0.78125 19.296875 -0.375 C 19.085938 -0.289062 18.816406 -0.21875 18.484375 -0.15625 C 18.160156 -0.09375 17.753906 -0.0195312 17.265625 0.0625 L 15.796875 0.421875 L 13.96875 0.421875 C 10.289062 0.421875 7.367188 -0.421875 5.203125 -2.109375 C 3.035156 -3.804688 1.914062 -6.59375 1.84375 -10.46875 C 1.71875 -14.882812 2.941406 -18.296875 5.515625 -20.703125 C 6.003906 -21.148438 6.441406 -21.503906 6.828125 -21.765625 C 7.210938 -22.035156 7.613281 -22.191406 8.03125 -22.234375 C 8.101562 -22.316406 8.25 -22.335938 8.46875 -22.296875 C 8.695312 -22.253906 8.976562 -22.210938 9.3125 -22.171875 L 10.296875 -22.109375 L 11.203125 -22.359375 C 11.691406 -22.441406 12.171875 -22.5 12.640625 -22.53125 C 13.117188 -22.570312 13.582031 -22.613281 14.03125 -22.65625 Z M 20.578125 -20.828125 C 19.804688 -21.316406 19.378906 -21.191406 19.296875 -20.453125 C 19.296875 -20.335938 19.332031 -20.238281 19.40625 -20.15625 C 19.488281 -20.070312 19.632812 -19.925781 19.84375 -19.71875 C 20.25 -19.394531 20.570312 -19.179688 20.8125 -19.078125 C 21.0625 -18.972656 21.453125 -18.921875 21.984375 -18.921875 C 22.191406 -19.003906 22.242188 -19.132812 22.140625 -19.3125 C 22.035156 -19.5 21.800781 -19.800781 21.4375 -20.21875 C 21.226562 -20.375 21.0625 -20.492188 20.9375 -20.578125 C 20.820312 -20.660156 20.703125 -20.742188 20.578125 -20.828125 Z M 15.6875 -16.53125 C 15.070312 -16.65625 14.457031 -16.6875 13.84375 -16.625 C 13.226562 -16.5625 12.632812 -16.429688 12.0625 -16.234375 C 11.976562 -16.191406 11.863281 -16.078125 11.71875 -15.890625 C 11.582031 -15.710938 11.421875 -15.488281 11.234375 -15.21875 C 11.054688 -14.957031 10.882812 -14.679688 10.71875 -14.390625 C 10.550781 -14.109375 10.425781 -13.84375 10.34375 -13.59375 C 9.9375 -12.695312 9.773438 -11.695312 9.859375 -10.59375 C 9.859375 -9.570312 10.070312 -8.613281 10.5 -7.71875 C 10.925781 -6.820312 11.710938 -6.269531 12.859375 -6.0625 C 13.304688 -5.9375 13.738281 -5.875 14.15625 -5.875 C 15.132812 -5.875 15.925781 -6.035156 16.53125 -6.359375 C 17.144531 -6.691406 17.625 -7.132812 17.96875 -7.6875 C 18.320312 -8.238281 18.554688 -8.867188 18.671875 -9.578125 C 18.796875 -10.296875 18.859375 -11.0625 18.859375 -11.875 C 18.859375 -13.144531 18.695312 -14.046875 18.375 -14.578125 C 18.09375 -15.109375 17.722656 -15.546875 17.265625 -15.890625 C 16.816406 -16.242188 16.289062 -16.457031 15.6875 -16.53125 Z M 15.6875 -16.53125 " />
			</g>
		</g>
	</g>
	<g fill="#04428c" fill-opacity="1">
		<g transform="translate(138.010415, 205.050136)">
			<g>
				<path d="M 17.890625 -37.671875 C 18.253906 -37.753906 19.03125 -37.753906 20.21875 -37.671875 C 20.863281 -37.628906 21.390625 -37.609375 21.796875 -37.609375 C 22.210938 -37.609375 22.5 -37.585938 22.65625 -37.546875 C 24.25 -37.335938 25.921875 -37 27.671875 -36.53125 C 29.429688 -36.0625 30.988281 -35.359375 32.34375 -34.421875 C 33.519531 -33.484375 34.109375 -32.503906 34.109375 -31.484375 C 34.109375 -30.585938 33.679688 -29.769531 32.828125 -29.03125 C 32.460938 -28.664062 32.046875 -28.359375 31.578125 -28.109375 C 31.109375 -27.867188 30.585938 -27.75 30.015625 -27.75 C 29.679688 -27.75 29.289062 -27.828125 28.84375 -27.984375 C 28.394531 -28.148438 27.882812 -28.378906 27.3125 -28.671875 C 26.375 -29.203125 25.492188 -29.617188 24.671875 -29.921875 C 23.859375 -30.222656 23.109375 -30.394531 22.421875 -30.4375 C 21.847656 -30.519531 21.253906 -30.519531 20.640625 -30.4375 C 18.765625 -30.195312 17.234375 -29.503906 16.046875 -28.359375 C 15.023438 -27.335938 14.675781 -26.273438 15 -25.171875 C 15.164062 -24.398438 15.632812 -23.796875 16.40625 -23.359375 C 17.1875 -22.929688 17.925781 -22.660156 18.625 -22.546875 C 18.820312 -22.503906 18.992188 -22.472656 19.140625 -22.453125 C 19.285156 -22.429688 19.414062 -22.398438 19.53125 -22.359375 C 19.613281 -22.273438 19.765625 -22.234375 19.984375 -22.234375 C 20.210938 -22.234375 20.535156 -22.210938 20.953125 -22.171875 C 22.015625 -22.046875 23.132812 -21.828125 24.3125 -21.515625 C 25.5 -21.210938 26.644531 -20.804688 27.75 -20.296875 C 28.851562 -19.785156 29.894531 -19.171875 30.875 -18.453125 C 31.851562 -17.742188 32.664062 -16.960938 33.3125 -16.109375 C 33.925781 -15.210938 34.359375 -13.925781 34.609375 -12.25 C 34.691406 -11.507812 34.660156 -10.800781 34.515625 -10.125 C 34.367188 -9.457031 34.15625 -8.796875 33.875 -8.140625 C 33.21875 -6.710938 32.242188 -5.382812 30.953125 -4.15625 C 29.671875 -2.9375 28.007812 -1.859375 25.96875 -0.921875 C 24.820312 -0.390625 23.484375 -0.015625 21.953125 0.203125 C 20.421875 0.429688 19.046875 0.546875 17.828125 0.546875 C 15.617188 0.546875 13.460938 0.382812 11.359375 0.0625 C 9.253906 -0.257812 7.160156 -0.851562 5.078125 -1.71875 C 3.648438 -2.289062 2.773438 -2.941406 2.453125 -3.671875 C 2.285156 -4.035156 2.179688 -4.453125 2.140625 -4.921875 C 2.097656 -5.398438 2.179688 -5.925781 2.390625 -6.5 C 2.671875 -7.351562 3.140625 -8.046875 3.796875 -8.578125 C 4.453125 -9.109375 5.25 -9.375 6.1875 -9.375 C 6.800781 -9.375 7.492188 -9.25 8.265625 -9 C 9.617188 -8.71875 10.851562 -8.484375 11.96875 -8.296875 C 13.09375 -8.117188 14.125 -8.007812 15.0625 -7.96875 C 18.375 -7.882812 20.660156 -8.640625 21.921875 -10.234375 C 22.253906 -10.597656 22.476562 -11.066406 22.59375 -11.640625 C 22.71875 -12.210938 22.679688 -12.660156 22.484375 -12.984375 C 21.910156 -13.878906 21.210938 -14.519531 20.390625 -14.90625 C 19.578125 -15.300781 18.660156 -15.617188 17.640625 -15.859375 C 15.316406 -16.347656 13.359375 -16.835938 11.765625 -17.328125 C 10.171875 -17.816406 8.90625 -18.289062 7.96875 -18.75 C 5.3125 -20.050781 3.800781 -22.070312 3.4375 -24.8125 C 3.3125 -25.875 3.367188 -26.953125 3.609375 -28.046875 C 3.941406 -29.679688 4.535156 -31.070312 5.390625 -32.21875 C 6.242188 -33.363281 7.28125 -34.300781 8.5 -35.03125 C 9.726562 -35.769531 11.066406 -36.34375 12.515625 -36.75 C 13.972656 -37.15625 15.4375 -37.441406 16.90625 -37.609375 C 16.988281 -37.609375 17.109375 -37.609375 17.265625 -37.609375 C 17.429688 -37.609375 17.640625 -37.628906 17.890625 -37.671875 Z M 30.5625 -34.359375 C 30.238281 -34.523438 29.910156 -34.609375 29.578125 -34.609375 C 29.046875 -34.691406 28.722656 -34.566406 28.609375 -34.234375 C 28.566406 -34.035156 28.546875 -33.820312 28.546875 -33.59375 C 28.546875 -33.375 28.585938 -33.222656 28.671875 -33.140625 C 28.828125 -32.847656 29.191406 -32.578125 29.765625 -32.328125 C 30.335938 -32.085938 30.847656 -31.945312 31.296875 -31.90625 C 31.910156 -31.820312 32.21875 -32.046875 32.21875 -32.578125 C 32.21875 -32.910156 32.050781 -33.238281 31.71875 -33.5625 C 31.394531 -33.894531 31.007812 -34.160156 30.5625 -34.359375 Z M 30.5625 -34.359375 " />
			</g>
		</g>
	</g>
	<g fill="#04428c" fill-opacity="1">
		<g transform="translate(174.75613, 205.050136)">
			<g>
				<path d="M 25.359375 -20.28125 C 25.035156 -20.519531 24.769531 -20.535156 24.5625 -20.328125 C 24.4375 -20.210938 24.375 -20.03125 24.375 -19.78125 C 24.375 -19.457031 24.535156 -19.078125 24.859375 -18.640625 C 25.191406 -18.210938 25.539062 -18 25.90625 -18 C 26.15625 -18 26.300781 -18.207031 26.34375 -18.625 C 26.382812 -18.863281 26.300781 -19.144531 26.09375 -19.46875 C 25.882812 -19.800781 25.640625 -20.070312 25.359375 -20.28125 Z M 22.546875 -22.546875 C 23.441406 -22.703125 24.441406 -22.535156 25.546875 -22.046875 C 26.765625 -21.472656 27.679688 -20.597656 28.296875 -19.421875 C 28.503906 -19.171875 28.609375 -18.820312 28.609375 -18.375 L 28.609375 -17.765625 L 27.625 -15.796875 C 26.925781 -14.410156 26.25 -12.992188 25.59375 -11.546875 C 24.945312 -10.097656 24.253906 -8.597656 23.515625 -7.046875 C 22.898438 -5.617188 21.941406 -3.640625 20.640625 -1.109375 C 19.867188 0.398438 19.359375 1.546875 19.109375 2.328125 C 18.867188 2.816406 18.539062 3.425781 18.125 4.15625 C 17.71875 4.894531 17.25 5.734375 16.71875 6.671875 C 16.519531 7.046875 16.316406 7.414062 16.109375 7.78125 C 15.898438 8.144531 15.695312 8.53125 15.5 8.9375 C 15.25 9.382812 15.03125 9.757812 14.84375 10.0625 C 14.664062 10.375 14.484375 10.628906 14.296875 10.828125 C 14.117188 11.035156 13.90625 11.210938 13.65625 11.359375 C 13.414062 11.503906 13.109375 11.660156 12.734375 11.828125 L 11.875 12.1875 L 10.59375 12.1875 C 9.40625 12.144531 8.671875 11.984375 8.390625 11.703125 C 8.222656 11.617188 8.082031 11.578125 7.96875 11.578125 C 7.675781 11.453125 7.363281 11.234375 7.03125 10.921875 C 6.707031 10.617188 6.410156 10.285156 6.140625 9.921875 C 5.878906 9.554688 5.65625 9.164062 5.46875 8.75 C 5.289062 8.34375 5.160156 7.976562 5.078125 7.65625 C 4.960938 7.164062 4.960938 6.65625 5.078125 6.125 C 5.160156 5.800781 5.40625 5.238281 5.8125 4.4375 C 6.226562 3.644531 6.800781 2.65625 7.53125 1.46875 C 8.269531 0.238281 8.84375 -0.738281 9.25 -1.46875 C 9.65625 -2.207031 9.878906 -2.675781 9.921875 -2.875 C 9.921875 -2.875 9.78125 -3 9.5 -3.25 C 8.882812 -3.78125 8.28125 -4.410156 7.6875 -5.140625 C 7.09375 -5.878906 6.53125 -6.738281 6 -7.71875 C 5.550781 -8.570312 5.101562 -9.488281 4.65625 -10.46875 C 4.207031 -11.445312 3.738281 -12.507812 3.25 -13.65625 C 3 -14.269531 2.769531 -14.84375 2.5625 -15.375 C 2.363281 -15.90625 2.160156 -16.394531 1.953125 -16.84375 C 1.753906 -17.289062 1.601562 -17.644531 1.5 -17.90625 C 1.394531 -18.175781 1.320312 -18.375 1.28125 -18.5 C 1.125 -19.070312 1.125 -19.601562 1.28125 -20.09375 C 1.363281 -20.457031 1.578125 -20.789062 1.921875 -21.09375 C 2.273438 -21.40625 2.675781 -21.671875 3.125 -21.890625 C 3.570312 -22.117188 4.039062 -22.289062 4.53125 -22.40625 C 5.019531 -22.53125 5.445312 -22.59375 5.8125 -22.59375 C 6.269531 -22.59375 6.710938 -22.539062 7.140625 -22.4375 C 7.566406 -22.34375 7.984375 -22.171875 8.390625 -21.921875 C 8.878906 -21.515625 9.695312 -20.003906 10.84375 -17.390625 C 12.269531 -14.210938 13.1875 -12.359375 13.59375 -11.828125 C 13.757812 -11.617188 13.953125 -11.378906 14.171875 -11.109375 C 14.398438 -10.847656 14.515625 -10.738281 14.515625 -10.78125 C 14.554688 -10.78125 14.707031 -11.035156 14.96875 -11.546875 C 15.238281 -12.054688 15.535156 -12.597656 15.859375 -13.171875 C 17.085938 -15.410156 18.078125 -17.179688 18.828125 -18.484375 C 19.585938 -19.796875 20.128906 -20.675781 20.453125 -21.125 C 20.785156 -21.582031 21.253906 -21.992188 21.859375 -22.359375 C 21.941406 -22.398438 22.054688 -22.429688 22.203125 -22.453125 C 22.347656 -22.472656 22.460938 -22.503906 22.546875 -22.546875 Z M 22.546875 -22.546875 " />
			</g>
		</g>
	</g>
	<g fill="#04428c" fill-opacity="1">
		<g transform="translate(204.703894, 205.050136)">
			<g>
				<path d="M 4.78125 -23.21875 C 5.019531 -23.332031 5.46875 -23.332031 6.125 -23.21875 C 7.84375 -23.175781 9.289062 -22.742188 10.46875 -21.921875 C 10.800781 -21.679688 10.988281 -21.570312 11.03125 -21.59375 C 11.070312 -21.613281 11.351562 -21.703125 11.875 -21.859375 C 12.445312 -22.023438 12.988281 -22.171875 13.5 -22.296875 C 14.007812 -22.421875 14.550781 -22.519531 15.125 -22.59375 C 15.414062 -22.632812 15.753906 -22.664062 16.140625 -22.6875 C 16.523438 -22.707031 16.941406 -22.71875 17.390625 -22.71875 C 17.960938 -22.71875 18.515625 -22.6875 19.046875 -22.625 C 19.578125 -22.570312 20.085938 -22.503906 20.578125 -22.421875 C 22.453125 -21.929688 23.78125 -20.929688 24.5625 -19.421875 C 24.769531 -19.128906 24.953125 -18.800781 25.109375 -18.4375 C 25.273438 -18.070312 25.421875 -17.625 25.546875 -17.09375 C 25.660156 -16.71875 25.738281 -16.390625 25.78125 -16.109375 C 25.820312 -15.828125 25.863281 -15.5625 25.90625 -15.3125 C 25.945312 -14.863281 26.019531 -14.429688 26.125 -14.015625 C 26.226562 -13.609375 26.257812 -13.0625 26.21875 -12.375 C 26.09375 -10.164062 26.039062 -8.367188 26.0625 -6.984375 C 26.082031 -5.597656 26.03125 -4.617188 25.90625 -4.046875 C 25.820312 -3.515625 25.695312 -2.972656 25.53125 -2.421875 C 25.375 -1.867188 25.160156 -1.367188 24.890625 -0.921875 C 24.628906 -0.472656 24.273438 -0.117188 23.828125 0.140625 C 23.378906 0.410156 22.828125 0.546875 22.171875 0.546875 C 21.765625 0.546875 21.316406 0.488281 20.828125 0.375 C 20.578125 0.25 20.238281 0.125 19.8125 0 C 19.382812 -0.125 19.085938 -0.328125 18.921875 -0.609375 C 18.835938 -0.816406 18.734375 -1.0625 18.609375 -1.34375 C 18.492188 -1.632812 18.414062 -1.960938 18.375 -2.328125 C 18.332031 -2.648438 18.320312 -3.21875 18.34375 -4.03125 C 18.363281 -4.851562 18.394531 -5.921875 18.4375 -7.234375 C 18.4375 -8.367188 18.4375 -9.332031 18.4375 -10.125 C 18.4375 -10.925781 18.425781 -11.625 18.40625 -12.21875 C 18.382812 -12.8125 18.332031 -13.300781 18.25 -13.6875 C 18.164062 -14.070312 18.046875 -14.429688 17.890625 -14.765625 C 17.679688 -15.210938 17.441406 -15.503906 17.171875 -15.640625 C 16.910156 -15.785156 16.492188 -15.878906 15.921875 -15.921875 C 15.234375 -15.921875 14.5 -15.757812 13.71875 -15.4375 C 13.351562 -15.226562 12.992188 -15.019531 12.640625 -14.8125 C 12.296875 -14.613281 12.023438 -14.394531 11.828125 -14.15625 L 11.453125 -13.96875 L 11.453125 -1.84375 L 11.328125 -1.46875 C 11.128906 -0.976562 10.765625 -0.59375 10.234375 -0.3125 C 9.859375 -0.0625 9.394531 0.113281 8.84375 0.21875 C 8.300781 0.320312 7.78125 0.375 7.28125 0.375 C 6.226562 0.375 5.238281 0.210938 4.3125 -0.109375 C 3.394531 -0.441406 2.796875 -1.203125 2.515625 -2.390625 C 2.472656 -2.585938 2.453125 -3.125 2.453125 -4 C 2.453125 -4.882812 2.453125 -6.1875 2.453125 -7.90625 C 2.453125 -9.570312 2.453125 -10.914062 2.453125 -11.9375 C 2.453125 -12.957031 2.472656 -13.695312 2.515625 -14.15625 C 2.597656 -14.5625 2.640625 -15.085938 2.640625 -15.734375 C 2.640625 -16.390625 2.65625 -17.1875 2.6875 -18.125 C 2.726562 -19.226562 2.769531 -20.117188 2.8125 -20.796875 C 2.851562 -21.472656 2.914062 -21.910156 3 -22.109375 C 3.082031 -22.234375 3.15625 -22.34375 3.21875 -22.4375 C 3.28125 -22.539062 3.351562 -22.632812 3.4375 -22.71875 C 3.71875 -23.007812 4.164062 -23.175781 4.78125 -23.21875 Z M 20.21875 -21.3125 C 19.726562 -21.3125 19.625 -21.046875 19.90625 -20.515625 C 20.070312 -20.316406 20.421875 -20.050781 20.953125 -19.71875 C 21.484375 -19.394531 21.972656 -19.191406 22.421875 -19.109375 C 22.828125 -19.066406 23.03125 -19.171875 23.03125 -19.421875 C 23.03125 -19.992188 22.691406 -20.453125 22.015625 -20.796875 C 21.347656 -21.140625 20.75 -21.3125 20.21875 -21.3125 Z M 20.21875 -21.3125 " />
			</g>
		</g>
	</g>
	<g fill="#04428c" fill-opacity="1">
		<g transform="translate(233.426807, 205.050136)">
			<g>
				<path d="M 8.875 -33.203125 C 9.082031 -33.242188 9.285156 -33.269531 9.484375 -33.28125 C 9.691406 -33.300781 9.941406 -33.3125 10.234375 -33.3125 C 11.253906 -33.28125 12.203125 -33.160156 13.078125 -32.953125 C 13.953125 -32.742188 14.71875 -32.414062 15.375 -31.96875 C 15.582031 -31.84375 15.722656 -31.648438 15.796875 -31.390625 C 15.878906 -31.128906 15.960938 -30.894531 16.046875 -30.6875 C 16.253906 -30.03125 16.316406 -29.171875 16.234375 -28.109375 C 16.234375 -28.023438 16.234375 -27.90625 16.234375 -27.75 C 16.273438 -27.5 16.273438 -27.148438 16.234375 -26.703125 C 16.234375 -26.460938 16.234375 -26.238281 16.234375 -26.03125 C 16.234375 -25.820312 16.191406 -25.617188 16.109375 -25.421875 C 16.066406 -24.929688 16.035156 -24.488281 16.015625 -24.09375 C 15.992188 -23.707031 15.984375 -23.351562 15.984375 -23.03125 L 15.984375 -22.234375 L 16.109375 -22.046875 C 16.148438 -22.046875 16.3125 -22.035156 16.59375 -22.015625 C 16.882812 -21.992188 17.222656 -21.972656 17.609375 -21.953125 C 17.992188 -21.929688 18.410156 -21.921875 18.859375 -21.921875 C 19.304688 -21.921875 19.71875 -21.921875 20.09375 -21.921875 C 21.476562 -21.878906 22.351562 -21.78125 22.71875 -21.625 C 23.78125 -21.25 24.332031 -20.550781 24.375 -19.53125 C 24.414062 -18.4375 24.210938 -17.625 23.765625 -17.09375 C 23.148438 -16.476562 22.25 -16.085938 21.0625 -15.921875 C 20.613281 -15.796875 20.03125 -15.691406 19.3125 -15.609375 C 18.601562 -15.535156 17.535156 -15.476562 16.109375 -15.4375 L 15.6875 -15.375 L 15.5625 -14.15625 C 15.4375 -13.09375 15.3125 -12.140625 15.1875 -11.296875 C 15.0625 -10.460938 15 -9.695312 15 -9 C 15 -8.3125 15.128906 -7.679688 15.390625 -7.109375 C 15.660156 -6.535156 16.207031 -6.25 17.03125 -6.25 C 17.71875 -6.25 18.941406 -6.554688 20.703125 -7.171875 C 21.359375 -7.410156 21.929688 -7.410156 22.421875 -7.171875 C 22.660156 -7.085938 22.929688 -6.898438 23.234375 -6.609375 C 23.546875 -6.328125 23.765625 -6.101562 23.890625 -5.9375 C 23.929688 -5.851562 23.953125 -5.75 23.953125 -5.625 C 23.953125 -5.507812 23.972656 -5.347656 24.015625 -5.140625 L 24.015625 -4.59375 L 23.640625 -4.21875 C 23.109375 -3.695312 22.609375 -3.207031 22.140625 -2.75 C 21.671875 -2.300781 21.148438 -1.894531 20.578125 -1.53125 C 20.171875 -1.320312 19.78125 -1.132812 19.40625 -0.96875 C 19.039062 -0.8125 18.632812 -0.648438 18.1875 -0.484375 C 17.457031 -0.285156 16.828125 -0.101562 16.296875 0.0625 C 15.765625 0.226562 15.332031 0.332031 15 0.375 C 14.507812 0.40625 13.753906 0.40625 12.734375 0.375 C 12.203125 0.332031 11.785156 0.289062 11.484375 0.25 C 11.179688 0.207031 10.925781 0.164062 10.71875 0.125 C 8.019531 -0.53125 6.304688 -2.59375 5.578125 -6.0625 C 5.367188 -6.757812 5.210938 -7.695312 5.109375 -8.875 C 5.015625 -10.0625 4.925781 -11.492188 4.84375 -13.171875 C 4.800781 -13.828125 4.757812 -14.328125 4.71875 -14.671875 C 4.675781 -15.015625 4.632812 -15.25 4.59375 -15.375 C 4.425781 -15.539062 4.117188 -15.644531 3.671875 -15.6875 C 2.609375 -15.925781 1.875 -16.375 1.46875 -17.03125 C 1.382812 -17.269531 1.300781 -17.738281 1.21875 -18.4375 C 1.101562 -19.375 1.132812 -20.078125 1.3125 -20.546875 C 1.5 -21.015625 1.878906 -21.375 2.453125 -21.625 C 2.578125 -21.664062 2.789062 -21.722656 3.09375 -21.796875 C 3.394531 -21.878906 3.707031 -21.972656 4.03125 -22.078125 C 4.363281 -22.179688 4.648438 -22.285156 4.890625 -22.390625 C 5.140625 -22.492188 5.285156 -22.5625 5.328125 -22.59375 C 5.492188 -22.800781 5.597656 -23.394531 5.640625 -24.375 C 5.710938 -25.4375 5.851562 -26.710938 6.0625 -28.203125 C 6.269531 -29.691406 6.597656 -30.90625 7.046875 -31.84375 C 7.328125 -32.5 7.9375 -32.953125 8.875 -33.203125 Z M 14.390625 -30.8125 C 14.265625 -31.007812 14.066406 -31.203125 13.796875 -31.390625 C 13.535156 -31.578125 13.242188 -31.671875 12.921875 -31.671875 C 12.679688 -31.671875 12.4375 -31.609375 12.1875 -31.484375 C 11.945312 -31.441406 11.828125 -31.378906 11.828125 -31.296875 C 11.828125 -31.171875 12.039062 -30.972656 12.46875 -30.703125 C 12.894531 -30.441406 13.25 -30.234375 13.53125 -30.078125 C 13.945312 -29.910156 14.234375 -29.910156 14.390625 -30.078125 C 14.429688 -30.117188 14.453125 -30.21875 14.453125 -30.375 C 14.453125 -30.539062 14.429688 -30.6875 14.390625 -30.8125 Z M 14.390625 -30.8125 " />
			</g>
		</g>
	</g>
	<g fill="#04428c" fill-opacity="1">
		<g transform="translate(259.087579, 205.050136)">
			<g>
				<path d="M 13.234375 -22.484375 C 14.046875 -22.484375 14.785156 -22.347656 15.453125 -22.078125 C 16.128906 -21.816406 16.816406 -21.460938 17.515625 -21.015625 L 18.3125 -20.640625 L 18.859375 -21.125 C 19.640625 -21.78125 20.785156 -22.109375 22.296875 -22.109375 C 22.742188 -22.109375 23.234375 -22.078125 23.765625 -22.015625 C 24.296875 -21.953125 24.816406 -21.847656 25.328125 -21.703125 C 25.835938 -21.566406 26.296875 -21.351562 26.703125 -21.0625 C 27.109375 -20.78125 27.394531 -20.394531 27.5625 -19.90625 C 27.601562 -19.78125 27.625 -17.675781 27.625 -13.59375 C 27.625 -8.25 27.707031 -5.410156 27.875 -5.078125 C 27.945312 -5.003906 28.023438 -4.289062 28.109375 -2.9375 L 28.171875 -1.109375 L 27.875 -0.921875 C 27.382812 -0.472656 26.609375 -0.0390625 25.546875 0.375 C 24.398438 0.78125 23.273438 0.898438 22.171875 0.734375 C 21.640625 0.566406 21.269531 0.359375 21.0625 0.109375 C 20.863281 -0.128906 20.539062 -0.59375 20.09375 -1.28125 C 19.925781 -1.53125 19.738281 -1.804688 19.53125 -2.109375 C 19.332031 -2.421875 19.070312 -2.78125 18.75 -3.1875 C 18.625 -3.351562 18.414062 -3.4375 18.125 -3.4375 C 17.675781 -3.351562 17.085938 -3.101562 16.359375 -2.6875 C 15.742188 -2.28125 15.210938 -1.953125 14.765625 -1.703125 C 14.316406 -1.460938 13.945312 -1.265625 13.65625 -1.109375 C 12.757812 -0.734375 11.84375 -0.425781 10.90625 -0.1875 C 10.695312 -0.144531 10.46875 -0.113281 10.21875 -0.09375 C 9.976562 -0.0703125 9.738281 -0.0625 9.5 -0.0625 C 7.78125 -0.0625 6.410156 -0.59375 5.390625 -1.65625 C 4.367188 -2.71875 3.550781 -4.003906 2.9375 -5.515625 C 2.363281 -7.066406 2.003906 -8.65625 1.859375 -10.28125 C 1.722656 -11.914062 1.859375 -13.613281 2.265625 -15.375 C 2.515625 -16.519531 3.023438 -17.53125 3.796875 -18.40625 C 4.578125 -19.28125 5.492188 -20.023438 6.546875 -20.640625 C 7.609375 -21.253906 8.734375 -21.710938 9.921875 -22.015625 C 11.109375 -22.328125 12.210938 -22.484375 13.234375 -22.484375 Z M 24.375 -20.640625 C 24.207031 -20.679688 24.050781 -20.710938 23.90625 -20.734375 C 23.769531 -20.753906 23.597656 -20.785156 23.390625 -20.828125 L 22.71875 -20.828125 L 22.71875 -20.453125 C 22.71875 -20.003906 22.859375 -19.625 23.140625 -19.3125 C 23.429688 -19.007812 23.742188 -18.859375 24.078125 -18.859375 C 24.316406 -18.859375 24.597656 -18.976562 24.921875 -19.21875 C 25.253906 -19.46875 25.421875 -19.675781 25.421875 -19.84375 C 25.421875 -20.164062 25.070312 -20.429688 24.375 -20.640625 Z M 18 -15.375 C 17.925781 -15.457031 17.359375 -15.3125 16.296875 -14.9375 C 13.148438 -14 11.289062 -13.242188 10.71875 -12.671875 C 10.019531 -12.109375 9.671875 -11.148438 9.671875 -9.796875 C 9.753906 -7.835938 10.242188 -6.675781 11.140625 -6.3125 C 11.347656 -6.226562 11.570312 -6.1875 11.8125 -6.1875 C 12.0625 -6.1875 12.289062 -6.1875 12.5 -6.1875 C 13.394531 -6.1875 14.320312 -6.429688 15.28125 -6.921875 C 16.238281 -7.410156 17.066406 -7.941406 17.765625 -8.515625 L 18.375 -9 L 18.375 -9.859375 C 18.375 -10.597656 18.351562 -11.332031 18.3125 -12.0625 C 18.269531 -12.800781 18.207031 -13.578125 18.125 -14.390625 C 18.082031 -14.554688 18.0625 -14.695312 18.0625 -14.8125 C 18.0625 -14.9375 18.039062 -15.039062 18 -15.125 C 18 -15.207031 18 -15.289062 18 -15.375 Z M 18 -15.375 " />
			</g>
		</g>
	</g>
	<g fill="#04428c" fill-opacity="1">
		<g transform="translate(289.770255, 205.050136)">
			<g>
				<path d="M 6.5 -22.421875 C 6.945312 -22.421875 7.375 -22.304688 7.78125 -22.078125 C 8.1875 -21.859375 8.582031 -21.570312 8.96875 -21.21875 C 9.363281 -20.875 9.722656 -20.515625 10.046875 -20.140625 C 10.367188 -19.773438 10.65625 -19.453125 10.90625 -19.171875 C 11.101562 -18.960938 11.296875 -18.753906 11.484375 -18.546875 C 11.671875 -18.347656 11.863281 -18.164062 12.0625 -18 L 12.5 -17.640625 L 12.984375 -18 C 13.390625 -18.457031 13.828125 -18.910156 14.296875 -19.359375 C 14.765625 -19.804688 15.347656 -20.273438 16.046875 -20.765625 L 17.265625 -21.6875 L 18.25 -22.046875 C 18.945312 -22.253906 19.335938 -22.359375 19.421875 -22.359375 C 20.273438 -22.359375 21.128906 -22.007812 21.984375 -21.3125 C 22.109375 -21.226562 22.28125 -21.070312 22.5 -20.84375 C 22.726562 -20.625 23.007812 -20.375 23.34375 -20.09375 C 23.90625 -19.519531 24.25 -19.066406 24.375 -18.734375 C 24.5 -18.410156 24.5625 -18.148438 24.5625 -17.953125 C 24.5625 -17.460938 24.394531 -17.007812 24.0625 -16.59375 C 23.738281 -16.1875 23.171875 -15.535156 22.359375 -14.640625 C 20.929688 -13.128906 20.09375 -12.171875 19.84375 -11.765625 C 19.632812 -11.234375 19.757812 -10.640625 20.21875 -9.984375 C 20.539062 -9.578125 20.894531 -9.109375 21.28125 -8.578125 C 21.664062 -8.046875 22.101562 -7.492188 22.59375 -6.921875 C 23.050781 -6.347656 23.472656 -5.773438 23.859375 -5.203125 C 24.242188 -4.628906 24.5625 -4.054688 24.8125 -3.484375 L 25.046875 -2.875 L 24.921875 -2.390625 C 24.765625 -1.410156 24.328125 -0.675781 23.609375 -0.1875 C 22.898438 0.300781 22.070312 0.546875 21.125 0.546875 C 20.394531 0.546875 19.742188 0.257812 19.171875 -0.3125 C 17.410156 -1.863281 16 -3.429688 14.9375 -5.015625 C 14.863281 -5.140625 14.765625 -5.265625 14.640625 -5.390625 L 14.515625 -5.578125 C 14.515625 -5.578125 14.003906 -5.109375 12.984375 -4.171875 C 11.796875 -3.023438 10.742188 -2.082031 9.828125 -1.34375 C 8.910156 -0.613281 8.101562 -0.0625 7.40625 0.3125 C 7.207031 0.382812 6.941406 0.429688 6.609375 0.453125 C 6.285156 0.472656 6 0.445312 5.75 0.375 C 5.226562 0.125 4.789062 -0.128906 4.4375 -0.390625 C 4.09375 -0.660156 3.71875 -1.039062 3.3125 -1.53125 C 3.226562 -1.613281 3.039062 -1.847656 2.75 -2.234375 C 2.46875 -2.617188 2.164062 -3.117188 1.84375 -3.734375 C 1.632812 -4.179688 1.507812 -4.628906 1.46875 -5.078125 C 1.425781 -5.523438 1.550781 -5.914062 1.84375 -6.25 L 8.328125 -12.734375 L 7.84375 -13.53125 C 7.507812 -13.976562 7.109375 -14.5 6.640625 -15.09375 C 6.171875 -15.6875 5.46875 -16.535156 4.53125 -17.640625 C 4.125 -18.171875 3.835938 -18.703125 3.671875 -19.234375 C 3.304688 -20.378906 3.472656 -21.175781 4.171875 -21.625 C 4.453125 -21.863281 4.816406 -22.054688 5.265625 -22.203125 C 5.710938 -22.347656 6.125 -22.421875 6.5 -22.421875 Z M 20.765625 -21.1875 C 20.273438 -21.3125 19.90625 -21.289062 19.65625 -21.125 C 19.457031 -20.925781 19.488281 -20.671875 19.75 -20.359375 C 20.019531 -20.054688 20.378906 -19.78125 20.828125 -19.53125 C 21.109375 -19.375 21.332031 -19.316406 21.5 -19.359375 C 21.90625 -19.515625 22.085938 -19.757812 22.046875 -20.09375 C 22.003906 -20.21875 21.828125 -20.421875 21.515625 -20.703125 C 21.210938 -20.984375 20.960938 -21.144531 20.765625 -21.1875 Z M 20.765625 -21.1875 " />
			</g>
		</g>
	</g>
	<g clip-path="url(#4447a59337)">
		<path fill="#ff9900" d="M 314.449219 182.515625 C 310.195312 180.628906 306.351562 177.824219 303.304688 174.296875 C 303.125 174.085938 302.945312 173.871094 302.769531 173.65625 C 303.527344 173.222656 304.261719 172.746094 304.964844 172.238281 C 307.929688 170.085938 310.398438 167.21875 311.695312 163.757812 C 311.945312 163.089844 312.078125 162.296875 311.421875 161.8125 C 310.878906 161.410156 310.097656 161.464844 309.476562 161.632812 C 308.648438 161.863281 307.9375 162.40625 307.261719 162.921875 C 306.417969 163.566406 305.636719 164.28125 304.925781 165.070312 C 304.421875 165.628906 303.96875 166.226562 303.542969 166.847656 C 303.144531 164.652344 301.703125 162.671875 299.625 161.75 C 298.628906 161.304688 297.316406 161.296875 296.890625 162.496094 C 296.515625 163.566406 296.996094 164.757812 297.371094 165.746094 C 298.410156 168.472656 299.820312 171.027344 301.554688 173.339844 C 294.667969 176.917969 286.589844 176.898438 279.011719 175.753906 C 274.3125 175.042969 269.667969 173.980469 264.996094 173.074219 C 260.5 172.195312 255.988281 171.394531 251.449219 170.746094 C 242.460938 169.46875 233.324219 168.84375 224.265625 169.75 C 215.578125 170.613281 206.625 172.886719 199.191406 177.621094 C 198.304688 178.1875 197.453125 178.792969 196.632812 179.441406 C 196.527344 179.527344 196.667969 179.707031 196.769531 179.625 C 200.523438 176.855469 204.742188 174.972656 209.175781 173.570312 C 213.703125 172.140625 218.382812 171.226562 223.101562 170.726562 C 232.59375 169.722656 242.195312 170.433594 251.613281 171.800781 C 256.363281 172.488281 261.085938 173.355469 265.796875 174.289062 C 270.636719 175.25 275.457031 176.332031 280.359375 176.953125 C 285.070312 177.546875 289.925781 177.707031 294.605469 176.722656 C 297.199219 176.179688 299.75 175.277344 302.101562 174.015625 C 303.417969 175.667969 304.902344 177.191406 306.542969 178.550781 C 308.855469 180.46875 311.402344 182.007812 314.183594 183.132812 C 314.539062 183.292969 314.804688 182.675781 314.449219 182.515625 Z M 299.367188 168.558594 C 298.808594 167.519531 298.328125 166.4375 297.910156 165.335938 C 297.609375 164.535156 296.917969 162.894531 297.847656 162.246094 C 298.5 161.785156 299.484375 162.34375 300.0625 162.699219 C 300.59375 163.027344 301.066406 163.4375 301.484375 163.898438 C 302.40625 164.917969 302.976562 166.222656 303.109375 167.589844 C 303.132812 167.847656 303.460938 167.957031 303.613281 167.71875 C 304.742188 165.929688 306.324219 164.351562 308.074219 163.152344 C 308.753906 162.6875 309.464844 162.21875 310.320312 162.226562 C 310.601562 162.226562 310.996094 162.265625 311.128906 162.554688 C 311.339844 162.992188 310.878906 163.757812 310.699219 164.15625 C 309.171875 167.484375 306.625 170.203125 303.570312 172.183594 C 303.140625 172.460938 302.699219 172.726562 302.253906 172.976562 C 301.160156 171.597656 300.1875 170.113281 299.367188 168.558594 Z M 299.367188 168.558594 " fill-opacity="1" fill-rule="nonzero" />
	</g>
	<g clip-path="url(#fc3ff9908a)">
		<path fill="#ff9900" d="M 140 180.054688 C 138.625 180.539062 137.253906 181.019531 135.878906 181.503906 C 135.257812 181.722656 135.527344 182.714844 136.152344 182.496094 C 137.527344 182.011719 138.898438 181.527344 140.273438 181.042969 C 140.894531 180.824219 140.625 179.832031 140 180.054688 Z M 140 180.054688 " fill-opacity="1" fill-rule="nonzero" />
	</g>
	<path fill="#ff9900" d="M 138.910156 175.976562 C 137.902344 176.03125 136.890625 176.082031 135.882812 176.132812 C 135.222656 176.167969 135.222656 177.195312 135.882812 177.160156 C 136.890625 177.109375 137.902344 177.058594 138.910156 177.003906 C 139.570312 176.972656 139.574219 175.941406 138.910156 175.976562 Z M 138.910156 175.976562 " fill-opacity="1" fill-rule="nonzero" />
	<path fill="#ff9900" d="M 142.351562 168.734375 C 141.777344 168.164062 141.199219 167.59375 140.625 167.019531 C 140.152344 166.554688 139.425781 167.28125 139.898438 167.746094 C 140.472656 168.320312 141.050781 168.890625 141.625 169.460938 C 142.097656 169.925781 142.824219 169.199219 142.351562 168.734375 Z M 142.351562 168.734375 " fill-opacity="1" fill-rule="nonzero" />
	<path fill="#ff9900" d="M 145.566406 166.734375 C 145.164062 166.03125 144.761719 165.328125 144.359375 164.621094 C 144.03125 164.046875 143.144531 164.5625 143.472656 165.140625 C 143.875 165.84375 144.277344 166.550781 144.679688 167.253906 C 145.007812 167.828125 145.894531 167.3125 145.566406 166.734375 Z M 145.566406 166.734375 " fill-opacity="1" fill-rule="nonzero" />
	<g clip-path="url(#89458f34b8)">
		<path fill="#ff9900" d="M 139.714844 172.097656 C 138.34375 171.429688 136.96875 170.765625 135.597656 170.101562 C 135.003906 169.8125 134.484375 170.699219 135.078125 170.988281 C 136.453125 171.652344 137.824219 172.316406 139.195312 172.984375 C 139.789062 173.269531 140.308594 172.382812 139.714844 172.097656 Z M 139.714844 172.097656 " fill-opacity="1" fill-rule="nonzero" />
	</g>
	<g clip-path="url(#6fa84123ef)">
		<path fill="#ff9900" d="M 149.015625 165.800781 C 148.738281 164.300781 148.460938 162.804688 148.183594 161.304688 C 148.066406 160.652344 147.074219 160.929688 147.195312 161.578125 C 147.472656 163.074219 147.75 164.574219 148.023438 166.074219 C 148.144531 166.726562 149.136719 166.449219 149.015625 165.800781 Z M 149.015625 165.800781 " fill-opacity="1" fill-rule="nonzero" />
	</g>
</svg>
