<svg xmlns="http://www.w3.org/2000/svg" xmlns:xlink="http://www.w3.org/1999/xlink" width="500" zoomAndPan="magnify" viewBox="0 0 375 374.999991" height="500" preserveAspectRatio="xMidYMid meet" version="1.0"><defs><g/><clipPath id="1091309ae2"><path d="M 199.777344 148 L 337.777344 148 L 337.777344 173.339844 L 199.777344 173.339844 Z M 199.777344 148 " clip-rule="nonzero"/></clipPath><clipPath id="b4c32448dd"><path d="M 125 175 L 133 175 L 133 179.339844 L 125 179.339844 Z M 125 175 " clip-rule="nonzero"/></clipPath><clipPath id="d804e48123"><path d="M 141 148 L 144.582031 148 L 144.582031 157 L 141 157 Z M 141 148 " clip-rule="nonzero"/></clipPath></defs><rect x="-37.5" width="450" fill="#ffffff" y="-37.499999" height="449.999989" fill-opacity="1"/><rect x="-37.5" width="450" fill="#ffffff" y="-37.499999" height="449.999989" fill-opacity="1"/><g fill="#6bbdea" fill-opacity="1"><g transform="translate(31.636367, 202.649521)"><g><path d="M 6.4375 -26.890625 C 6.738281 -26.984375 7.132812 -27.03125 7.625 -27.03125 C 8.125 -27.03125 8.691406 -27.03125 9.328125 -27.03125 L 11.328125 -27.03125 L 11.703125 -26.75 C 12.046875 -26.5 12.351562 -26.257812 12.625 -26.03125 C 12.894531 -25.8125 13.082031 -25.601562 13.1875 -25.40625 C 13.238281 -25.3125 13.285156 -25.140625 13.328125 -24.890625 C 13.378906 -24.640625 13.457031 -24.316406 13.5625 -23.921875 L 13.703125 -22.671875 L 13.703125 -9.265625 L 14.078125 -9.03125 C 14.171875 -8.882812 14.398438 -8.773438 14.765625 -8.703125 C 15.140625 -8.628906 15.601562 -8.566406 16.15625 -8.515625 C 16.988281 -8.421875 17.554688 -8.421875 17.859375 -8.515625 C 19.140625 -8.765625 20.1875 -9.234375 21 -9.921875 C 21.8125 -10.617188 22.390625 -11.632812 22.734375 -12.96875 C 23.328125 -14.988281 22.9375 -16.738281 21.5625 -18.21875 C 20.425781 -19.257812 19.066406 -19.679688 17.484375 -19.484375 C 16.890625 -19.429688 16.421875 -19.476562 16.078125 -19.625 C 15.234375 -19.820312 14.6875 -20.539062 14.4375 -21.78125 C 14.394531 -21.976562 14.285156 -22.484375 14.109375 -23.296875 C 13.941406 -24.109375 13.957031 -24.8125 14.15625 -25.40625 L 14.375 -26.15625 L 15.328125 -26.453125 C 16.816406 -26.890625 18.398438 -27.109375 20.078125 -27.109375 C 21.160156 -27.109375 22.28125 -26.984375 23.4375 -26.734375 C 24.601562 -26.492188 25.703125 -26.113281 26.734375 -25.59375 C 27.773438 -25.070312 28.726562 -24.425781 29.59375 -23.65625 C 30.457031 -22.894531 31.132812 -22 31.625 -20.96875 C 32.175781 -19.976562 32.5625 -18.878906 32.78125 -17.671875 C 33 -16.460938 33.0625 -15.140625 32.96875 -13.703125 C 32.914062 -12.421875 32.726562 -11.125 32.40625 -9.8125 C 32.082031 -8.507812 31.585938 -7.285156 30.921875 -6.140625 C 30.253906 -5.003906 29.4375 -4.003906 28.46875 -3.140625 C 27.507812 -2.285156 26.390625 -1.632812 25.109375 -1.1875 C 23.722656 -0.738281 21.304688 -0.515625 17.859375 -0.515625 L 14.8125 -0.515625 L 14.734375 -0.078125 C 14.585938 0.316406 14.488281 0.921875 14.4375 1.734375 C 14.394531 2.554688 14.375 3.609375 14.375 4.890625 C 14.375 8.046875 14.300781 10.144531 14.15625 11.1875 C 14.101562 11.726562 13.707031 12.320312 12.96875 12.96875 C 12.46875 13.363281 11.929688 13.609375 11.359375 13.703125 C 10.796875 13.804688 9.800781 13.859375 8.375 13.859375 C 6.9375 13.804688 5.773438 13.59375 4.890625 13.21875 C 4.003906 12.851562 3.460938 11.878906 3.265625 10.296875 C 3.210938 10.046875 3.1875 9.351562 3.1875 8.21875 C 3.1875 7.082031 3.1875 5.550781 3.1875 3.625 C 3.1875 1.601562 3.195312 -0.0351562 3.21875 -1.296875 C 3.25 -2.554688 3.285156 -3.53125 3.328125 -4.21875 C 3.378906 -4.957031 3.40625 -5.929688 3.40625 -7.140625 C 3.40625 -8.359375 3.40625 -9.804688 3.40625 -11.484375 C 3.40625 -13.160156 3.414062 -14.515625 3.4375 -15.546875 C 3.46875 -16.585938 3.507812 -17.332031 3.5625 -17.78125 C 3.707031 -19.0625 3.800781 -20.28125 3.84375 -21.4375 C 3.894531 -22.601562 3.898438 -23.726562 3.859375 -24.8125 C 3.859375 -25.457031 4.078125 -25.925781 4.515625 -26.21875 C 4.960938 -26.570312 5.601562 -26.796875 6.4375 -26.890625 Z M 25.78125 -24.890625 C 25.28125 -25.035156 24.859375 -25.109375 24.515625 -25.109375 C 23.972656 -25.109375 23.578125 -24.984375 23.328125 -24.734375 L 23.265625 -24.515625 L 23.859375 -24.078125 C 24.742188 -23.535156 25.726562 -23.066406 26.8125 -22.671875 C 26.957031 -22.617188 27.09375 -22.578125 27.21875 -22.546875 C 27.34375 -22.523438 27.476562 -22.539062 27.625 -22.59375 C 27.976562 -22.738281 28.101562 -22.960938 28 -23.265625 C 27.75 -24.003906 27.007812 -24.546875 25.78125 -24.890625 Z M 25.78125 -24.890625 "/></g></g></g><g fill="#6bbdea" fill-opacity="1"><g transform="translate(66.156059, 202.649521)"><g><path d="M 8.296875 -27.328125 C 9.285156 -27.328125 10.394531 -27.265625 11.625 -27.140625 C 12.863281 -27.023438 13.878906 -26.570312 14.671875 -25.78125 L 14.890625 -25.484375 L 15.703125 -25.625 C 15.847656 -25.675781 16.082031 -25.75 16.40625 -25.84375 C 16.726562 -25.945312 17.085938 -26.050781 17.484375 -26.15625 C 18.960938 -26.738281 20.195312 -27.03125 21.1875 -27.03125 C 22.125 -27.03125 22.691406 -26.984375 22.890625 -26.890625 C 24.117188 -26.691406 24.90625 -26.429688 25.25 -26.109375 C 25.601562 -25.785156 25.878906 -25.234375 26.078125 -24.453125 C 26.222656 -23.660156 26.125 -22.695312 25.78125 -21.5625 L 25.625 -20.96875 L 25.03125 -20.671875 C 24.34375 -20.367188 23.710938 -20.117188 23.140625 -19.921875 C 22.578125 -19.722656 22.023438 -19.523438 21.484375 -19.328125 C 21.285156 -19.285156 20.898438 -19.164062 20.328125 -18.96875 C 19.765625 -18.769531 19.171875 -18.546875 18.546875 -18.296875 C 17.929688 -18.046875 17.363281 -17.8125 16.84375 -17.59375 C 16.332031 -17.375 16.023438 -17.210938 15.921875 -17.109375 C 15.972656 -17.054688 15.925781 -16.769531 15.78125 -16.25 C 15.632812 -15.738281 15.535156 -14.988281 15.484375 -14 C 15.429688 -13.507812 15.414062 -12.804688 15.4375 -11.890625 C 15.46875 -10.972656 15.484375 -9.820312 15.484375 -8.4375 C 15.535156 -6.757812 15.519531 -5.453125 15.4375 -4.515625 C 15.363281 -3.578125 15.28125 -2.863281 15.1875 -2.375 C 14.882812 -1.1875 14.289062 -0.394531 13.40625 0 C 12.519531 0.394531 11.507812 0.59375 10.375 0.59375 C 9.53125 0.59375 8.710938 0.554688 7.921875 0.484375 C 7.128906 0.410156 6.410156 0.238281 5.765625 -0.03125 C 5.128906 -0.300781 4.578125 -0.707031 4.109375 -1.25 C 3.640625 -1.800781 3.332031 -2.546875 3.1875 -3.484375 C 3.082031 -3.828125 3.019531 -4.40625 3 -5.21875 C 2.976562 -6.03125 2.988281 -7.15625 3.03125 -8.59375 C 3.03125 -9.4375 3.03125 -10.328125 3.03125 -11.265625 C 3.03125 -12.203125 3.082031 -13.238281 3.1875 -14.375 C 3.28125 -17.53125 3.335938 -19.957031 3.359375 -21.65625 C 3.390625 -23.363281 3.457031 -24.34375 3.5625 -24.59375 C 3.757812 -25.28125 4.03125 -25.757812 4.375 -26.03125 C 4.71875 -26.3125 5.382812 -26.597656 6.375 -26.890625 C 6.914062 -27.140625 7.554688 -27.285156 8.296875 -27.328125 Z M 11.328125 -26.078125 C 10.929688 -26.171875 10.5625 -26.207031 10.21875 -26.1875 C 9.875 -26.164062 9.726562 -26.03125 9.78125 -25.78125 C 9.875 -25.382812 10.09375 -25.097656 10.4375 -24.921875 C 10.789062 -24.753906 11.210938 -24.546875 11.703125 -24.296875 C 11.953125 -24.242188 12.148438 -24.296875 12.296875 -24.453125 C 12.390625 -24.640625 12.4375 -24.832031 12.4375 -25.03125 C 12.4375 -25.332031 12.328125 -25.554688 12.109375 -25.703125 C 11.890625 -25.847656 11.628906 -25.972656 11.328125 -26.078125 Z M 11.328125 -26.078125 "/></g></g></g><g fill="#6bbdea" fill-opacity="1"><g transform="translate(92.897715, 202.649521)"><g><path d="M 16.96875 -27.40625 L 22.21875 -27.40625 L 23.109375 -27.109375 C 25.085938 -26.566406 26.492188 -26.023438 27.328125 -25.484375 C 27.921875 -25.140625 28.441406 -24.769531 28.890625 -24.375 C 29.335938 -23.976562 29.757812 -23.554688 30.15625 -23.109375 C 31.78125 -20.941406 32.566406 -17.976562 32.515625 -14.21875 C 32.472656 -12.6875 32.253906 -11.203125 31.859375 -9.765625 C 31.460938 -8.335938 30.890625 -7.003906 30.140625 -5.765625 C 29.398438 -4.535156 28.460938 -3.460938 27.328125 -2.546875 C 26.191406 -1.640625 24.859375 -0.9375 23.328125 -0.4375 C 23.085938 -0.34375 22.769531 -0.257812 22.375 -0.1875 C 21.976562 -0.113281 21.484375 -0.0234375 20.890625 0.078125 L 19.109375 0.515625 L 16.890625 0.515625 C 12.441406 0.515625 8.910156 -0.503906 6.296875 -2.546875 C 3.679688 -4.597656 2.320312 -7.972656 2.21875 -12.671875 C 2.070312 -18.003906 3.554688 -22.125 6.671875 -25.03125 C 7.265625 -25.582031 7.796875 -26.015625 8.265625 -26.328125 C 8.734375 -26.648438 9.210938 -26.835938 9.703125 -26.890625 C 9.804688 -26.984375 9.992188 -27.003906 10.265625 -26.953125 C 10.535156 -26.910156 10.867188 -26.863281 11.265625 -26.8125 L 12.4375 -26.75 L 13.5625 -27.03125 C 14.144531 -27.132812 14.722656 -27.207031 15.296875 -27.25 C 15.867188 -27.300781 16.425781 -27.351562 16.96875 -27.40625 Z M 24.890625 -25.1875 C 23.953125 -25.78125 23.429688 -25.628906 23.328125 -24.734375 C 23.328125 -24.585938 23.375 -24.460938 23.46875 -24.359375 C 23.570312 -24.265625 23.75 -24.097656 24 -23.859375 C 24.488281 -23.460938 24.878906 -23.203125 25.171875 -23.078125 C 25.472656 -22.953125 25.945312 -22.890625 26.59375 -22.890625 C 26.84375 -22.984375 26.90625 -23.140625 26.78125 -23.359375 C 26.65625 -23.585938 26.367188 -23.953125 25.921875 -24.453125 C 25.679688 -24.640625 25.484375 -24.78125 25.328125 -24.875 C 25.179688 -24.976562 25.035156 -25.082031 24.890625 -25.1875 Z M 18.96875 -20 C 18.226562 -20.144531 17.484375 -20.179688 16.734375 -20.109375 C 15.992188 -20.035156 15.28125 -19.875 14.59375 -19.625 C 14.488281 -19.582031 14.347656 -19.445312 14.171875 -19.21875 C 14.003906 -19 13.8125 -18.726562 13.59375 -18.40625 C 13.375 -18.082031 13.164062 -17.75 12.96875 -17.40625 C 12.769531 -17.0625 12.617188 -16.742188 12.515625 -16.453125 C 12.023438 -15.359375 11.828125 -14.144531 11.921875 -12.8125 C 11.921875 -11.582031 12.179688 -10.421875 12.703125 -9.328125 C 13.222656 -8.242188 14.175781 -7.578125 15.5625 -7.328125 C 16.101562 -7.179688 16.617188 -7.109375 17.109375 -7.109375 C 18.296875 -7.109375 19.257812 -7.304688 20 -7.703125 C 20.738281 -8.097656 21.316406 -8.628906 21.734375 -9.296875 C 22.160156 -9.960938 22.445312 -10.726562 22.59375 -11.59375 C 22.738281 -12.457031 22.8125 -13.382812 22.8125 -14.375 C 22.8125 -15.90625 22.613281 -16.988281 22.21875 -17.625 C 21.875 -18.269531 21.429688 -18.800781 20.890625 -19.21875 C 20.347656 -19.644531 19.707031 -19.90625 18.96875 -20 Z M 18.96875 -20 "/></g></g></g><g fill="#6bbdea" fill-opacity="1"><g transform="translate(127.639643, 202.649521)"><g><path d="M 21.625 -45.5625 C 22.070312 -45.65625 23.015625 -45.65625 24.453125 -45.5625 C 25.234375 -45.507812 25.867188 -45.484375 26.359375 -45.484375 C 26.859375 -45.484375 27.207031 -45.457031 27.40625 -45.40625 C 29.332031 -45.164062 31.359375 -44.757812 33.484375 -44.1875 C 35.609375 -43.613281 37.484375 -42.757812 39.109375 -41.625 C 40.546875 -40.488281 41.265625 -39.304688 41.265625 -38.078125 C 41.265625 -36.992188 40.742188 -36.003906 39.703125 -35.109375 C 39.265625 -34.671875 38.757812 -34.300781 38.1875 -34 C 37.613281 -33.707031 36.984375 -33.5625 36.296875 -33.5625 C 35.898438 -33.5625 35.429688 -33.660156 34.890625 -33.859375 C 34.347656 -34.054688 33.726562 -34.328125 33.03125 -34.671875 C 31.894531 -35.304688 30.832031 -35.8125 29.84375 -36.1875 C 28.863281 -36.5625 27.953125 -36.769531 27.109375 -36.8125 C 26.421875 -36.914062 25.707031 -36.914062 24.96875 -36.8125 C 22.695312 -36.519531 20.84375 -35.679688 19.40625 -34.296875 C 18.175781 -33.066406 17.757812 -31.785156 18.15625 -30.453125 C 18.351562 -29.503906 18.921875 -28.769531 19.859375 -28.25 C 20.796875 -27.738281 21.679688 -27.410156 22.515625 -27.265625 C 22.765625 -27.210938 22.972656 -27.171875 23.140625 -27.140625 C 23.316406 -27.117188 23.476562 -27.082031 23.625 -27.03125 C 23.726562 -26.9375 23.914062 -26.890625 24.1875 -26.890625 C 24.457031 -26.890625 24.835938 -26.863281 25.328125 -26.8125 C 26.617188 -26.664062 27.976562 -26.40625 29.40625 -26.03125 C 30.84375 -25.664062 32.226562 -25.171875 33.5625 -24.546875 C 34.894531 -23.929688 36.148438 -23.191406 37.328125 -22.328125 C 38.515625 -21.460938 39.503906 -20.515625 40.296875 -19.484375 C 41.035156 -18.398438 41.554688 -16.84375 41.859375 -14.8125 C 41.953125 -13.925781 41.910156 -13.070312 41.734375 -12.25 C 41.566406 -11.4375 41.3125 -10.640625 40.96875 -9.859375 C 40.175781 -8.128906 39 -6.519531 37.4375 -5.03125 C 35.882812 -3.550781 33.875 -2.242188 31.40625 -1.109375 C 30.019531 -0.460938 28.398438 -0.00390625 26.546875 0.265625 C 24.703125 0.535156 23.039062 0.671875 21.5625 0.671875 C 18.894531 0.671875 16.285156 0.472656 13.734375 0.078125 C 11.191406 -0.316406 8.664062 -1.035156 6.15625 -2.078125 C 4.425781 -2.765625 3.363281 -3.550781 2.96875 -4.4375 C 2.769531 -4.882812 2.644531 -5.390625 2.59375 -5.953125 C 2.539062 -6.523438 2.640625 -7.160156 2.890625 -7.859375 C 3.234375 -8.890625 3.800781 -9.722656 4.59375 -10.359375 C 5.382812 -11.003906 6.347656 -11.328125 7.484375 -11.328125 C 8.222656 -11.328125 9.0625 -11.179688 10 -10.890625 C 11.625 -10.546875 13.113281 -10.257812 14.46875 -10.03125 C 15.832031 -9.8125 17.082031 -9.675781 18.21875 -9.625 C 22.21875 -9.53125 24.984375 -10.445312 26.515625 -12.375 C 26.910156 -12.8125 27.179688 -13.375 27.328125 -14.0625 C 27.484375 -14.757812 27.4375 -15.304688 27.1875 -15.703125 C 26.5 -16.785156 25.660156 -17.5625 24.671875 -18.03125 C 23.679688 -18.5 22.566406 -18.882812 21.328125 -19.1875 C 18.515625 -19.78125 16.144531 -20.375 14.21875 -20.96875 C 12.289062 -21.5625 10.757812 -22.128906 9.625 -22.671875 C 6.414062 -24.242188 4.585938 -26.6875 4.140625 -30 C 3.992188 -31.28125 4.070312 -32.585938 4.375 -33.921875 C 4.769531 -35.898438 5.484375 -37.582031 6.515625 -38.96875 C 7.554688 -40.351562 8.816406 -41.488281 10.296875 -42.375 C 11.773438 -43.257812 13.390625 -43.945312 15.140625 -44.4375 C 16.898438 -44.9375 18.671875 -45.285156 20.453125 -45.484375 C 20.546875 -45.484375 20.691406 -45.484375 20.890625 -45.484375 C 21.085938 -45.484375 21.332031 -45.507812 21.625 -45.5625 Z M 36.96875 -41.5625 C 36.570312 -41.757812 36.175781 -41.859375 35.78125 -41.859375 C 35.132812 -41.953125 34.738281 -41.800781 34.59375 -41.40625 C 34.539062 -41.164062 34.515625 -40.90625 34.515625 -40.625 C 34.515625 -40.351562 34.566406 -40.171875 34.671875 -40.078125 C 34.867188 -39.734375 35.3125 -39.410156 36 -39.109375 C 36.6875 -38.816406 37.304688 -38.644531 37.859375 -38.59375 C 38.597656 -38.5 38.96875 -38.769531 38.96875 -39.40625 C 38.96875 -39.800781 38.769531 -40.195312 38.375 -40.59375 C 37.976562 -40.988281 37.507812 -41.3125 36.96875 -41.5625 Z M 36.96875 -41.5625 "/></g></g></g><g fill="#6bbdea" fill-opacity="1"><g transform="translate(172.085599, 202.649521)"><g><path d="M 30.671875 -24.515625 C 30.273438 -24.816406 29.953125 -24.84375 29.703125 -24.59375 C 29.554688 -24.445312 29.484375 -24.222656 29.484375 -23.921875 C 29.484375 -23.523438 29.679688 -23.066406 30.078125 -22.546875 C 30.472656 -22.035156 30.890625 -21.78125 31.328125 -21.78125 C 31.628906 -21.78125 31.804688 -22.023438 31.859375 -22.515625 C 31.898438 -22.816406 31.796875 -23.164062 31.546875 -23.5625 C 31.304688 -23.957031 31.015625 -24.273438 30.671875 -24.515625 Z M 27.265625 -27.265625 C 28.347656 -27.460938 29.554688 -27.265625 30.890625 -26.671875 C 32.367188 -25.972656 33.476562 -24.910156 34.21875 -23.484375 C 34.46875 -23.179688 34.59375 -22.757812 34.59375 -22.21875 L 34.59375 -21.484375 L 33.40625 -19.109375 C 32.570312 -17.429688 31.757812 -15.710938 30.96875 -13.953125 C 30.175781 -12.203125 29.335938 -10.390625 28.453125 -8.515625 C 27.703125 -6.785156 26.539062 -4.390625 24.96875 -1.328125 C 24.03125 0.492188 23.410156 1.875 23.109375 2.8125 C 22.816406 3.40625 22.421875 4.144531 21.921875 5.03125 C 21.429688 5.925781 20.863281 6.941406 20.21875 8.078125 C 19.976562 8.515625 19.734375 8.957031 19.484375 9.40625 C 19.234375 9.851562 18.984375 10.320312 18.734375 10.8125 C 18.441406 11.351562 18.179688 11.804688 17.953125 12.171875 C 17.734375 12.546875 17.515625 12.859375 17.296875 13.109375 C 17.078125 13.359375 16.816406 13.566406 16.515625 13.734375 C 16.222656 13.910156 15.851562 14.097656 15.40625 14.296875 L 14.375 14.734375 L 12.8125 14.734375 C 11.382812 14.691406 10.5 14.5 10.15625 14.15625 C 9.957031 14.050781 9.78125 14 9.625 14 C 9.28125 13.851562 8.910156 13.59375 8.515625 13.21875 C 8.117188 12.851562 7.757812 12.445312 7.4375 12 C 7.125 11.550781 6.851562 11.082031 6.625 10.59375 C 6.40625 10.101562 6.25 9.660156 6.15625 9.265625 C 6 8.671875 6 8.050781 6.15625 7.40625 C 6.25 7.007812 6.539062 6.328125 7.03125 5.359375 C 7.53125 4.398438 8.222656 3.207031 9.109375 1.78125 C 9.992188 0.300781 10.679688 -0.878906 11.171875 -1.765625 C 11.671875 -2.660156 11.945312 -3.234375 12 -3.484375 C 12 -3.484375 11.828125 -3.628906 11.484375 -3.921875 C 10.742188 -4.566406 10.015625 -5.332031 9.296875 -6.21875 C 8.578125 -7.113281 7.898438 -8.148438 7.265625 -9.328125 C 6.710938 -10.367188 6.164062 -11.476562 5.625 -12.65625 C 5.082031 -13.84375 4.515625 -15.128906 3.921875 -16.515625 C 3.628906 -17.253906 3.359375 -17.945312 3.109375 -18.59375 C 2.859375 -19.238281 2.613281 -19.832031 2.375 -20.375 C 2.125 -20.914062 1.9375 -21.347656 1.8125 -21.671875 C 1.6875 -21.992188 1.601562 -22.226562 1.5625 -22.375 C 1.363281 -23.0625 1.363281 -23.703125 1.5625 -24.296875 C 1.65625 -24.742188 1.910156 -25.148438 2.328125 -25.515625 C 2.753906 -25.890625 3.238281 -26.210938 3.78125 -26.484375 C 4.320312 -26.753906 4.890625 -26.960938 5.484375 -27.109375 C 6.078125 -27.253906 6.59375 -27.328125 7.03125 -27.328125 C 7.582031 -27.328125 8.113281 -27.265625 8.625 -27.140625 C 9.144531 -27.023438 9.65625 -26.816406 10.15625 -26.515625 C 10.738281 -26.023438 11.722656 -24.195312 13.109375 -21.03125 C 14.835938 -17.1875 15.953125 -14.941406 16.453125 -14.296875 C 16.640625 -14.046875 16.867188 -13.757812 17.140625 -13.4375 C 17.421875 -13.125 17.5625 -12.988281 17.5625 -13.03125 C 17.601562 -13.03125 17.785156 -13.335938 18.109375 -13.953125 C 18.429688 -14.578125 18.789062 -15.234375 19.1875 -15.921875 C 20.664062 -18.640625 21.863281 -20.785156 22.78125 -22.359375 C 23.695312 -23.941406 24.347656 -25.007812 24.734375 -25.5625 C 25.128906 -26.101562 25.703125 -26.59375 26.453125 -27.03125 C 26.546875 -27.082031 26.675781 -27.117188 26.84375 -27.140625 C 27.019531 -27.171875 27.160156 -27.210938 27.265625 -27.265625 Z M 27.265625 -27.265625 "/></g></g></g><g fill="#6bbdea" fill-opacity="1"><g transform="translate(208.309059, 202.649521)"><g><path d="M 5.78125 -28.078125 C 6.070312 -28.222656 6.613281 -28.222656 7.40625 -28.078125 C 9.476562 -28.023438 11.234375 -27.503906 12.671875 -26.515625 C 13.066406 -26.222656 13.285156 -26.085938 13.328125 -26.109375 C 13.378906 -26.140625 13.726562 -26.253906 14.375 -26.453125 C 15.0625 -26.648438 15.710938 -26.820312 16.328125 -26.96875 C 16.953125 -27.113281 17.609375 -27.234375 18.296875 -27.328125 C 18.640625 -27.378906 19.046875 -27.414062 19.515625 -27.4375 C 19.984375 -27.46875 20.488281 -27.484375 21.03125 -27.484375 C 21.726562 -27.484375 22.394531 -27.445312 23.03125 -27.375 C 23.675781 -27.300781 24.296875 -27.210938 24.890625 -27.109375 C 27.160156 -26.515625 28.765625 -25.304688 29.703125 -23.484375 C 29.953125 -23.140625 30.175781 -22.742188 30.375 -22.296875 C 30.570312 -21.847656 30.742188 -21.304688 30.890625 -20.671875 C 31.035156 -20.222656 31.132812 -19.828125 31.1875 -19.484375 C 31.238281 -19.140625 31.285156 -18.816406 31.328125 -18.515625 C 31.378906 -17.972656 31.46875 -17.453125 31.59375 -16.953125 C 31.71875 -16.460938 31.753906 -15.800781 31.703125 -14.96875 C 31.554688 -12.300781 31.492188 -10.125 31.515625 -8.4375 C 31.546875 -6.757812 31.484375 -5.578125 31.328125 -4.890625 C 31.234375 -4.242188 31.085938 -3.585938 30.890625 -2.921875 C 30.691406 -2.253906 30.429688 -1.648438 30.109375 -1.109375 C 29.785156 -0.566406 29.351562 -0.132812 28.8125 0.1875 C 28.269531 0.507812 27.601562 0.671875 26.8125 0.671875 C 26.320312 0.671875 25.78125 0.59375 25.1875 0.4375 C 24.882812 0.289062 24.472656 0.144531 23.953125 0 C 23.441406 -0.144531 23.085938 -0.390625 22.890625 -0.734375 C 22.785156 -0.984375 22.660156 -1.28125 22.515625 -1.625 C 22.367188 -1.96875 22.269531 -2.363281 22.21875 -2.8125 C 22.175781 -3.207031 22.164062 -3.898438 22.1875 -4.890625 C 22.207031 -5.878906 22.242188 -7.160156 22.296875 -8.734375 C 22.296875 -10.117188 22.296875 -11.289062 22.296875 -12.25 C 22.296875 -13.21875 22.28125 -14.0625 22.25 -14.78125 C 22.226562 -15.5 22.164062 -16.09375 22.0625 -16.5625 C 21.96875 -17.03125 21.820312 -17.460938 21.625 -17.859375 C 21.382812 -18.398438 21.101562 -18.753906 20.78125 -18.921875 C 20.457031 -19.097656 19.953125 -19.210938 19.265625 -19.265625 C 18.421875 -19.265625 17.53125 -19.066406 16.59375 -18.671875 C 16.144531 -18.421875 15.710938 -18.171875 15.296875 -17.921875 C 14.878906 -17.679688 14.546875 -17.410156 14.296875 -17.109375 L 13.859375 -16.890625 L 13.859375 -2.21875 L 13.703125 -1.78125 C 13.453125 -1.1875 13.007812 -0.71875 12.375 -0.375 C 11.925781 -0.0703125 11.367188 0.132812 10.703125 0.25 C 10.035156 0.375 9.40625 0.4375 8.8125 0.4375 C 7.53125 0.4375 6.332031 0.242188 5.21875 -0.140625 C 4.113281 -0.535156 3.382812 -1.453125 3.03125 -2.890625 C 2.988281 -3.140625 2.96875 -3.789062 2.96875 -4.84375 C 2.96875 -5.90625 2.96875 -7.476562 2.96875 -9.5625 C 2.96875 -11.582031 2.96875 -13.207031 2.96875 -14.4375 C 2.96875 -15.675781 2.988281 -16.566406 3.03125 -17.109375 C 3.132812 -17.609375 3.1875 -18.25 3.1875 -19.03125 C 3.1875 -19.820312 3.210938 -20.785156 3.265625 -21.921875 C 3.304688 -23.253906 3.351562 -24.328125 3.40625 -25.140625 C 3.457031 -25.960938 3.53125 -26.5 3.625 -26.75 C 3.726562 -26.894531 3.816406 -27.023438 3.890625 -27.140625 C 3.960938 -27.265625 4.046875 -27.378906 4.140625 -27.484375 C 4.492188 -27.828125 5.039062 -28.023438 5.78125 -28.078125 Z M 24.453125 -25.78125 C 23.859375 -25.78125 23.734375 -25.457031 24.078125 -24.8125 C 24.273438 -24.570312 24.691406 -24.253906 25.328125 -23.859375 C 25.972656 -23.460938 26.566406 -23.210938 27.109375 -23.109375 C 27.609375 -23.054688 27.859375 -23.179688 27.859375 -23.484375 C 27.859375 -24.171875 27.445312 -24.722656 26.625 -25.140625 C 25.8125 -25.566406 25.085938 -25.78125 24.453125 -25.78125 Z M 24.453125 -25.78125 "/></g></g></g><g fill="#6bbdea" fill-opacity="1"><g transform="translate(243.050996, 202.649521)"><g><path d="M 10.734375 -40.15625 C 10.984375 -40.195312 11.234375 -40.226562 11.484375 -40.25 C 11.734375 -40.28125 12.03125 -40.296875 12.375 -40.296875 C 13.601562 -40.242188 14.75 -40.09375 15.8125 -39.84375 C 16.875 -39.601562 17.800781 -39.210938 18.59375 -38.671875 C 18.84375 -38.523438 19.015625 -38.289062 19.109375 -37.96875 C 19.210938 -37.644531 19.3125 -37.359375 19.40625 -37.109375 C 19.65625 -36.316406 19.726562 -35.28125 19.625 -34 C 19.625 -33.90625 19.625 -33.757812 19.625 -33.5625 C 19.675781 -33.257812 19.675781 -32.835938 19.625 -32.296875 C 19.625 -32.003906 19.625 -31.734375 19.625 -31.484375 C 19.625 -31.234375 19.578125 -30.988281 19.484375 -30.75 C 19.429688 -30.15625 19.390625 -29.625 19.359375 -29.15625 C 19.335938 -28.6875 19.328125 -28.253906 19.328125 -27.859375 L 19.328125 -26.890625 L 19.484375 -26.671875 C 19.535156 -26.671875 19.734375 -26.65625 20.078125 -26.625 C 20.421875 -26.601562 20.828125 -26.578125 21.296875 -26.546875 C 21.765625 -26.523438 22.269531 -26.515625 22.8125 -26.515625 C 23.351562 -26.515625 23.847656 -26.515625 24.296875 -26.515625 C 25.972656 -26.472656 27.035156 -26.351562 27.484375 -26.15625 C 28.765625 -25.707031 29.429688 -24.863281 29.484375 -23.625 C 29.535156 -22.289062 29.289062 -21.304688 28.75 -20.671875 C 28 -19.929688 26.910156 -19.460938 25.484375 -19.265625 C 24.941406 -19.109375 24.238281 -18.976562 23.375 -18.875 C 22.507812 -18.78125 21.210938 -18.710938 19.484375 -18.671875 L 18.96875 -18.59375 L 18.8125 -17.109375 C 18.664062 -15.828125 18.519531 -14.679688 18.375 -13.671875 C 18.226562 -12.660156 18.15625 -11.734375 18.15625 -10.890625 C 18.15625 -10.046875 18.3125 -9.28125 18.625 -8.59375 C 18.945312 -7.90625 19.601562 -7.5625 20.59375 -7.5625 C 21.4375 -7.5625 22.914062 -7.929688 25.03125 -8.671875 C 25.820312 -8.960938 26.515625 -8.960938 27.109375 -8.671875 C 27.410156 -8.566406 27.742188 -8.34375 28.109375 -8 C 28.484375 -7.65625 28.742188 -7.382812 28.890625 -7.1875 C 28.941406 -7.082031 28.96875 -6.957031 28.96875 -6.8125 C 28.96875 -6.664062 28.988281 -6.46875 29.03125 -6.21875 L 29.03125 -5.5625 L 28.59375 -5.109375 C 27.945312 -4.460938 27.335938 -3.867188 26.765625 -3.328125 C 26.203125 -2.785156 25.578125 -2.296875 24.890625 -1.859375 C 24.398438 -1.609375 23.929688 -1.382812 23.484375 -1.1875 C 23.035156 -0.988281 22.539062 -0.789062 22 -0.59375 C 21.113281 -0.34375 20.347656 -0.117188 19.703125 0.078125 C 19.054688 0.273438 18.539062 0.394531 18.15625 0.4375 C 17.5625 0.488281 16.644531 0.488281 15.40625 0.4375 C 14.757812 0.394531 14.25 0.347656 13.875 0.296875 C 13.507812 0.242188 13.207031 0.191406 12.96875 0.140625 C 9.707031 -0.640625 7.628906 -3.128906 6.734375 -7.328125 C 6.492188 -8.171875 6.3125 -9.304688 6.1875 -10.734375 C 6.0625 -12.171875 5.953125 -13.898438 5.859375 -15.921875 C 5.804688 -16.710938 5.753906 -17.316406 5.703125 -17.734375 C 5.648438 -18.160156 5.601562 -18.445312 5.5625 -18.59375 C 5.363281 -18.789062 4.988281 -18.914062 4.4375 -18.96875 C 3.15625 -19.257812 2.269531 -19.800781 1.78125 -20.59375 C 1.675781 -20.882812 1.578125 -21.453125 1.484375 -22.296875 C 1.335938 -23.429688 1.375 -24.28125 1.59375 -24.84375 C 1.8125 -25.414062 2.269531 -25.851562 2.96875 -26.15625 C 3.113281 -26.195312 3.367188 -26.265625 3.734375 -26.359375 C 4.109375 -26.460938 4.492188 -26.578125 4.890625 -26.703125 C 5.285156 -26.828125 5.628906 -26.953125 5.921875 -27.078125 C 6.222656 -27.203125 6.394531 -27.285156 6.4375 -27.328125 C 6.632812 -27.578125 6.757812 -28.296875 6.8125 -29.484375 C 6.914062 -30.765625 7.085938 -32.304688 7.328125 -34.109375 C 7.578125 -35.910156 7.972656 -37.378906 8.515625 -38.515625 C 8.859375 -39.304688 9.597656 -39.851562 10.734375 -40.15625 Z M 17.40625 -37.265625 C 17.257812 -37.503906 17.023438 -37.734375 16.703125 -37.953125 C 16.378906 -38.179688 16.019531 -38.296875 15.625 -38.296875 C 15.332031 -38.296875 15.035156 -38.222656 14.734375 -38.078125 C 14.441406 -38.023438 14.296875 -37.953125 14.296875 -37.859375 C 14.296875 -37.703125 14.554688 -37.460938 15.078125 -37.140625 C 15.597656 -36.828125 16.03125 -36.570312 16.375 -36.375 C 16.863281 -36.175781 17.207031 -36.175781 17.40625 -36.375 C 17.457031 -36.425781 17.484375 -36.546875 17.484375 -36.734375 C 17.484375 -36.929688 17.457031 -37.109375 17.40625 -37.265625 Z M 17.40625 -37.265625 "/></g></g></g><g fill="#6bbdea" fill-opacity="1"><g transform="translate(274.089106, 202.649521)"><g><path d="M 16 -27.1875 C 16.988281 -27.1875 17.890625 -27.023438 18.703125 -26.703125 C 19.515625 -26.378906 20.34375 -25.945312 21.1875 -25.40625 L 22.15625 -24.96875 L 22.8125 -25.5625 C 23.75 -26.351562 25.132812 -26.75 26.96875 -26.75 C 27.507812 -26.75 28.097656 -26.707031 28.734375 -26.625 C 29.378906 -26.550781 30.007812 -26.425781 30.625 -26.25 C 31.25 -26.082031 31.804688 -25.828125 32.296875 -25.484375 C 32.785156 -25.140625 33.128906 -24.671875 33.328125 -24.078125 C 33.378906 -23.929688 33.40625 -21.390625 33.40625 -16.453125 C 33.40625 -9.972656 33.503906 -6.539062 33.703125 -6.15625 C 33.804688 -6.050781 33.90625 -5.1875 34 -3.5625 L 34.078125 -1.328125 L 33.703125 -1.109375 C 33.109375 -0.566406 32.171875 -0.0507812 30.890625 0.4375 C 29.503906 0.9375 28.144531 1.085938 26.8125 0.890625 C 26.175781 0.691406 25.734375 0.441406 25.484375 0.140625 C 25.234375 -0.148438 24.835938 -0.71875 24.296875 -1.5625 C 24.097656 -1.851562 23.875 -2.179688 23.625 -2.546875 C 23.382812 -2.921875 23.066406 -3.359375 22.671875 -3.859375 C 22.523438 -4.046875 22.273438 -4.140625 21.921875 -4.140625 C 21.378906 -4.046875 20.664062 -3.753906 19.78125 -3.265625 C 19.039062 -2.765625 18.394531 -2.363281 17.84375 -2.0625 C 17.300781 -1.769531 16.859375 -1.523438 16.515625 -1.328125 C 15.429688 -0.890625 14.320312 -0.519531 13.1875 -0.21875 C 12.9375 -0.164062 12.660156 -0.128906 12.359375 -0.109375 C 12.066406 -0.0859375 11.773438 -0.078125 11.484375 -0.078125 C 9.410156 -0.078125 7.753906 -0.71875 6.515625 -2 C 5.285156 -3.28125 4.300781 -4.835938 3.5625 -6.671875 C 2.863281 -8.546875 2.425781 -10.46875 2.25 -12.4375 C 2.082031 -14.414062 2.242188 -16.46875 2.734375 -18.59375 C 3.035156 -19.976562 3.65625 -21.203125 4.59375 -22.265625 C 5.53125 -23.328125 6.640625 -24.226562 7.921875 -24.96875 C 9.210938 -25.707031 10.570312 -26.257812 12 -26.625 C 13.4375 -27 14.769531 -27.1875 16 -27.1875 Z M 29.484375 -24.96875 C 29.285156 -25.007812 29.097656 -25.039062 28.921875 -25.0625 C 28.753906 -25.09375 28.546875 -25.132812 28.296875 -25.1875 L 27.484375 -25.1875 L 27.484375 -24.734375 C 27.484375 -24.191406 27.65625 -23.734375 28 -23.359375 C 28.34375 -22.992188 28.710938 -22.8125 29.109375 -22.8125 C 29.410156 -22.8125 29.757812 -22.957031 30.15625 -23.25 C 30.550781 -23.550781 30.75 -23.800781 30.75 -24 C 30.75 -24.394531 30.328125 -24.71875 29.484375 -24.96875 Z M 21.78125 -18.59375 C 21.675781 -18.6875 20.984375 -18.515625 19.703125 -18.078125 C 15.898438 -16.941406 13.65625 -16.023438 12.96875 -15.328125 C 12.125 -14.640625 11.703125 -13.484375 11.703125 -11.859375 C 11.804688 -9.484375 12.398438 -8.070312 13.484375 -7.625 C 13.734375 -7.53125 14.003906 -7.484375 14.296875 -7.484375 C 14.585938 -7.484375 14.859375 -7.484375 15.109375 -7.484375 C 16.191406 -7.484375 17.3125 -7.78125 18.46875 -8.375 C 19.632812 -8.96875 20.640625 -9.609375 21.484375 -10.296875 L 22.21875 -10.890625 L 22.21875 -11.921875 C 22.21875 -12.816406 22.191406 -13.707031 22.140625 -14.59375 C 22.097656 -15.476562 22.023438 -16.414062 21.921875 -17.40625 C 21.878906 -17.601562 21.859375 -17.773438 21.859375 -17.921875 C 21.859375 -18.078125 21.832031 -18.203125 21.78125 -18.296875 C 21.78125 -18.398438 21.78125 -18.5 21.78125 -18.59375 Z M 21.78125 -18.59375 "/></g></g></g><g fill="#6bbdea" fill-opacity="1"><g transform="translate(311.201484, 202.649521)"><g><path d="M 7.859375 -27.109375 C 8.398438 -27.109375 8.914062 -26.972656 9.40625 -26.703125 C 9.90625 -26.429688 10.390625 -26.082031 10.859375 -25.65625 C 11.328125 -25.238281 11.753906 -24.804688 12.140625 -24.359375 C 12.535156 -23.921875 12.882812 -23.53125 13.1875 -23.1875 C 13.4375 -22.9375 13.671875 -22.6875 13.890625 -22.4375 C 14.109375 -22.195312 14.34375 -21.976562 14.59375 -21.78125 L 15.109375 -21.328125 L 15.703125 -21.78125 C 16.203125 -22.320312 16.734375 -22.863281 17.296875 -23.40625 C 17.867188 -23.945312 18.570312 -24.515625 19.40625 -25.109375 L 20.890625 -26.21875 L 22.078125 -26.671875 C 22.910156 -26.910156 23.378906 -27.03125 23.484375 -27.03125 C 24.515625 -27.03125 25.550781 -26.613281 26.59375 -25.78125 C 26.738281 -25.675781 26.945312 -25.488281 27.21875 -25.21875 C 27.488281 -24.945312 27.820312 -24.640625 28.21875 -24.296875 C 28.914062 -23.609375 29.335938 -23.066406 29.484375 -22.671875 C 29.628906 -22.273438 29.703125 -21.953125 29.703125 -21.703125 C 29.703125 -21.109375 29.503906 -20.5625 29.109375 -20.0625 C 28.710938 -19.570312 28.019531 -18.785156 27.03125 -17.703125 C 25.3125 -15.878906 24.300781 -14.71875 24 -14.21875 C 23.75 -13.582031 23.898438 -12.867188 24.453125 -12.078125 C 24.835938 -11.578125 25.265625 -11.003906 25.734375 -10.359375 C 26.210938 -9.722656 26.742188 -9.0625 27.328125 -8.375 C 27.878906 -7.675781 28.390625 -6.984375 28.859375 -6.296875 C 29.328125 -5.609375 29.707031 -4.914062 30 -4.21875 L 30.296875 -3.484375 L 30.15625 -2.890625 C 29.957031 -1.703125 29.425781 -0.8125 28.5625 -0.21875 C 27.695312 0.375 26.695312 0.671875 25.5625 0.671875 C 24.664062 0.671875 23.875 0.320312 23.1875 -0.375 C 21.0625 -2.25 19.359375 -4.148438 18.078125 -6.078125 C 17.972656 -6.222656 17.847656 -6.367188 17.703125 -6.515625 L 17.5625 -6.734375 C 17.5625 -6.734375 16.941406 -6.164062 15.703125 -5.03125 C 14.273438 -3.65625 13.003906 -2.519531 11.890625 -1.625 C 10.773438 -0.738281 9.800781 -0.0703125 8.96875 0.375 C 8.71875 0.46875 8.394531 0.523438 8 0.546875 C 7.601562 0.578125 7.257812 0.539062 6.96875 0.4375 C 6.320312 0.144531 5.785156 -0.160156 5.359375 -0.484375 C 4.941406 -0.804688 4.488281 -1.265625 4 -1.859375 C 3.90625 -1.953125 3.679688 -2.234375 3.328125 -2.703125 C 2.984375 -3.171875 2.613281 -3.773438 2.21875 -4.515625 C 1.976562 -5.054688 1.832031 -5.597656 1.78125 -6.140625 C 1.726562 -6.691406 1.875 -7.164062 2.21875 -7.5625 L 6 -11.328125 L 10.078125 -15.40625 L 9.484375 -16.375 C 9.085938 -16.914062 8.601562 -17.539062 8.03125 -18.25 C 7.46875 -18.96875 6.617188 -19.992188 5.484375 -21.328125 C 4.984375 -21.972656 4.632812 -22.617188 4.4375 -23.265625 C 4 -24.640625 4.195312 -25.601562 5.03125 -26.15625 C 5.382812 -26.445312 5.832031 -26.675781 6.375 -26.84375 C 6.914062 -27.019531 7.410156 -27.109375 7.859375 -27.109375 Z M 25.109375 -25.625 C 24.515625 -25.78125 24.070312 -25.757812 23.78125 -25.5625 C 23.53125 -25.3125 23.566406 -25 23.890625 -24.625 C 24.210938 -24.257812 24.644531 -23.925781 25.1875 -23.625 C 25.53125 -23.425781 25.800781 -23.351562 26 -23.40625 C 26.5 -23.601562 26.722656 -23.898438 26.671875 -24.296875 C 26.617188 -24.441406 26.40625 -24.6875 26.03125 -25.03125 C 25.664062 -25.382812 25.359375 -25.582031 25.109375 -25.625 Z M 25.109375 -25.625 "/></g></g></g><g clip-path="url(#1091309ae2)"><path fill="#04428c" d="M 337.082031 172.5625 C 332.128906 170.359375 327.65625 167.097656 324.105469 162.988281 C 323.894531 162.746094 323.683594 162.492188 323.480469 162.242188 C 324.367188 161.738281 325.21875 161.1875 326.039062 160.59375 C 329.488281 158.085938 332.363281 154.746094 333.875 150.71875 C 334.167969 149.941406 334.320312 149.015625 333.558594 148.457031 C 332.925781 147.984375 332.015625 148.050781 331.292969 148.246094 C 330.328125 148.511719 329.5 149.144531 328.710938 149.746094 C 327.726562 150.492188 326.820312 151.328125 325.992188 152.246094 C 325.40625 152.898438 324.878906 153.59375 324.382812 154.316406 C 323.921875 151.761719 322.238281 149.453125 319.820312 148.382812 C 318.660156 147.863281 317.132812 147.855469 316.636719 149.25 C 316.199219 150.492188 316.757812 151.882812 317.199219 153.035156 C 318.40625 156.210938 320.046875 159.179688 322.070312 161.875 C 314.046875 166.042969 304.644531 166.015625 295.820312 164.6875 C 290.347656 163.859375 284.941406 162.625 279.5 161.566406 C 274.261719 160.542969 269.007812 159.609375 263.722656 158.855469 C 253.257812 157.371094 242.621094 156.640625 232.074219 157.695312 C 221.957031 158.703125 211.535156 161.347656 202.878906 166.863281 C 201.847656 167.519531 200.855469 168.226562 199.898438 168.980469 C 199.777344 169.078125 199.9375 169.289062 200.0625 169.191406 C 204.429688 165.96875 209.339844 163.777344 214.503906 162.144531 C 219.773438 160.480469 225.222656 159.417969 230.71875 158.832031 C 241.769531 157.664062 252.949219 158.492188 263.917969 160.082031 C 269.449219 160.886719 274.945312 161.894531 280.433594 162.980469 C 286.066406 164.101562 291.679688 165.359375 297.386719 166.082031 C 302.875 166.773438 308.527344 166.960938 313.972656 165.8125 C 316.996094 165.179688 319.964844 164.132812 322.703125 162.664062 C 324.238281 164.589844 325.964844 166.359375 327.875 167.941406 C 330.570312 170.175781 333.535156 171.96875 336.773438 173.277344 C 337.1875 173.460938 337.496094 172.75 337.082031 172.5625 Z M 319.519531 156.304688 C 318.871094 155.097656 318.308594 153.839844 317.824219 152.554688 C 317.472656 151.621094 316.667969 149.714844 317.75 148.957031 C 318.511719 148.421875 319.65625 149.074219 320.332031 149.488281 C 320.949219 149.867188 321.5 150.347656 321.988281 150.882812 C 323.058594 152.066406 323.726562 153.585938 323.878906 155.179688 C 323.902344 155.476562 324.285156 155.609375 324.464844 155.332031 C 325.78125 153.246094 327.621094 151.410156 329.660156 150.015625 C 330.449219 149.46875 331.277344 148.925781 332.273438 148.933594 C 332.601562 148.933594 333.0625 148.984375 333.214844 149.316406 C 333.460938 149.828125 332.925781 150.71875 332.714844 151.183594 C 330.933594 155.054688 327.972656 158.222656 324.414062 160.527344 C 323.910156 160.851562 323.402344 161.160156 322.882812 161.453125 C 321.605469 159.847656 320.476562 158.117188 319.519531 156.304688 Z M 319.519531 156.304688 " fill-opacity="1" fill-rule="nonzero"/></g><g clip-path="url(#b4c32448dd)"><path fill="#04428c" d="M 131.515625 175.714844 C 129.539062 176.410156 127.566406 177.105469 125.59375 177.800781 C 124.699219 178.113281 125.085938 179.539062 125.984375 179.222656 C 127.960938 178.527344 129.933594 177.832031 131.90625 177.136719 C 132.800781 176.824219 132.414062 175.394531 131.515625 175.714844 Z M 131.515625 175.714844 " fill-opacity="1" fill-rule="nonzero"/></g><path fill="#04428c" d="M 129.949219 169.855469 C 128.5 169.929688 127.050781 170.003906 125.597656 170.078125 C 124.652344 170.128906 124.644531 171.605469 125.597656 171.554688 C 127.050781 171.480469 128.5 171.40625 129.949219 171.332031 C 130.898438 171.28125 130.902344 169.804688 129.949219 169.855469 Z M 129.949219 169.855469 " fill-opacity="1" fill-rule="nonzero"/><path fill="#04428c" d="M 134.898438 159.441406 C 134.070312 158.617188 133.242188 157.796875 132.414062 156.976562 C 131.734375 156.304688 130.691406 157.351562 131.367188 158.023438 C 132.195312 158.84375 133.023438 159.664062 133.851562 160.484375 C 134.53125 161.15625 135.574219 160.109375 134.898438 159.441406 Z M 134.898438 159.441406 " fill-opacity="1" fill-rule="nonzero"/><path fill="#04428c" d="M 139.519531 156.566406 C 138.941406 155.554688 138.363281 154.542969 137.785156 153.527344 C 137.3125 152.703125 136.035156 153.445312 136.511719 154.273438 C 137.085938 155.285156 137.664062 156.300781 138.242188 157.3125 C 138.714844 158.140625 139.992188 157.394531 139.519531 156.566406 Z M 139.519531 156.566406 " fill-opacity="1" fill-rule="nonzero"/><path fill="#04428c" d="M 131.105469 164.273438 C 129.132812 163.316406 127.160156 162.359375 125.1875 161.40625 C 124.335938 160.992188 123.585938 162.265625 124.441406 162.679688 C 126.414062 163.636719 128.386719 164.59375 130.359375 165.546875 C 131.214844 165.960938 131.960938 164.6875 131.105469 164.273438 Z M 131.105469 164.273438 " fill-opacity="1" fill-rule="nonzero"/><g clip-path="url(#d804e48123)"><path fill="#04428c" d="M 144.476562 155.226562 C 144.078125 153.070312 143.683594 150.914062 143.285156 148.757812 C 143.109375 147.824219 141.6875 148.21875 141.859375 149.152344 C 142.257812 151.304688 142.65625 153.460938 143.054688 155.617188 C 143.226562 156.554688 144.648438 156.15625 144.476562 155.226562 Z M 144.476562 155.226562 " fill-opacity="1" fill-rule="nonzero"/></g></svg>