<svg xmlns="http://www.w3.org/2000/svg" xmlns:xlink="http://www.w3.org/1999/xlink" width="500" zoomAndPan="magnify" viewBox="0 0 375 374.999991" height="500" preserveAspectRatio="xMidYMid meet" version="1.0"><defs><g/></defs><rect x="-37.5" width="450" fill="#ffffff" y="-37.499999" height="449.999989" fill-opacity="1"/><rect x="-37.5" width="450" fill="#ffffff" y="-37.499999" height="449.999989" fill-opacity="1"/><path fill="#6bbdea" d="M 51.25 145.878906 C 104.363281 148.199219 341.816406 146.136719 349.808594 143.300781 C 364.761719 138.144531 343.105469 136.855469 245.90625 136.855469 C 128.082031 136.855469 129.625 137.113281 118.800781 116.230469 C 103.332031 86.324219 123.183594 41.71875 159.273438 24.960938 C 162.039062 23.949219 164.84375 23.066406 167.6875 22.324219 C 170.535156 21.578125 173.410156 20.96875 176.316406 20.496094 C 179.21875 20.027344 182.140625 19.695312 185.078125 19.503906 C 188.015625 19.308594 190.953125 19.257812 193.894531 19.347656 C 196.835938 19.433594 199.765625 19.664062 202.683594 20.03125 C 205.605469 20.398438 208.5 20.902344 211.371094 21.546875 C 214.242188 22.191406 217.078125 22.972656 219.875 23.886719 C 222.671875 24.800781 225.417969 25.847656 228.113281 27.023438 C 250.542969 37.078125 259.050781 46.875 264.210938 68.015625 C 271.6875 98.441406 277.875 85.546875 273.75 48.164062 C 270.65625 20.835938 266.273438 15.421875 244.613281 10.78125 C 216.089844 7.582031 187.558594 7.496094 159.019531 10.523438 C 122.40625 16.710938 100.234375 31.40625 86.828125 58.734375 C 85.234375 61.515625 83.855469 64.398438 82.6875 67.382812 C 81.519531 70.367188 80.574219 73.417969 79.855469 76.542969 C 79.132812 79.664062 78.644531 82.824219 78.386719 86.015625 C 78.132812 89.210938 78.109375 92.40625 78.320312 95.605469 C 78.167969 105.289062 78.855469 114.914062 80.382812 124.480469 L 82.445312 133.761719 L 54.601562 135.566406 C 42.152344 136.148438 29.863281 137.867188 17.730469 140.722656 C 9.746094 143.558594 13.09375 144.070312 51.25 145.878906 Z M 51.25 145.878906 " fill-opacity="1" fill-rule="nonzero"/><path fill="#6bbdea" d="M 352.902344 230.960938 C 346.714844 226.835938 28.820312 226.574219 17.992188 230.703125 C 12.0625 232.765625 10 234.570312 12.0625 235.859375 C 13.867188 236.890625 65.429688 237.40625 126.792969 237.148438 C 201.304688 236.890625 240.492188 237.664062 245.132812 239.46875 C 255.703125 243.851562 260.859375 256.226562 259.3125 273.5 C 254.414062 327.640625 199.5 363.996094 144.070312 349.816406 C 110.8125 341.308594 87.867188 321.714844 80.132812 295.933594 C 72.394531 269.636719 66.722656 274.792969 66.722656 308.308594 C 66.722656 337.960938 75.746094 347.242188 115.96875 358.585938 C 131.648438 362.511719 147.5625 364.824219 163.714844 365.515625 C 179.863281 366.210938 195.917969 365.277344 211.878906 362.710938 C 217.285156 361.660156 222.589844 360.21875 227.785156 358.386719 C 232.980469 356.554688 238.015625 354.347656 242.886719 351.769531 C 247.753906 349.195312 252.410156 346.273438 256.847656 343.007812 C 261.285156 339.742188 265.460938 336.171875 269.371094 332.289062 C 271.449219 330.15625 273.417969 327.929688 275.277344 325.609375 C 277.140625 323.289062 278.886719 320.882812 280.515625 318.394531 C 282.148438 315.902344 283.65625 313.339844 285.039062 310.707031 C 286.421875 308.070312 287.675781 305.378906 288.800781 302.621094 C 289.921875 299.867188 290.914062 297.0625 291.765625 294.214844 C 292.621094 291.363281 293.335938 288.476562 293.914062 285.558594 C 294.488281 282.640625 294.925781 279.699219 295.21875 276.738281 C 295.511719 273.777344 295.664062 270.808594 295.671875 267.832031 C 297.21875 239.730469 299.28125 237.410156 325.835938 237.152344 C 348.261719 236.890625 358.574219 234.3125 352.902344 230.960938 Z M 352.902344 230.960938 " fill-opacity="1" fill-rule="nonzero"/><g fill="#6bbdea" fill-opacity="1"><g transform="translate(14.786616, 203.410021)"><g><path d="M 7.015625 -29.25 C 7.335938 -29.363281 7.765625 -29.421875 8.296875 -29.421875 C 8.835938 -29.421875 9.457031 -29.421875 10.15625 -29.421875 L 12.328125 -29.421875 L 12.734375 -29.09375 C 13.109375 -28.820312 13.441406 -28.566406 13.734375 -28.328125 C 14.035156 -28.085938 14.238281 -27.859375 14.34375 -27.640625 C 14.394531 -27.535156 14.445312 -27.347656 14.5 -27.078125 C 14.5625 -26.804688 14.644531 -26.457031 14.75 -26.03125 L 14.90625 -24.65625 L 14.90625 -10.078125 L 15.3125 -9.828125 C 15.414062 -9.671875 15.671875 -9.550781 16.078125 -9.46875 C 16.484375 -9.382812 16.976562 -9.316406 17.5625 -9.265625 C 18.476562 -9.160156 19.097656 -9.160156 19.421875 -9.265625 C 20.816406 -9.535156 21.957031 -10.046875 22.84375 -10.796875 C 23.726562 -11.546875 24.363281 -12.648438 24.75 -14.109375 C 25.382812 -16.304688 24.953125 -18.210938 23.453125 -19.828125 C 22.210938 -20.953125 20.734375 -21.410156 19.015625 -21.203125 C 18.367188 -21.140625 17.859375 -21.191406 17.484375 -21.359375 C 16.578125 -21.578125 15.988281 -22.351562 15.71875 -23.6875 C 15.664062 -23.90625 15.546875 -24.457031 15.359375 -25.34375 C 15.171875 -26.226562 15.179688 -26.992188 15.390625 -27.640625 L 15.640625 -28.453125 L 16.6875 -28.765625 C 18.289062 -29.253906 20.007812 -29.5 21.84375 -29.5 C 23.019531 -29.5 24.238281 -29.363281 25.5 -29.09375 C 26.769531 -28.820312 27.96875 -28.40625 29.09375 -27.84375 C 30.21875 -27.28125 31.25 -26.582031 32.1875 -25.75 C 33.132812 -24.914062 33.875 -23.9375 34.40625 -22.8125 C 35 -21.738281 35.414062 -20.539062 35.65625 -19.21875 C 35.90625 -17.90625 35.972656 -16.46875 35.859375 -14.90625 C 35.804688 -13.507812 35.601562 -12.097656 35.25 -10.671875 C 34.90625 -9.253906 34.367188 -7.925781 33.640625 -6.6875 C 32.921875 -5.445312 32.035156 -4.359375 30.984375 -3.421875 C 29.941406 -2.484375 28.722656 -1.773438 27.328125 -1.296875 C 25.816406 -0.804688 23.179688 -0.5625 19.421875 -0.5625 L 16.125 -0.5625 L 16.03125 -0.078125 C 15.875 0.347656 15.769531 1.003906 15.71875 1.890625 C 15.664062 2.773438 15.640625 3.914062 15.640625 5.3125 C 15.640625 8.757812 15.554688 11.046875 15.390625 12.171875 C 15.335938 12.765625 14.910156 13.410156 14.109375 14.109375 C 13.566406 14.535156 12.984375 14.800781 12.359375 14.90625 C 11.742188 15.019531 10.660156 15.078125 9.109375 15.078125 C 7.546875 15.015625 6.28125 14.78125 5.3125 14.375 C 4.351562 13.976562 3.765625 12.921875 3.546875 11.203125 C 3.492188 10.929688 3.46875 10.175781 3.46875 8.9375 C 3.46875 7.707031 3.46875 6.046875 3.46875 3.953125 C 3.46875 1.742188 3.476562 -0.0390625 3.5 -1.40625 C 3.53125 -2.78125 3.570312 -3.84375 3.625 -4.59375 C 3.675781 -5.394531 3.703125 -6.453125 3.703125 -7.765625 C 3.703125 -9.085938 3.703125 -10.660156 3.703125 -12.484375 C 3.703125 -14.316406 3.710938 -15.796875 3.734375 -16.921875 C 3.765625 -18.046875 3.8125 -18.851562 3.875 -19.34375 C 4.03125 -20.738281 4.132812 -22.066406 4.1875 -23.328125 C 4.238281 -24.585938 4.238281 -25.8125 4.1875 -27 C 4.1875 -27.695312 4.429688 -28.207031 4.921875 -28.53125 C 5.398438 -28.90625 6.097656 -29.144531 7.015625 -29.25 Z M 28.046875 -27.078125 C 27.503906 -27.242188 27.046875 -27.328125 26.671875 -27.328125 C 26.085938 -27.328125 25.660156 -27.191406 25.390625 -26.921875 L 25.3125 -26.671875 L 25.953125 -26.1875 C 26.921875 -25.601562 27.992188 -25.09375 29.171875 -24.65625 C 29.335938 -24.601562 29.484375 -24.5625 29.609375 -24.53125 C 29.742188 -24.507812 29.894531 -24.523438 30.0625 -24.578125 C 30.4375 -24.742188 30.570312 -24.988281 30.46875 -25.3125 C 30.195312 -26.113281 29.390625 -26.703125 28.046875 -27.078125 Z M 28.046875 -27.078125 "/></g></g></g><g fill="#6bbdea" fill-opacity="1"><g transform="translate(52.341477, 203.410021)"><g><path d="M 9.03125 -29.734375 C 10.101562 -29.734375 11.3125 -29.664062 12.65625 -29.53125 C 14 -29.40625 15.097656 -28.910156 15.953125 -28.046875 L 16.203125 -27.71875 L 17.078125 -27.890625 C 17.242188 -27.941406 17.5 -28.019531 17.84375 -28.125 C 18.195312 -28.226562 18.585938 -28.335938 19.015625 -28.453125 C 20.628906 -29.097656 21.972656 -29.421875 23.046875 -29.421875 C 24.066406 -29.421875 24.6875 -29.363281 24.90625 -29.25 C 26.25 -29.039062 27.109375 -28.757812 27.484375 -28.40625 C 27.859375 -28.0625 28.15625 -27.457031 28.375 -26.59375 C 28.53125 -25.738281 28.421875 -24.691406 28.046875 -23.453125 L 27.890625 -22.8125 L 27.234375 -22.484375 C 26.484375 -22.160156 25.800781 -21.890625 25.1875 -21.671875 C 24.570312 -21.460938 23.96875 -21.25 23.375 -21.03125 C 23.15625 -20.976562 22.738281 -20.84375 22.125 -20.625 C 21.507812 -20.414062 20.863281 -20.175781 20.1875 -19.90625 C 19.519531 -19.632812 18.898438 -19.378906 18.328125 -19.140625 C 17.765625 -18.898438 17.429688 -18.722656 17.328125 -18.609375 C 17.378906 -18.554688 17.320312 -18.25 17.15625 -17.6875 C 17 -17.125 16.894531 -16.304688 16.84375 -15.234375 C 16.789062 -14.691406 16.773438 -13.921875 16.796875 -12.921875 C 16.828125 -11.929688 16.84375 -10.6875 16.84375 -9.1875 C 16.894531 -7.363281 16.878906 -5.941406 16.796875 -4.921875 C 16.722656 -3.898438 16.628906 -3.117188 16.515625 -2.578125 C 16.191406 -1.285156 15.546875 -0.425781 14.578125 0 C 13.617188 0.425781 12.519531 0.640625 11.28125 0.640625 C 10.363281 0.640625 9.472656 0.597656 8.609375 0.515625 C 7.753906 0.441406 6.976562 0.257812 6.28125 -0.03125 C 5.582031 -0.332031 4.976562 -0.773438 4.46875 -1.359375 C 3.957031 -1.953125 3.625 -2.757812 3.46875 -3.78125 C 3.351562 -4.164062 3.28125 -4.800781 3.25 -5.6875 C 3.226562 -6.570312 3.242188 -7.789062 3.296875 -9.34375 C 3.296875 -10.257812 3.296875 -11.226562 3.296875 -12.25 C 3.296875 -13.269531 3.351562 -14.398438 3.46875 -15.640625 C 3.570312 -19.078125 3.632812 -21.722656 3.65625 -23.578125 C 3.6875 -25.429688 3.757812 -26.488281 3.875 -26.75 C 4.082031 -27.507812 4.375 -28.035156 4.75 -28.328125 C 5.125 -28.617188 5.851562 -28.925781 6.9375 -29.25 C 7.519531 -29.519531 8.21875 -29.679688 9.03125 -29.734375 Z M 12.328125 -28.375 C 11.898438 -28.476562 11.5 -28.515625 11.125 -28.484375 C 10.75 -28.460938 10.585938 -28.316406 10.640625 -28.046875 C 10.742188 -27.617188 10.984375 -27.3125 11.359375 -27.125 C 11.734375 -26.9375 12.191406 -26.707031 12.734375 -26.4375 C 13.003906 -26.382812 13.21875 -26.4375 13.375 -26.59375 C 13.488281 -26.8125 13.546875 -27.023438 13.546875 -27.234375 C 13.546875 -27.554688 13.421875 -27.796875 13.171875 -27.953125 C 12.929688 -28.117188 12.648438 -28.257812 12.328125 -28.375 Z M 12.328125 -28.375 "/></g></g></g><g fill="#6bbdea" fill-opacity="1"><g transform="translate(81.434405, 203.410021)"><g><path d="M 18.453125 -29.8125 L 24.171875 -29.8125 L 25.140625 -29.5 C 27.296875 -28.90625 28.828125 -28.3125 29.734375 -27.71875 C 30.378906 -27.34375 30.941406 -26.941406 31.421875 -26.515625 C 31.910156 -26.085938 32.367188 -25.628906 32.796875 -25.140625 C 34.578125 -22.773438 35.4375 -19.550781 35.375 -15.46875 C 35.320312 -13.800781 35.082031 -12.1875 34.65625 -10.625 C 34.226562 -9.070312 33.609375 -7.625 32.796875 -6.28125 C 31.992188 -4.9375 30.972656 -3.769531 29.734375 -2.78125 C 28.503906 -1.789062 27.054688 -1.023438 25.390625 -0.484375 C 25.117188 -0.378906 24.765625 -0.285156 24.328125 -0.203125 C 23.898438 -0.117188 23.367188 -0.0234375 22.734375 0.078125 L 20.796875 0.5625 L 18.375 0.5625 C 13.539062 0.5625 9.695312 -0.550781 6.84375 -2.78125 C 4 -5.007812 2.523438 -8.675781 2.421875 -13.78125 C 2.253906 -19.582031 3.863281 -24.066406 7.25 -27.234375 C 7.894531 -27.828125 8.472656 -28.296875 8.984375 -28.640625 C 9.492188 -28.992188 10.019531 -29.195312 10.5625 -29.25 C 10.664062 -29.363281 10.863281 -29.390625 11.15625 -29.328125 C 11.457031 -29.273438 11.820312 -29.222656 12.25 -29.171875 L 13.546875 -29.09375 L 14.75 -29.421875 C 15.394531 -29.523438 16.023438 -29.601562 16.640625 -29.65625 C 17.253906 -29.707031 17.859375 -29.757812 18.453125 -29.8125 Z M 27.078125 -27.40625 C 26.054688 -28.050781 25.492188 -27.890625 25.390625 -26.921875 C 25.390625 -26.753906 25.441406 -26.617188 25.546875 -26.515625 C 25.648438 -26.410156 25.835938 -26.222656 26.109375 -25.953125 C 26.648438 -25.523438 27.082031 -25.242188 27.40625 -25.109375 C 27.726562 -24.972656 28.238281 -24.90625 28.9375 -24.90625 C 29.207031 -25.007812 29.273438 -25.179688 29.140625 -25.421875 C 29.003906 -25.671875 28.691406 -26.0625 28.203125 -26.59375 C 27.941406 -26.8125 27.726562 -26.972656 27.5625 -27.078125 C 27.40625 -27.179688 27.242188 -27.289062 27.078125 -27.40625 Z M 20.625 -21.765625 C 19.820312 -21.921875 19.015625 -21.957031 18.203125 -21.875 C 17.398438 -21.800781 16.625 -21.628906 15.875 -21.359375 C 15.769531 -21.304688 15.625 -21.15625 15.4375 -20.90625 C 15.25 -20.664062 15.03125 -20.367188 14.78125 -20.015625 C 14.539062 -19.671875 14.3125 -19.3125 14.09375 -18.9375 C 13.882812 -18.5625 13.726562 -18.210938 13.625 -17.890625 C 13.082031 -16.710938 12.863281 -15.394531 12.96875 -13.9375 C 12.96875 -12.59375 13.25 -11.328125 13.8125 -10.140625 C 14.382812 -8.960938 15.421875 -8.242188 16.921875 -7.984375 C 17.515625 -7.816406 18.078125 -7.734375 18.609375 -7.734375 C 19.898438 -7.734375 20.945312 -7.945312 21.75 -8.375 C 22.5625 -8.8125 23.195312 -9.390625 23.65625 -10.109375 C 24.113281 -10.835938 24.421875 -11.671875 24.578125 -12.609375 C 24.742188 -13.546875 24.828125 -14.554688 24.828125 -15.640625 C 24.828125 -17.304688 24.609375 -18.488281 24.171875 -19.1875 C 23.796875 -19.882812 23.3125 -20.457031 22.71875 -20.90625 C 22.132812 -21.363281 21.4375 -21.648438 20.625 -21.765625 Z M 20.625 -21.765625 "/></g></g></g><g fill="#6bbdea" fill-opacity="1"><g transform="translate(119.231033, 203.410021)"><g><path d="M 23.53125 -49.5625 C 24.019531 -49.664062 25.039062 -49.664062 26.59375 -49.5625 C 27.457031 -49.507812 28.15625 -49.484375 28.6875 -49.484375 C 29.226562 -49.484375 29.601562 -49.457031 29.8125 -49.40625 C 31.914062 -49.132812 34.117188 -48.6875 36.421875 -48.0625 C 38.734375 -47.445312 40.773438 -46.523438 42.546875 -45.296875 C 44.109375 -44.054688 44.890625 -42.765625 44.890625 -41.421875 C 44.890625 -40.242188 44.328125 -39.171875 43.203125 -38.203125 C 42.710938 -37.710938 42.160156 -37.304688 41.546875 -36.984375 C 40.929688 -36.671875 40.242188 -36.515625 39.484375 -36.515625 C 39.054688 -36.515625 38.546875 -36.617188 37.953125 -36.828125 C 37.367188 -37.046875 36.695312 -37.34375 35.9375 -37.71875 C 34.707031 -38.414062 33.554688 -38.960938 32.484375 -39.359375 C 31.410156 -39.765625 30.414062 -40 29.5 -40.0625 C 28.75 -40.164062 27.96875 -40.164062 27.15625 -40.0625 C 24.6875 -39.738281 22.671875 -38.820312 21.109375 -37.3125 C 19.765625 -35.96875 19.3125 -34.570312 19.75 -33.125 C 19.957031 -32.101562 20.570312 -31.3125 21.59375 -30.75 C 22.613281 -30.1875 23.582031 -29.820312 24.5 -29.65625 C 24.769531 -29.601562 25 -29.5625 25.1875 -29.53125 C 25.375 -29.507812 25.546875 -29.472656 25.703125 -29.421875 C 25.816406 -29.304688 26.019531 -29.25 26.3125 -29.25 C 26.601562 -29.25 27.019531 -29.222656 27.5625 -29.171875 C 28.957031 -29.015625 30.429688 -28.734375 31.984375 -28.328125 C 33.546875 -27.921875 35.050781 -27.378906 36.5 -26.703125 C 37.957031 -26.035156 39.328125 -25.234375 40.609375 -24.296875 C 41.898438 -23.359375 42.976562 -22.328125 43.84375 -21.203125 C 44.644531 -20.015625 45.207031 -18.320312 45.53125 -16.125 C 45.644531 -15.15625 45.601562 -14.226562 45.40625 -13.34375 C 45.21875 -12.457031 44.9375 -11.582031 44.5625 -10.71875 C 43.707031 -8.832031 42.429688 -7.082031 40.734375 -5.46875 C 39.046875 -3.863281 36.859375 -2.441406 34.171875 -1.203125 C 32.671875 -0.503906 30.910156 -0.0078125 28.890625 0.28125 C 26.878906 0.570312 25.066406 0.71875 23.453125 0.71875 C 20.546875 0.71875 17.707031 0.503906 14.9375 0.078125 C 12.175781 -0.347656 9.425781 -1.125 6.6875 -2.25 C 4.8125 -3.007812 3.65625 -3.867188 3.21875 -4.828125 C 3.007812 -5.316406 2.875 -5.867188 2.8125 -6.484375 C 2.757812 -7.109375 2.867188 -7.796875 3.140625 -8.546875 C 3.515625 -9.671875 4.128906 -10.582031 4.984375 -11.28125 C 5.847656 -11.976562 6.898438 -12.328125 8.140625 -12.328125 C 8.941406 -12.328125 9.851562 -12.164062 10.875 -11.84375 C 12.65625 -11.46875 14.28125 -11.160156 15.75 -10.921875 C 17.226562 -10.679688 18.585938 -10.535156 19.828125 -10.484375 C 24.179688 -10.367188 27.191406 -11.359375 28.859375 -13.453125 C 29.285156 -13.941406 29.578125 -14.5625 29.734375 -15.3125 C 29.898438 -16.0625 29.847656 -16.648438 29.578125 -17.078125 C 28.828125 -18.265625 27.910156 -19.113281 26.828125 -19.625 C 25.753906 -20.132812 24.550781 -20.550781 23.21875 -20.875 C 20.144531 -21.519531 17.5625 -22.164062 15.46875 -22.8125 C 13.375 -23.457031 11.710938 -24.070312 10.484375 -24.65625 C 6.984375 -26.375 4.992188 -29.035156 4.515625 -32.640625 C 4.347656 -34.035156 4.425781 -35.457031 4.75 -36.90625 C 5.1875 -39.0625 5.96875 -40.890625 7.09375 -42.390625 C 8.21875 -43.898438 9.585938 -45.132812 11.203125 -46.09375 C 12.816406 -47.0625 14.578125 -47.8125 16.484375 -48.34375 C 18.390625 -48.882812 20.3125 -49.265625 22.25 -49.484375 C 22.351562 -49.484375 22.507812 -49.484375 22.71875 -49.484375 C 22.9375 -49.484375 23.207031 -49.507812 23.53125 -49.5625 Z M 40.21875 -45.21875 C 39.789062 -45.425781 39.359375 -45.53125 38.921875 -45.53125 C 38.222656 -45.644531 37.796875 -45.484375 37.640625 -45.046875 C 37.585938 -44.785156 37.5625 -44.503906 37.5625 -44.203125 C 37.5625 -43.910156 37.613281 -43.707031 37.71875 -43.59375 C 37.9375 -43.21875 38.421875 -42.867188 39.171875 -42.546875 C 39.921875 -42.222656 40.59375 -42.035156 41.1875 -41.984375 C 41.988281 -41.878906 42.390625 -42.175781 42.390625 -42.875 C 42.390625 -43.300781 42.175781 -43.726562 41.75 -44.15625 C 41.320312 -44.59375 40.8125 -44.945312 40.21875 -45.21875 Z M 40.21875 -45.21875 "/></g></g></g><g fill="#6bbdea" fill-opacity="1"><g transform="translate(167.584928, 203.410021)"><g><path d="M 33.359375 -26.671875 C 32.929688 -26.992188 32.582031 -27.019531 32.3125 -26.75 C 32.15625 -26.59375 32.078125 -26.351562 32.078125 -26.03125 C 32.078125 -25.601562 32.289062 -25.101562 32.71875 -24.53125 C 33.144531 -23.96875 33.601562 -23.6875 34.09375 -23.6875 C 34.414062 -23.6875 34.601562 -23.957031 34.65625 -24.5 C 34.707031 -24.820312 34.597656 -25.195312 34.328125 -25.625 C 34.066406 -26.0625 33.742188 -26.410156 33.359375 -26.671875 Z M 29.65625 -29.65625 C 30.84375 -29.875 32.160156 -29.660156 33.609375 -29.015625 C 35.222656 -28.265625 36.429688 -27.109375 37.234375 -25.546875 C 37.503906 -25.222656 37.640625 -24.765625 37.640625 -24.171875 L 37.640625 -23.375 L 36.34375 -20.796875 C 35.4375 -18.960938 34.550781 -17.09375 33.6875 -15.1875 C 32.832031 -13.28125 31.921875 -11.304688 30.953125 -9.265625 C 30.140625 -7.390625 28.875 -4.785156 27.15625 -1.453125 C 26.132812 0.535156 25.460938 2.039062 25.140625 3.0625 C 24.816406 3.707031 24.382812 4.515625 23.84375 5.484375 C 23.3125 6.453125 22.695312 7.550781 22 8.78125 C 21.726562 9.269531 21.457031 9.753906 21.1875 10.234375 C 20.925781 10.710938 20.660156 11.222656 20.390625 11.765625 C 20.066406 12.359375 19.785156 12.851562 19.546875 13.25 C 19.304688 13.65625 19.0625 13.992188 18.8125 14.265625 C 18.570312 14.535156 18.289062 14.765625 17.96875 14.953125 C 17.644531 15.140625 17.242188 15.335938 16.765625 15.546875 L 15.640625 16.03125 L 13.9375 16.03125 C 12.382812 15.976562 11.421875 15.765625 11.046875 15.390625 C 10.828125 15.285156 10.640625 15.234375 10.484375 15.234375 C 10.097656 15.066406 9.691406 14.78125 9.265625 14.375 C 8.835938 13.976562 8.445312 13.535156 8.09375 13.046875 C 7.75 12.566406 7.453125 12.054688 7.203125 11.515625 C 6.960938 10.984375 6.789062 10.503906 6.6875 10.078125 C 6.53125 9.429688 6.53125 8.757812 6.6875 8.0625 C 6.789062 7.632812 7.113281 6.894531 7.65625 5.84375 C 8.195312 4.789062 8.945312 3.488281 9.90625 1.9375 C 10.875 0.320312 11.625 -0.96875 12.15625 -1.9375 C 12.695312 -2.90625 13 -3.519531 13.0625 -3.78125 C 13.0625 -3.78125 12.867188 -3.941406 12.484375 -4.265625 C 11.679688 -4.960938 10.890625 -5.796875 10.109375 -6.765625 C 9.335938 -7.734375 8.597656 -8.863281 7.890625 -10.15625 C 7.304688 -11.28125 6.71875 -12.488281 6.125 -13.78125 C 5.53125 -15.070312 4.910156 -16.46875 4.265625 -17.96875 C 3.941406 -18.78125 3.644531 -19.535156 3.375 -20.234375 C 3.113281 -20.929688 2.847656 -21.570312 2.578125 -22.15625 C 2.304688 -22.75 2.101562 -23.21875 1.96875 -23.5625 C 1.832031 -23.914062 1.738281 -24.175781 1.6875 -24.34375 C 1.476562 -25.09375 1.476562 -25.789062 1.6875 -26.4375 C 1.800781 -26.914062 2.082031 -27.359375 2.53125 -27.765625 C 2.988281 -28.171875 3.515625 -28.519531 4.109375 -28.8125 C 4.703125 -29.101562 5.320312 -29.328125 5.96875 -29.484375 C 6.613281 -29.648438 7.175781 -29.734375 7.65625 -29.734375 C 8.25 -29.734375 8.828125 -29.664062 9.390625 -29.53125 C 9.953125 -29.40625 10.503906 -29.179688 11.046875 -28.859375 C 11.691406 -28.316406 12.765625 -26.328125 14.265625 -22.890625 C 16.140625 -18.703125 17.347656 -16.253906 17.890625 -15.546875 C 18.109375 -15.285156 18.363281 -14.976562 18.65625 -14.625 C 18.945312 -14.28125 19.09375 -14.132812 19.09375 -14.1875 C 19.15625 -14.1875 19.359375 -14.519531 19.703125 -15.1875 C 20.054688 -15.863281 20.445312 -16.578125 20.875 -17.328125 C 22.488281 -20.285156 23.789062 -22.625 24.78125 -24.34375 C 25.78125 -26.0625 26.492188 -27.21875 26.921875 -27.8125 C 27.347656 -28.394531 27.960938 -28.929688 28.765625 -29.421875 C 28.878906 -29.472656 29.03125 -29.507812 29.21875 -29.53125 C 29.40625 -29.5625 29.550781 -29.601562 29.65625 -29.65625 Z M 29.65625 -29.65625 "/></g></g></g><g fill="#6bbdea" fill-opacity="1"><g transform="translate(206.993353, 203.410021)"><g><path d="M 6.28125 -30.546875 C 6.601562 -30.703125 7.195312 -30.703125 8.0625 -30.546875 C 10.3125 -30.492188 12.21875 -29.929688 13.78125 -28.859375 C 14.207031 -28.535156 14.445312 -28.382812 14.5 -28.40625 C 14.5625 -28.4375 14.941406 -28.554688 15.640625 -28.765625 C 16.390625 -28.984375 17.097656 -29.171875 17.765625 -29.328125 C 18.441406 -29.492188 19.15625 -29.628906 19.90625 -29.734375 C 20.28125 -29.785156 20.722656 -29.828125 21.234375 -29.859375 C 21.742188 -29.890625 22.296875 -29.90625 22.890625 -29.90625 C 23.640625 -29.90625 24.363281 -29.863281 25.0625 -29.78125 C 25.757812 -29.695312 26.429688 -29.601562 27.078125 -29.5 C 29.546875 -28.851562 31.289062 -27.535156 32.3125 -25.546875 C 32.582031 -25.171875 32.820312 -24.738281 33.03125 -24.25 C 33.25 -23.769531 33.441406 -23.179688 33.609375 -22.484375 C 33.765625 -22.003906 33.867188 -21.570312 33.921875 -21.1875 C 33.984375 -20.8125 34.039062 -20.46875 34.09375 -20.15625 C 34.144531 -19.5625 34.238281 -18.992188 34.375 -18.453125 C 34.507812 -17.921875 34.550781 -17.195312 34.5 -16.28125 C 34.332031 -13.375 34.257812 -11.007812 34.28125 -9.1875 C 34.3125 -7.363281 34.25 -6.070312 34.09375 -5.3125 C 33.988281 -4.613281 33.828125 -3.898438 33.609375 -3.171875 C 33.390625 -2.453125 33.101562 -1.796875 32.75 -1.203125 C 32.40625 -0.617188 31.9375 -0.15625 31.34375 0.1875 C 30.757812 0.539062 30.035156 0.71875 29.171875 0.71875 C 28.640625 0.71875 28.050781 0.640625 27.40625 0.484375 C 27.082031 0.316406 26.632812 0.15625 26.0625 0 C 25.5 -0.15625 25.113281 -0.425781 24.90625 -0.8125 C 24.800781 -1.070312 24.664062 -1.390625 24.5 -1.765625 C 24.34375 -2.148438 24.234375 -2.582031 24.171875 -3.0625 C 24.117188 -3.488281 24.101562 -4.238281 24.125 -5.3125 C 24.15625 -6.394531 24.203125 -7.796875 24.265625 -9.515625 C 24.265625 -11.015625 24.265625 -12.285156 24.265625 -13.328125 C 24.265625 -14.378906 24.25 -15.296875 24.21875 -16.078125 C 24.1875 -16.859375 24.117188 -17.503906 24.015625 -18.015625 C 23.910156 -18.523438 23.75 -18.992188 23.53125 -19.421875 C 23.257812 -20.015625 22.945312 -20.40625 22.59375 -20.59375 C 22.25 -20.78125 21.703125 -20.898438 20.953125 -20.953125 C 20.035156 -20.953125 19.066406 -20.738281 18.046875 -20.3125 C 17.566406 -20.039062 17.097656 -19.769531 16.640625 -19.5 C 16.179688 -19.226562 15.816406 -18.929688 15.546875 -18.609375 L 15.078125 -18.375 L 15.078125 -2.421875 L 14.90625 -1.9375 C 14.632812 -1.289062 14.148438 -0.78125 13.453125 -0.40625 C 12.972656 -0.0820312 12.367188 0.144531 11.640625 0.28125 C 10.921875 0.414062 10.238281 0.484375 9.59375 0.484375 C 8.195312 0.484375 6.894531 0.269531 5.6875 -0.15625 C 4.476562 -0.59375 3.679688 -1.585938 3.296875 -3.140625 C 3.242188 -3.410156 3.21875 -4.125 3.21875 -5.28125 C 3.21875 -6.4375 3.21875 -8.140625 3.21875 -10.390625 C 3.21875 -12.597656 3.21875 -14.375 3.21875 -15.71875 C 3.21875 -17.0625 3.242188 -18.023438 3.296875 -18.609375 C 3.410156 -19.148438 3.46875 -19.847656 3.46875 -20.703125 C 3.46875 -21.566406 3.492188 -22.617188 3.546875 -23.859375 C 3.597656 -25.304688 3.648438 -26.472656 3.703125 -27.359375 C 3.753906 -28.242188 3.835938 -28.820312 3.953125 -29.09375 C 4.054688 -29.257812 4.148438 -29.40625 4.234375 -29.53125 C 4.316406 -29.664062 4.410156 -29.789062 4.515625 -29.90625 C 4.890625 -30.28125 5.476562 -30.492188 6.28125 -30.546875 Z M 26.59375 -28.046875 C 25.945312 -28.046875 25.8125 -27.695312 26.1875 -27 C 26.40625 -26.726562 26.863281 -26.378906 27.5625 -25.953125 C 28.257812 -25.523438 28.90625 -25.253906 29.5 -25.140625 C 30.03125 -25.085938 30.296875 -25.222656 30.296875 -25.546875 C 30.296875 -26.296875 29.851562 -26.898438 28.96875 -27.359375 C 28.082031 -27.816406 27.289062 -28.046875 26.59375 -28.046875 Z M 26.59375 -28.046875 "/></g></g></g><g fill="#6bbdea" fill-opacity="1"><g transform="translate(244.789982, 203.410021)"><g><path d="M 11.6875 -43.6875 C 11.957031 -43.738281 12.222656 -43.773438 12.484375 -43.796875 C 12.753906 -43.828125 13.078125 -43.84375 13.453125 -43.84375 C 14.796875 -43.789062 16.046875 -43.628906 17.203125 -43.359375 C 18.359375 -43.085938 19.367188 -42.65625 20.234375 -42.0625 C 20.492188 -41.90625 20.675781 -41.648438 20.78125 -41.296875 C 20.894531 -40.953125 21.003906 -40.644531 21.109375 -40.375 C 21.378906 -39.519531 21.460938 -38.394531 21.359375 -37 C 21.359375 -36.882812 21.359375 -36.722656 21.359375 -36.515625 C 21.410156 -36.191406 21.410156 -35.734375 21.359375 -35.140625 C 21.359375 -34.816406 21.359375 -34.519531 21.359375 -34.25 C 21.359375 -33.976562 21.304688 -33.710938 21.203125 -33.453125 C 21.140625 -32.804688 21.09375 -32.226562 21.0625 -31.71875 C 21.039062 -31.207031 21.03125 -30.734375 21.03125 -30.296875 L 21.03125 -29.25 L 21.203125 -29.015625 C 21.253906 -29.015625 21.46875 -29 21.84375 -28.96875 C 22.21875 -28.945312 22.660156 -28.921875 23.171875 -28.890625 C 23.679688 -28.867188 24.226562 -28.859375 24.8125 -28.859375 C 25.40625 -28.859375 25.945312 -28.859375 26.4375 -28.859375 C 28.257812 -28.796875 29.414062 -28.660156 29.90625 -28.453125 C 31.300781 -27.960938 32.023438 -27.046875 32.078125 -25.703125 C 32.128906 -24.253906 31.859375 -23.179688 31.265625 -22.484375 C 30.460938 -21.679688 29.28125 -21.171875 27.71875 -20.953125 C 27.132812 -20.796875 26.367188 -20.660156 25.421875 -20.546875 C 24.484375 -20.441406 23.078125 -20.363281 21.203125 -20.3125 L 20.625 -20.234375 L 20.46875 -18.609375 C 20.3125 -17.210938 20.148438 -15.960938 19.984375 -14.859375 C 19.828125 -13.765625 19.75 -12.757812 19.75 -11.84375 C 19.75 -10.9375 19.921875 -10.101562 20.265625 -9.34375 C 20.617188 -8.59375 21.332031 -8.21875 22.40625 -8.21875 C 23.320312 -8.21875 24.929688 -8.617188 27.234375 -9.421875 C 28.097656 -9.742188 28.851562 -9.742188 29.5 -9.421875 C 29.820312 -9.316406 30.179688 -9.078125 30.578125 -8.703125 C 30.984375 -8.328125 31.269531 -8.03125 31.4375 -7.8125 C 31.488281 -7.707031 31.515625 -7.570312 31.515625 -7.40625 C 31.515625 -7.25 31.539062 -7.035156 31.59375 -6.765625 L 31.59375 -6.046875 L 31.109375 -5.5625 C 30.410156 -4.863281 29.75 -4.21875 29.125 -3.625 C 28.507812 -3.03125 27.828125 -2.492188 27.078125 -2.015625 C 26.546875 -1.742188 26.035156 -1.5 25.546875 -1.28125 C 25.066406 -1.070312 24.53125 -0.859375 23.9375 -0.640625 C 22.96875 -0.367188 22.132812 -0.128906 21.4375 0.078125 C 20.738281 0.296875 20.175781 0.429688 19.75 0.484375 C 19.101562 0.535156 18.109375 0.535156 16.765625 0.484375 C 16.066406 0.429688 15.515625 0.375 15.109375 0.3125 C 14.703125 0.257812 14.367188 0.207031 14.109375 0.15625 C 10.554688 -0.695312 8.296875 -3.410156 7.328125 -7.984375 C 7.066406 -8.890625 6.867188 -10.117188 6.734375 -11.671875 C 6.597656 -13.234375 6.472656 -15.117188 6.359375 -17.328125 C 6.304688 -18.179688 6.253906 -18.835938 6.203125 -19.296875 C 6.148438 -19.753906 6.097656 -20.066406 6.046875 -20.234375 C 5.828125 -20.441406 5.421875 -20.570312 4.828125 -20.625 C 3.429688 -20.945312 2.46875 -21.539062 1.9375 -22.40625 C 1.820312 -22.726562 1.710938 -23.347656 1.609375 -24.265625 C 1.453125 -25.492188 1.492188 -26.414062 1.734375 -27.03125 C 1.972656 -27.65625 2.46875 -28.128906 3.21875 -28.453125 C 3.382812 -28.503906 3.664062 -28.582031 4.0625 -28.6875 C 4.46875 -28.800781 4.882812 -28.921875 5.3125 -29.046875 C 5.75 -29.179688 6.128906 -29.316406 6.453125 -29.453125 C 6.773438 -29.585938 6.960938 -29.679688 7.015625 -29.734375 C 7.222656 -30.003906 7.359375 -30.785156 7.421875 -32.078125 C 7.523438 -33.472656 7.707031 -35.148438 7.96875 -37.109375 C 8.238281 -39.078125 8.671875 -40.675781 9.265625 -41.90625 C 9.640625 -42.769531 10.445312 -43.363281 11.6875 -43.6875 Z M 18.9375 -40.53125 C 18.78125 -40.800781 18.523438 -41.054688 18.171875 -41.296875 C 17.828125 -41.546875 17.4375 -41.671875 17 -41.671875 C 16.675781 -41.671875 16.351562 -41.585938 16.03125 -41.421875 C 15.707031 -41.367188 15.546875 -41.289062 15.546875 -41.1875 C 15.546875 -41.019531 15.828125 -40.757812 16.390625 -40.40625 C 16.960938 -40.0625 17.4375 -39.785156 17.8125 -39.578125 C 18.34375 -39.359375 18.71875 -39.359375 18.9375 -39.578125 C 18.988281 -39.628906 19.015625 -39.757812 19.015625 -39.96875 C 19.015625 -40.1875 18.988281 -40.375 18.9375 -40.53125 Z M 18.9375 -40.53125 "/></g></g></g><g fill="#6bbdea" fill-opacity="1"><g transform="translate(278.557123, 203.410021)"><g><path d="M 17.40625 -29.578125 C 18.476562 -29.578125 19.457031 -29.398438 20.34375 -29.046875 C 21.238281 -28.703125 22.140625 -28.234375 23.046875 -27.640625 L 24.09375 -27.15625 L 24.828125 -27.8125 C 25.847656 -28.664062 27.351562 -29.09375 29.34375 -29.09375 C 29.925781 -29.09375 30.566406 -29.050781 31.265625 -28.96875 C 31.960938 -28.894531 32.644531 -28.757812 33.3125 -28.5625 C 33.988281 -28.375 34.59375 -28.09375 35.125 -27.71875 C 35.664062 -27.34375 36.046875 -26.832031 36.265625 -26.1875 C 36.316406 -26.03125 36.34375 -23.265625 36.34375 -17.890625 C 36.34375 -10.847656 36.453125 -7.113281 36.671875 -6.6875 C 36.773438 -6.582031 36.882812 -5.644531 37 -3.875 L 37.078125 -1.453125 L 36.671875 -1.203125 C 36.023438 -0.617188 35.003906 -0.0546875 33.609375 0.484375 C 32.097656 1.023438 30.617188 1.1875 29.171875 0.96875 C 28.472656 0.75 27.988281 0.476562 27.71875 0.15625 C 27.457031 -0.164062 27.03125 -0.78125 26.4375 -1.6875 C 26.21875 -2.007812 25.972656 -2.375 25.703125 -2.78125 C 25.441406 -3.1875 25.09375 -3.65625 24.65625 -4.1875 C 24.5 -4.40625 24.234375 -4.515625 23.859375 -4.515625 C 23.265625 -4.410156 22.484375 -4.085938 21.515625 -3.546875 C 20.710938 -3.003906 20.015625 -2.570312 19.421875 -2.25 C 18.828125 -1.925781 18.34375 -1.660156 17.96875 -1.453125 C 16.789062 -0.960938 15.582031 -0.554688 14.34375 -0.234375 C 14.070312 -0.179688 13.773438 -0.140625 13.453125 -0.109375 C 13.128906 -0.0859375 12.804688 -0.078125 12.484375 -0.078125 C 10.234375 -0.078125 8.4375 -0.773438 7.09375 -2.171875 C 5.75 -3.566406 4.675781 -5.257812 3.875 -7.25 C 3.113281 -9.289062 2.640625 -11.382812 2.453125 -13.53125 C 2.265625 -15.6875 2.441406 -17.921875 2.984375 -20.234375 C 3.304688 -21.734375 3.976562 -23.0625 5 -24.21875 C 6.019531 -25.375 7.226562 -26.351562 8.625 -27.15625 C 10.019531 -27.96875 11.492188 -28.570312 13.046875 -28.96875 C 14.609375 -29.375 16.0625 -29.578125 17.40625 -29.578125 Z M 32.078125 -27.15625 C 31.859375 -27.207031 31.65625 -27.25 31.46875 -27.28125 C 31.28125 -27.3125 31.050781 -27.351562 30.78125 -27.40625 L 29.90625 -27.40625 L 29.90625 -26.921875 C 29.90625 -26.328125 30.09375 -25.828125 30.46875 -25.421875 C 30.84375 -25.023438 31.242188 -24.828125 31.671875 -24.828125 C 31.992188 -24.828125 32.367188 -24.988281 32.796875 -25.3125 C 33.234375 -25.632812 33.453125 -25.898438 33.453125 -26.109375 C 33.453125 -26.535156 32.992188 -26.882812 32.078125 -27.15625 Z M 23.6875 -20.234375 C 23.582031 -20.335938 22.832031 -20.148438 21.4375 -19.671875 C 17.300781 -18.429688 14.859375 -17.4375 14.109375 -16.6875 C 13.191406 -15.925781 12.734375 -14.660156 12.734375 -12.890625 C 12.835938 -10.316406 13.484375 -8.785156 14.671875 -8.296875 C 14.941406 -8.191406 15.234375 -8.140625 15.546875 -8.140625 C 15.867188 -8.140625 16.164062 -8.140625 16.4375 -8.140625 C 17.625 -8.140625 18.847656 -8.460938 20.109375 -9.109375 C 21.367188 -9.753906 22.457031 -10.453125 23.375 -11.203125 L 24.171875 -11.84375 L 24.171875 -12.96875 C 24.171875 -13.9375 24.144531 -14.90625 24.09375 -15.875 C 24.039062 -16.84375 23.960938 -17.863281 23.859375 -18.9375 C 23.804688 -19.15625 23.78125 -19.34375 23.78125 -19.5 C 23.78125 -19.664062 23.75 -19.800781 23.6875 -19.90625 C 23.6875 -20.007812 23.6875 -20.117188 23.6875 -20.234375 Z M 23.6875 -20.234375 "/></g></g></g><g fill="#6bbdea" fill-opacity="1"><g transform="translate(318.932608, 203.410021)"><g><path d="M 8.546875 -29.5 C 9.128906 -29.5 9.691406 -29.347656 10.234375 -29.046875 C 10.773438 -28.753906 11.300781 -28.378906 11.8125 -27.921875 C 12.320312 -27.460938 12.789062 -26.992188 13.21875 -26.515625 C 13.644531 -26.035156 14.019531 -25.601562 14.34375 -25.21875 C 14.613281 -24.957031 14.867188 -24.691406 15.109375 -24.421875 C 15.347656 -24.148438 15.601562 -23.90625 15.875 -23.6875 L 16.4375 -23.21875 L 17.078125 -23.6875 C 17.617188 -24.28125 18.195312 -24.875 18.8125 -25.46875 C 19.4375 -26.0625 20.203125 -26.679688 21.109375 -27.328125 L 22.734375 -28.53125 L 24.015625 -29.015625 C 24.929688 -29.285156 25.441406 -29.421875 25.546875 -29.421875 C 26.671875 -29.421875 27.800781 -28.960938 28.9375 -28.046875 C 29.09375 -27.941406 29.316406 -27.738281 29.609375 -27.4375 C 29.910156 -27.144531 30.273438 -26.8125 30.703125 -26.4375 C 31.453125 -25.6875 31.90625 -25.09375 32.0625 -24.65625 C 32.226562 -24.226562 32.3125 -23.878906 32.3125 -23.609375 C 32.3125 -22.960938 32.097656 -22.367188 31.671875 -21.828125 C 31.242188 -21.296875 30.492188 -20.441406 29.421875 -19.265625 C 27.535156 -17.273438 26.429688 -16.007812 26.109375 -15.46875 C 25.835938 -14.769531 26 -13.992188 26.59375 -13.140625 C 27.019531 -12.597656 27.488281 -11.976562 28 -11.28125 C 28.507812 -10.582031 29.085938 -9.859375 29.734375 -9.109375 C 30.328125 -8.359375 30.878906 -7.601562 31.390625 -6.84375 C 31.898438 -6.09375 32.316406 -5.34375 32.640625 -4.59375 L 32.96875 -3.78125 L 32.796875 -3.140625 C 32.585938 -1.847656 32.007812 -0.878906 31.0625 -0.234375 C 30.125 0.398438 29.039062 0.71875 27.8125 0.71875 C 26.84375 0.71875 25.976562 0.34375 25.21875 -0.40625 C 22.914062 -2.445312 21.066406 -4.515625 19.671875 -6.609375 C 19.554688 -6.765625 19.421875 -6.925781 19.265625 -7.09375 L 19.09375 -7.328125 C 19.09375 -7.328125 18.421875 -6.710938 17.078125 -5.484375 C 15.523438 -3.972656 14.144531 -2.734375 12.9375 -1.765625 C 11.726562 -0.804688 10.664062 -0.0820312 9.75 0.40625 C 9.476562 0.507812 9.128906 0.570312 8.703125 0.59375 C 8.273438 0.625 7.898438 0.585938 7.578125 0.484375 C 6.878906 0.160156 6.300781 -0.171875 5.84375 -0.515625 C 5.382812 -0.867188 4.890625 -1.367188 4.359375 -2.015625 C 4.242188 -2.117188 4 -2.425781 3.625 -2.9375 C 3.25 -3.445312 2.847656 -4.109375 2.421875 -4.921875 C 2.148438 -5.503906 1.988281 -6.09375 1.9375 -6.6875 C 1.882812 -7.28125 2.046875 -7.789062 2.421875 -8.21875 L 6.53125 -12.328125 L 10.953125 -16.765625 L 10.3125 -17.8125 C 9.882812 -18.40625 9.359375 -19.085938 8.734375 -19.859375 C 8.117188 -20.640625 7.195312 -21.757812 5.96875 -23.21875 C 5.425781 -23.914062 5.046875 -24.613281 4.828125 -25.3125 C 4.347656 -26.8125 4.566406 -27.859375 5.484375 -28.453125 C 5.859375 -28.773438 6.335938 -29.03125 6.921875 -29.21875 C 7.515625 -29.40625 8.054688 -29.5 8.546875 -29.5 Z M 27.328125 -27.890625 C 26.679688 -28.046875 26.195312 -28.019531 25.875 -27.8125 C 25.601562 -27.539062 25.640625 -27.203125 25.984375 -26.796875 C 26.335938 -26.390625 26.8125 -26.023438 27.40625 -25.703125 C 27.78125 -25.492188 28.070312 -25.414062 28.28125 -25.46875 C 28.820312 -25.6875 29.066406 -26.007812 29.015625 -26.4375 C 28.960938 -26.59375 28.734375 -26.859375 28.328125 -27.234375 C 27.921875 -27.617188 27.585938 -27.835938 27.328125 -27.890625 Z M 27.328125 -27.890625 "/></g></g></g></svg>