<svg xmlns="http://www.w3.org/2000/svg" xmlns:xlink="http://www.w3.org/1999/xlink" width="100" zoomAndPan="magnify" viewBox="0 0 75 30.000001" height="40" preserveAspectRatio="xMidYMid meet" version="1.0"><defs><g/><clipPath id="ac21a5a080"><path d="M 53.71875 9.886719 L 68.238281 9.886719 L 68.238281 12.789062 L 53.71875 12.789062 Z M 53.71875 9.886719 " clip-rule="nonzero"/></clipPath><clipPath id="6019bf085b"><path d="M 24.277344 13 L 26 13 L 26 14.167969 L 24.277344 14.167969 Z M 24.277344 13 " clip-rule="nonzero"/></clipPath><clipPath id="7932f34d1c"><path d="M 24.277344 12 L 26 12 L 26 13 L 24.277344 13 Z M 24.277344 12 " clip-rule="nonzero"/></clipPath><clipPath id="72d9f9157d"><path d="M 26 9 L 27.90625 9 L 27.90625 11 L 26 11 Z M 26 9 " clip-rule="nonzero"/></clipPath><clipPath id="91e255336a"><path d="M 24.277344 10 L 26 10 L 26 12 L 24.277344 12 Z M 24.277344 10 " clip-rule="nonzero"/></clipPath><clipPath id="8fab18b400"><path d="M 27 8.363281 L 27.90625 8.363281 L 27.90625 10 L 27 10 Z M 27 8.363281 " clip-rule="nonzero"/></clipPath></defs><g fill="#6bbdea" fill-opacity="1"><g transform="translate(5.591395, 18.861937)"><g><path d="M 1.3125 -5.5 C 1.375 -5.519531 1.457031 -5.53125 1.5625 -5.53125 C 1.664062 -5.53125 1.78125 -5.53125 1.90625 -5.53125 L 2.328125 -5.53125 L 2.390625 -5.484375 C 2.460938 -5.429688 2.523438 -5.378906 2.578125 -5.328125 C 2.640625 -5.285156 2.679688 -5.242188 2.703125 -5.203125 C 2.710938 -5.179688 2.722656 -5.144531 2.734375 -5.09375 C 2.742188 -5.039062 2.757812 -4.976562 2.78125 -4.90625 L 2.8125 -4.640625 L 2.8125 -1.890625 L 2.875 -1.84375 C 2.894531 -1.820312 2.941406 -1.800781 3.015625 -1.78125 C 3.097656 -1.769531 3.195312 -1.757812 3.3125 -1.75 C 3.476562 -1.726562 3.59375 -1.726562 3.65625 -1.75 C 3.914062 -1.800781 4.128906 -1.894531 4.296875 -2.03125 C 4.460938 -2.175781 4.582031 -2.382812 4.65625 -2.65625 C 4.78125 -3.070312 4.703125 -3.429688 4.421875 -3.734375 C 4.179688 -3.941406 3.898438 -4.023438 3.578125 -3.984375 C 3.460938 -3.972656 3.367188 -3.984375 3.296875 -4.015625 C 3.117188 -4.054688 3.003906 -4.203125 2.953125 -4.453125 C 2.941406 -4.492188 2.921875 -4.597656 2.890625 -4.765625 C 2.859375 -4.929688 2.859375 -5.078125 2.890625 -5.203125 L 2.9375 -5.359375 L 3.140625 -5.421875 C 3.441406 -5.503906 3.765625 -5.546875 4.109375 -5.546875 C 4.335938 -5.546875 4.566406 -5.519531 4.796875 -5.46875 C 5.035156 -5.425781 5.257812 -5.347656 5.46875 -5.234375 C 5.6875 -5.128906 5.882812 -5 6.0625 -4.84375 C 6.238281 -4.6875 6.378906 -4.503906 6.484375 -4.296875 C 6.585938 -4.085938 6.660156 -3.859375 6.703125 -3.609375 C 6.753906 -3.367188 6.769531 -3.101562 6.75 -2.8125 C 6.738281 -2.539062 6.695312 -2.269531 6.625 -2 C 6.5625 -1.738281 6.460938 -1.488281 6.328125 -1.25 C 6.191406 -1.019531 6.023438 -0.816406 5.828125 -0.640625 C 5.628906 -0.460938 5.398438 -0.332031 5.140625 -0.25 C 4.859375 -0.15625 4.363281 -0.109375 3.65625 -0.109375 L 3.03125 -0.109375 L 3.015625 -0.015625 C 2.984375 0.0664062 2.960938 0.191406 2.953125 0.359375 C 2.941406 0.523438 2.9375 0.738281 2.9375 1 C 2.9375 1.644531 2.921875 2.078125 2.890625 2.296875 C 2.878906 2.398438 2.800781 2.519531 2.65625 2.65625 C 2.550781 2.738281 2.441406 2.789062 2.328125 2.8125 C 2.210938 2.832031 2.007812 2.84375 1.71875 2.84375 C 1.425781 2.832031 1.1875 2.785156 1 2.703125 C 0.820312 2.628906 0.710938 2.429688 0.671875 2.109375 C 0.660156 2.054688 0.65625 1.910156 0.65625 1.671875 C 0.65625 1.441406 0.65625 1.132812 0.65625 0.75 C 0.65625 0.332031 0.65625 -0.00390625 0.65625 -0.265625 C 0.664062 -0.523438 0.675781 -0.722656 0.6875 -0.859375 C 0.695312 -1.015625 0.703125 -1.210938 0.703125 -1.453125 C 0.703125 -1.703125 0.703125 -2.003906 0.703125 -2.359375 C 0.703125 -2.703125 0.703125 -2.976562 0.703125 -3.1875 C 0.710938 -3.394531 0.722656 -3.546875 0.734375 -3.640625 C 0.765625 -3.898438 0.78125 -4.148438 0.78125 -4.390625 C 0.789062 -4.628906 0.789062 -4.859375 0.78125 -5.078125 C 0.78125 -5.210938 0.828125 -5.3125 0.921875 -5.375 C 1.015625 -5.445312 1.144531 -5.488281 1.3125 -5.5 Z M 5.28125 -5.09375 C 5.175781 -5.125 5.085938 -5.140625 5.015625 -5.140625 C 4.910156 -5.140625 4.832031 -5.113281 4.78125 -5.0625 L 4.765625 -5.015625 L 4.890625 -4.9375 C 5.066406 -4.820312 5.265625 -4.722656 5.484375 -4.640625 C 5.515625 -4.628906 5.539062 -4.617188 5.5625 -4.609375 C 5.59375 -4.609375 5.625 -4.613281 5.65625 -4.625 C 5.726562 -4.65625 5.753906 -4.703125 5.734375 -4.765625 C 5.679688 -4.910156 5.53125 -5.019531 5.28125 -5.09375 Z M 5.28125 -5.09375 "/></g></g></g><g fill="#6bbdea" fill-opacity="1"><g transform="translate(12.658311, 18.861937)"><g><path d="M 1.703125 -5.59375 C 1.898438 -5.59375 2.125 -5.578125 2.375 -5.546875 C 2.632812 -5.523438 2.84375 -5.4375 3 -5.28125 L 3.046875 -5.21875 L 3.21875 -5.25 C 3.25 -5.257812 3.296875 -5.273438 3.359375 -5.296875 C 3.421875 -5.316406 3.492188 -5.335938 3.578125 -5.359375 C 3.878906 -5.472656 4.132812 -5.53125 4.34375 -5.53125 C 4.53125 -5.53125 4.644531 -5.519531 4.6875 -5.5 C 4.9375 -5.46875 5.097656 -5.414062 5.171875 -5.34375 C 5.242188 -5.28125 5.300781 -5.164062 5.34375 -5 C 5.375 -4.84375 5.351562 -4.648438 5.28125 -4.421875 L 5.25 -4.296875 L 5.125 -4.234375 C 4.988281 -4.171875 4.859375 -4.117188 4.734375 -4.078125 C 4.617188 -4.035156 4.507812 -3.992188 4.40625 -3.953125 C 4.363281 -3.941406 4.28125 -3.914062 4.15625 -3.875 C 4.039062 -3.84375 3.921875 -3.800781 3.796875 -3.75 C 3.671875 -3.695312 3.554688 -3.644531 3.453125 -3.59375 C 3.347656 -3.550781 3.285156 -3.519531 3.265625 -3.5 C 3.273438 -3.488281 3.265625 -3.429688 3.234375 -3.328125 C 3.203125 -3.222656 3.179688 -3.070312 3.171875 -2.875 C 3.160156 -2.769531 3.15625 -2.625 3.15625 -2.4375 C 3.164062 -2.25 3.171875 -2.015625 3.171875 -1.734375 C 3.179688 -1.390625 3.175781 -1.117188 3.15625 -0.921875 C 3.144531 -0.734375 3.128906 -0.585938 3.109375 -0.484375 C 3.046875 -0.242188 2.921875 -0.0820312 2.734375 0 C 2.554688 0.0820312 2.351562 0.125 2.125 0.125 C 1.945312 0.125 1.773438 0.113281 1.609375 0.09375 C 1.453125 0.0820312 1.304688 0.0507812 1.171875 0 C 1.046875 -0.0625 0.9375 -0.144531 0.84375 -0.25 C 0.75 -0.363281 0.6875 -0.519531 0.65625 -0.71875 C 0.632812 -0.78125 0.617188 -0.894531 0.609375 -1.0625 C 0.609375 -1.226562 0.613281 -1.460938 0.625 -1.765625 C 0.625 -1.929688 0.625 -2.109375 0.625 -2.296875 C 0.625 -2.492188 0.632812 -2.707031 0.65625 -2.9375 C 0.675781 -3.59375 0.6875 -4.09375 0.6875 -4.4375 C 0.695312 -4.789062 0.710938 -4.988281 0.734375 -5.03125 C 0.765625 -5.175781 0.816406 -5.273438 0.890625 -5.328125 C 0.960938 -5.390625 1.101562 -5.445312 1.3125 -5.5 C 1.414062 -5.550781 1.546875 -5.582031 1.703125 -5.59375 Z M 2.328125 -5.34375 C 2.242188 -5.363281 2.164062 -5.367188 2.09375 -5.359375 C 2.019531 -5.359375 1.988281 -5.332031 2 -5.28125 C 2.019531 -5.195312 2.066406 -5.132812 2.140625 -5.09375 C 2.210938 -5.0625 2.296875 -5.019531 2.390625 -4.96875 C 2.441406 -4.96875 2.484375 -4.976562 2.515625 -5 C 2.535156 -5.039062 2.546875 -5.082031 2.546875 -5.125 C 2.546875 -5.1875 2.519531 -5.234375 2.46875 -5.265625 C 2.425781 -5.296875 2.378906 -5.320312 2.328125 -5.34375 Z M 2.328125 -5.34375 "/></g></g></g><g fill="#6bbdea" fill-opacity="1"><g transform="translate(18.132898, 18.861937)"><g><path d="M 3.46875 -5.609375 L 4.546875 -5.609375 L 4.734375 -5.546875 C 5.140625 -5.441406 5.425781 -5.332031 5.59375 -5.21875 C 5.71875 -5.144531 5.820312 -5.066406 5.90625 -4.984375 C 6 -4.910156 6.085938 -4.828125 6.171875 -4.734375 C 6.503906 -4.285156 6.664062 -3.675781 6.65625 -2.90625 C 6.644531 -2.59375 6.597656 -2.289062 6.515625 -2 C 6.441406 -1.707031 6.328125 -1.429688 6.171875 -1.171875 C 6.023438 -0.921875 5.832031 -0.703125 5.59375 -0.515625 C 5.363281 -0.335938 5.09375 -0.195312 4.78125 -0.09375 C 4.726562 -0.0703125 4.660156 -0.0507812 4.578125 -0.03125 C 4.492188 -0.0195312 4.394531 -0.00390625 4.28125 0.015625 L 3.921875 0.109375 L 3.453125 0.109375 C 2.546875 0.109375 1.820312 -0.0976562 1.28125 -0.515625 C 0.75 -0.941406 0.472656 -1.632812 0.453125 -2.59375 C 0.421875 -3.6875 0.722656 -4.53125 1.359375 -5.125 C 1.484375 -5.238281 1.59375 -5.328125 1.6875 -5.390625 C 1.78125 -5.453125 1.878906 -5.488281 1.984375 -5.5 C 2.003906 -5.519531 2.039062 -5.523438 2.09375 -5.515625 C 2.15625 -5.503906 2.226562 -5.492188 2.3125 -5.484375 L 2.546875 -5.484375 L 2.78125 -5.53125 C 2.894531 -5.550781 3.007812 -5.566406 3.125 -5.578125 C 3.25 -5.585938 3.363281 -5.597656 3.46875 -5.609375 Z M 5.09375 -5.15625 C 4.90625 -5.28125 4.800781 -5.25 4.78125 -5.0625 C 4.78125 -5.03125 4.789062 -5.003906 4.8125 -4.984375 C 4.832031 -4.972656 4.867188 -4.941406 4.921875 -4.890625 C 5.015625 -4.804688 5.09375 -4.75 5.15625 -4.71875 C 5.21875 -4.695312 5.316406 -4.6875 5.453125 -4.6875 C 5.492188 -4.707031 5.503906 -4.738281 5.484375 -4.78125 C 5.460938 -4.832031 5.40625 -4.90625 5.3125 -5 C 5.257812 -5.039062 5.21875 -5.070312 5.1875 -5.09375 C 5.15625 -5.113281 5.125 -5.132812 5.09375 -5.15625 Z M 3.890625 -4.09375 C 3.734375 -4.125 3.578125 -4.128906 3.421875 -4.109375 C 3.273438 -4.097656 3.128906 -4.066406 2.984375 -4.015625 C 2.960938 -4.003906 2.9375 -3.976562 2.90625 -3.9375 C 2.875 -3.894531 2.832031 -3.835938 2.78125 -3.765625 C 2.738281 -3.703125 2.695312 -3.632812 2.65625 -3.5625 C 2.613281 -3.488281 2.582031 -3.425781 2.5625 -3.375 C 2.457031 -3.144531 2.414062 -2.894531 2.4375 -2.625 C 2.4375 -2.375 2.488281 -2.132812 2.59375 -1.90625 C 2.707031 -1.6875 2.90625 -1.550781 3.1875 -1.5 C 3.300781 -1.46875 3.40625 -1.453125 3.5 -1.453125 C 3.75 -1.453125 3.945312 -1.492188 4.09375 -1.578125 C 4.25 -1.660156 4.367188 -1.769531 4.453125 -1.90625 C 4.535156 -2.039062 4.59375 -2.195312 4.625 -2.375 C 4.65625 -2.550781 4.671875 -2.738281 4.671875 -2.9375 C 4.671875 -3.25 4.628906 -3.472656 4.546875 -3.609375 C 4.484375 -3.742188 4.394531 -3.851562 4.28125 -3.9375 C 4.164062 -4.019531 4.035156 -4.070312 3.890625 -4.09375 Z M 3.890625 -4.09375 "/></g></g></g><g fill="#6bbdea" fill-opacity="1"><g transform="translate(25.245311, 18.861937)"><g><path d="M 4.4375 -9.328125 C 4.519531 -9.347656 4.707031 -9.347656 5 -9.328125 C 5.164062 -9.316406 5.296875 -9.3125 5.390625 -9.3125 C 5.492188 -9.3125 5.566406 -9.304688 5.609375 -9.296875 C 6.003906 -9.242188 6.421875 -9.160156 6.859375 -9.046875 C 7.296875 -8.929688 7.679688 -8.757812 8.015625 -8.53125 C 8.304688 -8.289062 8.453125 -8.046875 8.453125 -7.796875 C 8.453125 -7.578125 8.34375 -7.375 8.125 -7.1875 C 8.039062 -7.101562 7.9375 -7.03125 7.8125 -6.96875 C 7.695312 -6.90625 7.570312 -6.875 7.4375 -6.875 C 7.351562 -6.875 7.253906 -6.894531 7.140625 -6.9375 C 7.035156 -6.976562 6.910156 -7.03125 6.765625 -7.09375 C 6.535156 -7.226562 6.316406 -7.332031 6.109375 -7.40625 C 5.910156 -7.488281 5.722656 -7.535156 5.546875 -7.546875 C 5.410156 -7.566406 5.265625 -7.566406 5.109375 -7.546875 C 4.648438 -7.484375 4.269531 -7.3125 3.96875 -7.03125 C 3.71875 -6.769531 3.632812 -6.503906 3.71875 -6.234375 C 3.757812 -6.046875 3.875 -5.894531 4.0625 -5.78125 C 4.257812 -5.675781 4.441406 -5.609375 4.609375 -5.578125 C 4.660156 -5.566406 4.703125 -5.554688 4.734375 -5.546875 C 4.773438 -5.546875 4.8125 -5.539062 4.84375 -5.53125 C 4.863281 -5.507812 4.898438 -5.5 4.953125 -5.5 C 5.003906 -5.5 5.082031 -5.492188 5.1875 -5.484375 C 5.445312 -5.460938 5.722656 -5.410156 6.015625 -5.328125 C 6.316406 -5.253906 6.601562 -5.15625 6.875 -5.03125 C 7.144531 -4.90625 7.398438 -4.753906 7.640625 -4.578125 C 7.890625 -4.398438 8.09375 -4.203125 8.25 -3.984375 C 8.40625 -3.765625 8.515625 -3.445312 8.578125 -3.03125 C 8.597656 -2.851562 8.585938 -2.679688 8.546875 -2.515625 C 8.515625 -2.347656 8.460938 -2.179688 8.390625 -2.015625 C 8.222656 -1.660156 7.976562 -1.332031 7.65625 -1.03125 C 7.34375 -0.726562 6.9375 -0.460938 6.4375 -0.234375 C 6.15625 -0.0976562 5.820312 -0.00390625 5.4375 0.046875 C 5.0625 0.109375 4.722656 0.140625 4.421875 0.140625 C 3.867188 0.140625 3.332031 0.0976562 2.8125 0.015625 C 2.289062 -0.0664062 1.773438 -0.210938 1.265625 -0.421875 C 0.910156 -0.566406 0.691406 -0.726562 0.609375 -0.90625 C 0.566406 -1 0.539062 -1.101562 0.53125 -1.21875 C 0.519531 -1.332031 0.539062 -1.460938 0.59375 -1.609375 C 0.664062 -1.816406 0.78125 -1.988281 0.9375 -2.125 C 1.101562 -2.257812 1.300781 -2.328125 1.53125 -2.328125 C 1.6875 -2.328125 1.859375 -2.296875 2.046875 -2.234375 C 2.378906 -2.160156 2.6875 -2.097656 2.96875 -2.046875 C 3.25 -2.003906 3.503906 -1.976562 3.734375 -1.96875 C 4.554688 -1.945312 5.125 -2.132812 5.4375 -2.53125 C 5.507812 -2.625 5.5625 -2.738281 5.59375 -2.875 C 5.625 -3.019531 5.613281 -3.132812 5.5625 -3.21875 C 5.425781 -3.4375 5.253906 -3.59375 5.046875 -3.6875 C 4.847656 -3.789062 4.625 -3.867188 4.375 -3.921875 C 3.789062 -4.046875 3.300781 -4.164062 2.90625 -4.28125 C 2.519531 -4.40625 2.207031 -4.523438 1.96875 -4.640625 C 1.3125 -4.960938 0.9375 -5.460938 0.84375 -6.140625 C 0.8125 -6.398438 0.828125 -6.671875 0.890625 -6.953125 C 0.972656 -7.359375 1.117188 -7.703125 1.328125 -7.984375 C 1.546875 -8.265625 1.804688 -8.492188 2.109375 -8.671875 C 2.410156 -8.859375 2.738281 -9 3.09375 -9.09375 C 3.457031 -9.195312 3.820312 -9.269531 4.1875 -9.3125 C 4.207031 -9.3125 4.238281 -9.3125 4.28125 -9.3125 C 4.320312 -9.3125 4.375 -9.316406 4.4375 -9.328125 Z M 7.578125 -8.515625 C 7.492188 -8.554688 7.410156 -8.578125 7.328125 -8.578125 C 7.191406 -8.597656 7.109375 -8.566406 7.078125 -8.484375 C 7.066406 -8.429688 7.0625 -8.375 7.0625 -8.3125 C 7.0625 -8.257812 7.070312 -8.222656 7.09375 -8.203125 C 7.132812 -8.140625 7.222656 -8.078125 7.359375 -8.015625 C 7.503906 -7.953125 7.632812 -7.914062 7.75 -7.90625 C 7.90625 -7.882812 7.984375 -7.941406 7.984375 -8.078125 C 7.984375 -8.148438 7.941406 -8.226562 7.859375 -8.3125 C 7.773438 -8.394531 7.679688 -8.460938 7.578125 -8.515625 Z M 7.578125 -8.515625 "/></g></g></g><g fill="#6bbdea" fill-opacity="1"><g transform="translate(34.344345, 18.861937)"><g><path d="M 6.28125 -5.015625 C 6.195312 -5.078125 6.128906 -5.082031 6.078125 -5.03125 C 6.046875 -5 6.03125 -4.957031 6.03125 -4.90625 C 6.03125 -4.820312 6.070312 -4.722656 6.15625 -4.609375 C 6.238281 -4.503906 6.328125 -4.453125 6.421875 -4.453125 C 6.484375 -4.453125 6.519531 -4.503906 6.53125 -4.609375 C 6.53125 -4.671875 6.503906 -4.742188 6.453125 -4.828125 C 6.410156 -4.910156 6.351562 -4.972656 6.28125 -5.015625 Z M 5.578125 -5.578125 C 5.804688 -5.617188 6.054688 -5.582031 6.328125 -5.46875 C 6.628906 -5.320312 6.859375 -5.101562 7.015625 -4.8125 C 7.054688 -4.75 7.078125 -4.660156 7.078125 -4.546875 L 7.078125 -4.40625 L 6.84375 -3.921875 C 6.664062 -3.578125 6.492188 -3.222656 6.328125 -2.859375 C 6.171875 -2.503906 6.003906 -2.132812 5.828125 -1.75 C 5.671875 -1.394531 5.429688 -0.898438 5.109375 -0.265625 C 4.921875 0.0976562 4.796875 0.378906 4.734375 0.578125 C 4.671875 0.703125 4.585938 0.851562 4.484375 1.03125 C 4.390625 1.21875 4.273438 1.425781 4.140625 1.65625 C 4.085938 1.75 4.035156 1.835938 3.984375 1.921875 C 3.941406 2.015625 3.894531 2.113281 3.84375 2.21875 C 3.78125 2.320312 3.722656 2.410156 3.671875 2.484375 C 3.628906 2.566406 3.582031 2.632812 3.53125 2.6875 C 3.488281 2.738281 3.4375 2.78125 3.375 2.8125 C 3.320312 2.851562 3.25 2.890625 3.15625 2.921875 L 2.9375 3.015625 L 2.625 3.015625 C 2.332031 3.003906 2.148438 2.960938 2.078125 2.890625 C 2.035156 2.878906 2 2.875 1.96875 2.875 C 1.894531 2.84375 1.816406 2.785156 1.734375 2.703125 C 1.660156 2.628906 1.585938 2.546875 1.515625 2.453125 C 1.453125 2.367188 1.398438 2.273438 1.359375 2.171875 C 1.316406 2.066406 1.285156 1.972656 1.265625 1.890625 C 1.234375 1.773438 1.234375 1.648438 1.265625 1.515625 C 1.285156 1.429688 1.34375 1.289062 1.4375 1.09375 C 1.539062 0.894531 1.679688 0.648438 1.859375 0.359375 C 2.046875 0.0546875 2.1875 -0.179688 2.28125 -0.359375 C 2.382812 -0.546875 2.441406 -0.664062 2.453125 -0.71875 C 2.453125 -0.71875 2.421875 -0.742188 2.359375 -0.796875 C 2.203125 -0.929688 2.050781 -1.085938 1.90625 -1.265625 C 1.757812 -1.453125 1.617188 -1.664062 1.484375 -1.90625 C 1.367188 -2.125 1.253906 -2.351562 1.140625 -2.59375 C 1.035156 -2.832031 0.921875 -3.097656 0.796875 -3.390625 C 0.742188 -3.535156 0.691406 -3.671875 0.640625 -3.796875 C 0.585938 -3.929688 0.535156 -4.054688 0.484375 -4.171875 C 0.429688 -4.285156 0.390625 -4.375 0.359375 -4.4375 C 0.335938 -4.5 0.320312 -4.546875 0.3125 -4.578125 C 0.28125 -4.722656 0.28125 -4.851562 0.3125 -4.96875 C 0.332031 -5.0625 0.382812 -5.144531 0.46875 -5.21875 C 0.5625 -5.300781 0.660156 -5.367188 0.765625 -5.421875 C 0.878906 -5.472656 1 -5.515625 1.125 -5.546875 C 1.25 -5.578125 1.351562 -5.59375 1.4375 -5.59375 C 1.550781 -5.59375 1.660156 -5.578125 1.765625 -5.546875 C 1.867188 -5.523438 1.972656 -5.488281 2.078125 -5.4375 C 2.203125 -5.332031 2.40625 -4.957031 2.6875 -4.3125 C 3.039062 -3.519531 3.269531 -3.054688 3.375 -2.921875 C 3.40625 -2.878906 3.445312 -2.820312 3.5 -2.75 C 3.5625 -2.6875 3.59375 -2.660156 3.59375 -2.671875 C 3.601562 -2.671875 3.640625 -2.734375 3.703125 -2.859375 C 3.773438 -2.984375 3.847656 -3.117188 3.921875 -3.265625 C 4.234375 -3.816406 4.484375 -4.253906 4.671875 -4.578125 C 4.859375 -4.898438 4.988281 -5.117188 5.0625 -5.234375 C 5.144531 -5.347656 5.265625 -5.445312 5.421875 -5.53125 C 5.441406 -5.539062 5.46875 -5.546875 5.5 -5.546875 C 5.53125 -5.554688 5.554688 -5.566406 5.578125 -5.578125 Z M 5.578125 -5.578125 "/></g></g></g><g fill="#6bbdea" fill-opacity="1"><g transform="translate(41.760059, 18.861937)"><g><path d="M 1.1875 -5.75 C 1.25 -5.78125 1.359375 -5.78125 1.515625 -5.75 C 1.941406 -5.738281 2.300781 -5.632812 2.59375 -5.4375 C 2.675781 -5.375 2.722656 -5.34375 2.734375 -5.34375 C 2.742188 -5.351562 2.8125 -5.378906 2.9375 -5.421875 C 3.082031 -5.460938 3.21875 -5.492188 3.34375 -5.515625 C 3.46875 -5.546875 3.601562 -5.570312 3.75 -5.59375 C 3.820312 -5.601562 3.90625 -5.609375 4 -5.609375 C 4.09375 -5.617188 4.195312 -5.625 4.3125 -5.625 C 4.445312 -5.625 4.582031 -5.613281 4.71875 -5.59375 C 4.851562 -5.582031 4.976562 -5.566406 5.09375 -5.546875 C 5.5625 -5.429688 5.890625 -5.1875 6.078125 -4.8125 C 6.128906 -4.738281 6.175781 -4.65625 6.21875 -4.5625 C 6.257812 -4.476562 6.296875 -4.367188 6.328125 -4.234375 C 6.359375 -4.140625 6.378906 -4.054688 6.390625 -3.984375 C 6.398438 -3.921875 6.410156 -3.859375 6.421875 -3.796875 C 6.429688 -3.679688 6.445312 -3.570312 6.46875 -3.46875 C 6.5 -3.375 6.507812 -3.238281 6.5 -3.0625 C 6.46875 -2.519531 6.453125 -2.078125 6.453125 -1.734375 C 6.460938 -1.390625 6.453125 -1.144531 6.421875 -1 C 6.398438 -0.863281 6.367188 -0.726562 6.328125 -0.59375 C 6.285156 -0.457031 6.226562 -0.332031 6.15625 -0.21875 C 6.09375 -0.113281 6.003906 -0.03125 5.890625 0.03125 C 5.785156 0.101562 5.648438 0.140625 5.484375 0.140625 C 5.390625 0.140625 5.28125 0.125 5.15625 0.09375 C 5.09375 0.0625 5.007812 0.03125 4.90625 0 C 4.800781 -0.03125 4.726562 -0.0820312 4.6875 -0.15625 C 4.664062 -0.207031 4.640625 -0.265625 4.609375 -0.328125 C 4.578125 -0.398438 4.554688 -0.484375 4.546875 -0.578125 C 4.535156 -0.660156 4.53125 -0.800781 4.53125 -1 C 4.539062 -1.207031 4.550781 -1.472656 4.5625 -1.796875 C 4.5625 -2.078125 4.5625 -2.316406 4.5625 -2.515625 C 4.5625 -2.710938 4.554688 -2.882812 4.546875 -3.03125 C 4.546875 -3.175781 4.535156 -3.296875 4.515625 -3.390625 C 4.492188 -3.484375 4.46875 -3.570312 4.4375 -3.65625 C 4.382812 -3.769531 4.320312 -3.84375 4.25 -3.875 C 4.1875 -3.90625 4.082031 -3.925781 3.9375 -3.9375 C 3.769531 -3.9375 3.59375 -3.898438 3.40625 -3.828125 C 3.3125 -3.773438 3.21875 -3.722656 3.125 -3.671875 C 3.039062 -3.617188 2.972656 -3.5625 2.921875 -3.5 L 2.84375 -3.453125 L 2.84375 -0.453125 L 2.8125 -0.359375 C 2.757812 -0.242188 2.664062 -0.148438 2.53125 -0.078125 C 2.4375 -0.015625 2.320312 0.0234375 2.1875 0.046875 C 2.050781 0.078125 1.925781 0.09375 1.8125 0.09375 C 1.539062 0.09375 1.289062 0.0507812 1.0625 -0.03125 C 0.84375 -0.113281 0.695312 -0.300781 0.625 -0.59375 C 0.613281 -0.644531 0.609375 -0.773438 0.609375 -0.984375 C 0.609375 -1.203125 0.609375 -1.523438 0.609375 -1.953125 C 0.609375 -2.367188 0.609375 -2.703125 0.609375 -2.953125 C 0.609375 -3.210938 0.613281 -3.394531 0.625 -3.5 C 0.644531 -3.601562 0.65625 -3.734375 0.65625 -3.890625 C 0.65625 -4.054688 0.660156 -4.253906 0.671875 -4.484375 C 0.679688 -4.765625 0.691406 -4.988281 0.703125 -5.15625 C 0.710938 -5.320312 0.726562 -5.429688 0.75 -5.484375 C 0.769531 -5.503906 0.785156 -5.523438 0.796875 -5.546875 C 0.804688 -5.578125 0.820312 -5.601562 0.84375 -5.625 C 0.914062 -5.695312 1.03125 -5.738281 1.1875 -5.75 Z M 5 -5.28125 C 4.882812 -5.28125 4.863281 -5.210938 4.9375 -5.078125 C 4.96875 -5.023438 5.050781 -4.957031 5.1875 -4.875 C 5.320312 -4.800781 5.441406 -4.753906 5.546875 -4.734375 C 5.648438 -4.722656 5.703125 -4.75 5.703125 -4.8125 C 5.703125 -4.945312 5.617188 -5.054688 5.453125 -5.140625 C 5.285156 -5.234375 5.132812 -5.28125 5 -5.28125 Z M 5 -5.28125 "/></g></g></g><g fill="#6bbdea" fill-opacity="1"><g transform="translate(48.872474, 18.861937)"><g><path d="M 2.203125 -8.21875 C 2.253906 -8.226562 2.300781 -8.234375 2.34375 -8.234375 C 2.394531 -8.242188 2.457031 -8.25 2.53125 -8.25 C 2.78125 -8.238281 3.015625 -8.207031 3.234375 -8.15625 C 3.453125 -8.113281 3.644531 -8.035156 3.8125 -7.921875 C 3.863281 -7.890625 3.894531 -7.835938 3.90625 -7.765625 C 3.925781 -7.703125 3.945312 -7.644531 3.96875 -7.59375 C 4.019531 -7.4375 4.035156 -7.226562 4.015625 -6.96875 C 4.015625 -6.945312 4.015625 -6.914062 4.015625 -6.875 C 4.023438 -6.8125 4.023438 -6.722656 4.015625 -6.609375 C 4.015625 -6.554688 4.015625 -6.503906 4.015625 -6.453125 C 4.015625 -6.398438 4.003906 -6.347656 3.984375 -6.296875 C 3.972656 -6.171875 3.960938 -6.0625 3.953125 -5.96875 C 3.953125 -5.875 3.953125 -5.785156 3.953125 -5.703125 L 3.953125 -5.5 L 3.984375 -5.46875 C 3.992188 -5.46875 4.035156 -5.460938 4.109375 -5.453125 C 4.179688 -5.453125 4.265625 -5.445312 4.359375 -5.4375 C 4.453125 -5.4375 4.554688 -5.4375 4.671875 -5.4375 C 4.785156 -5.4375 4.882812 -5.4375 4.96875 -5.4375 C 5.3125 -5.425781 5.53125 -5.398438 5.625 -5.359375 C 5.882812 -5.265625 6.019531 -5.09375 6.03125 -4.84375 C 6.039062 -4.570312 5.992188 -4.367188 5.890625 -4.234375 C 5.734375 -4.078125 5.507812 -3.976562 5.21875 -3.9375 C 5.101562 -3.914062 4.957031 -3.894531 4.78125 -3.875 C 4.601562 -3.851562 4.335938 -3.835938 3.984375 -3.828125 L 3.890625 -3.8125 L 3.859375 -3.5 C 3.828125 -3.238281 3.796875 -3.003906 3.765625 -2.796875 C 3.734375 -2.585938 3.71875 -2.398438 3.71875 -2.234375 C 3.71875 -2.054688 3.75 -1.894531 3.8125 -1.75 C 3.882812 -1.613281 4.019531 -1.546875 4.21875 -1.546875 C 4.382812 -1.546875 4.6875 -1.625 5.125 -1.78125 C 5.289062 -1.832031 5.429688 -1.832031 5.546875 -1.78125 C 5.609375 -1.757812 5.675781 -1.710938 5.75 -1.640625 C 5.832031 -1.566406 5.890625 -1.507812 5.921875 -1.46875 C 5.929688 -1.445312 5.9375 -1.421875 5.9375 -1.390625 C 5.9375 -1.359375 5.941406 -1.320312 5.953125 -1.28125 L 5.953125 -1.140625 L 5.859375 -1.046875 C 5.722656 -0.910156 5.597656 -0.785156 5.484375 -0.671875 C 5.367188 -0.566406 5.238281 -0.46875 5.09375 -0.375 C 5 -0.320312 4.90625 -0.273438 4.8125 -0.234375 C 4.71875 -0.203125 4.613281 -0.164062 4.5 -0.125 C 4.320312 -0.0703125 4.164062 -0.0234375 4.03125 0.015625 C 3.90625 0.0546875 3.800781 0.0820312 3.71875 0.09375 C 3.59375 0.101562 3.40625 0.101562 3.15625 0.09375 C 3.019531 0.0820312 2.914062 0.0703125 2.84375 0.0625 C 2.769531 0.0507812 2.707031 0.0390625 2.65625 0.03125 C 1.988281 -0.132812 1.5625 -0.644531 1.375 -1.5 C 1.332031 -1.675781 1.296875 -1.910156 1.265625 -2.203125 C 1.242188 -2.492188 1.222656 -2.847656 1.203125 -3.265625 C 1.191406 -3.421875 1.179688 -3.539062 1.171875 -3.625 C 1.160156 -3.71875 1.148438 -3.78125 1.140625 -3.8125 C 1.097656 -3.851562 1.019531 -3.878906 0.90625 -3.890625 C 0.644531 -3.941406 0.460938 -4.050781 0.359375 -4.21875 C 0.335938 -4.28125 0.316406 -4.394531 0.296875 -4.5625 C 0.273438 -4.800781 0.285156 -4.976562 0.328125 -5.09375 C 0.367188 -5.207031 0.460938 -5.296875 0.609375 -5.359375 C 0.640625 -5.367188 0.691406 -5.382812 0.765625 -5.40625 C 0.835938 -5.425781 0.914062 -5.445312 1 -5.46875 C 1.082031 -5.488281 1.15625 -5.507812 1.21875 -5.53125 C 1.28125 -5.5625 1.3125 -5.582031 1.3125 -5.59375 C 1.351562 -5.644531 1.378906 -5.789062 1.390625 -6.03125 C 1.410156 -6.300781 1.445312 -6.617188 1.5 -6.984375 C 1.550781 -7.359375 1.632812 -7.660156 1.75 -7.890625 C 1.8125 -8.046875 1.960938 -8.15625 2.203125 -8.21875 Z M 3.5625 -7.625 C 3.53125 -7.675781 3.484375 -7.722656 3.421875 -7.765625 C 3.359375 -7.816406 3.285156 -7.84375 3.203125 -7.84375 C 3.140625 -7.84375 3.078125 -7.828125 3.015625 -7.796875 C 2.953125 -7.785156 2.921875 -7.769531 2.921875 -7.75 C 2.921875 -7.71875 2.972656 -7.671875 3.078125 -7.609375 C 3.191406 -7.546875 3.285156 -7.492188 3.359375 -7.453125 C 3.453125 -7.410156 3.519531 -7.410156 3.5625 -7.453125 C 3.570312 -7.460938 3.578125 -7.484375 3.578125 -7.515625 C 3.578125 -7.554688 3.570312 -7.59375 3.5625 -7.625 Z M 3.5625 -7.625 "/></g></g></g><g fill="#6bbdea" fill-opacity="1"><g transform="translate(55.226636, 18.861937)"><g><path d="M 3.28125 -5.5625 C 3.476562 -5.5625 3.660156 -5.53125 3.828125 -5.46875 C 3.992188 -5.40625 4.164062 -5.316406 4.34375 -5.203125 L 4.53125 -5.109375 L 4.671875 -5.234375 C 4.867188 -5.398438 5.148438 -5.484375 5.515625 -5.484375 C 5.628906 -5.484375 5.75 -5.472656 5.875 -5.453125 C 6.007812 -5.441406 6.140625 -5.414062 6.265625 -5.375 C 6.398438 -5.34375 6.515625 -5.289062 6.609375 -5.21875 C 6.710938 -5.144531 6.785156 -5.050781 6.828125 -4.9375 C 6.835938 -4.90625 6.84375 -4.382812 6.84375 -3.375 C 6.84375 -2.039062 6.863281 -1.335938 6.90625 -1.265625 C 6.925781 -1.242188 6.945312 -1.066406 6.96875 -0.734375 L 6.984375 -0.265625 L 6.90625 -0.234375 C 6.78125 -0.117188 6.585938 -0.0078125 6.328125 0.09375 C 6.046875 0.195312 5.765625 0.226562 5.484375 0.1875 C 5.359375 0.144531 5.269531 0.09375 5.21875 0.03125 C 5.164062 -0.03125 5.082031 -0.144531 4.96875 -0.3125 C 4.9375 -0.375 4.894531 -0.441406 4.84375 -0.515625 C 4.789062 -0.597656 4.722656 -0.6875 4.640625 -0.78125 C 4.609375 -0.820312 4.554688 -0.84375 4.484375 -0.84375 C 4.378906 -0.820312 4.234375 -0.765625 4.046875 -0.671875 C 3.898438 -0.566406 3.769531 -0.484375 3.65625 -0.421875 C 3.539062 -0.359375 3.453125 -0.304688 3.390625 -0.265625 C 3.160156 -0.179688 2.929688 -0.109375 2.703125 -0.046875 C 2.648438 -0.0351562 2.59375 -0.0234375 2.53125 -0.015625 C 2.46875 -0.015625 2.410156 -0.015625 2.359375 -0.015625 C 1.929688 -0.015625 1.585938 -0.144531 1.328125 -0.40625 C 1.078125 -0.664062 0.878906 -0.984375 0.734375 -1.359375 C 0.585938 -1.742188 0.492188 -2.140625 0.453125 -2.546875 C 0.421875 -2.953125 0.457031 -3.375 0.5625 -3.8125 C 0.625 -4.09375 0.75 -4.34375 0.9375 -4.5625 C 1.132812 -4.78125 1.363281 -4.960938 1.625 -5.109375 C 1.882812 -5.265625 2.160156 -5.378906 2.453125 -5.453125 C 2.742188 -5.523438 3.019531 -5.5625 3.28125 -5.5625 Z M 6.03125 -5.109375 C 6 -5.117188 5.960938 -5.125 5.921875 -5.125 C 5.890625 -5.132812 5.847656 -5.144531 5.796875 -5.15625 L 5.625 -5.15625 L 5.625 -5.0625 C 5.625 -4.957031 5.660156 -4.863281 5.734375 -4.78125 C 5.804688 -4.707031 5.882812 -4.671875 5.96875 -4.671875 C 6.019531 -4.671875 6.085938 -4.703125 6.171875 -4.765625 C 6.253906 -4.828125 6.296875 -4.878906 6.296875 -4.921875 C 6.296875 -4.992188 6.207031 -5.054688 6.03125 -5.109375 Z M 4.453125 -3.8125 C 4.441406 -3.832031 4.300781 -3.796875 4.03125 -3.703125 C 3.257812 -3.472656 2.800781 -3.285156 2.65625 -3.140625 C 2.476562 -2.992188 2.390625 -2.753906 2.390625 -2.421875 C 2.410156 -1.941406 2.535156 -1.65625 2.765625 -1.5625 C 2.816406 -1.539062 2.867188 -1.53125 2.921875 -1.53125 C 2.984375 -1.53125 3.039062 -1.53125 3.09375 -1.53125 C 3.3125 -1.53125 3.539062 -1.585938 3.78125 -1.703125 C 4.019531 -1.828125 4.226562 -1.960938 4.40625 -2.109375 L 4.546875 -2.234375 L 4.546875 -2.4375 C 4.546875 -2.625 4.539062 -2.804688 4.53125 -2.984375 C 4.519531 -3.171875 4.503906 -3.363281 4.484375 -3.5625 C 4.472656 -3.601562 4.46875 -3.640625 4.46875 -3.671875 C 4.46875 -3.703125 4.460938 -3.726562 4.453125 -3.75 C 4.453125 -3.769531 4.453125 -3.789062 4.453125 -3.8125 Z M 4.453125 -3.8125 "/></g></g></g><g fill="#6bbdea" fill-opacity="1"><g transform="translate(62.824331, 18.861937)"><g><path d="M 1.609375 -5.546875 C 1.722656 -5.546875 1.828125 -5.519531 1.921875 -5.46875 C 2.023438 -5.414062 2.125 -5.34375 2.21875 -5.25 C 2.3125 -5.164062 2.398438 -5.078125 2.484375 -4.984375 C 2.566406 -4.898438 2.640625 -4.820312 2.703125 -4.75 C 2.753906 -4.695312 2.800781 -4.644531 2.84375 -4.59375 C 2.882812 -4.539062 2.929688 -4.492188 2.984375 -4.453125 L 3.09375 -4.375 L 3.21875 -4.453125 C 3.320312 -4.566406 3.429688 -4.679688 3.546875 -4.796875 C 3.660156 -4.910156 3.800781 -5.023438 3.96875 -5.140625 L 4.28125 -5.375 L 4.515625 -5.46875 C 4.691406 -5.507812 4.789062 -5.53125 4.8125 -5.53125 C 5.019531 -5.53125 5.234375 -5.445312 5.453125 -5.28125 C 5.472656 -5.257812 5.507812 -5.21875 5.5625 -5.15625 C 5.625 -5.101562 5.695312 -5.039062 5.78125 -4.96875 C 5.925781 -4.832031 6.007812 -4.722656 6.03125 -4.640625 C 6.0625 -4.554688 6.078125 -4.492188 6.078125 -4.453125 C 6.078125 -4.328125 6.035156 -4.210938 5.953125 -4.109375 C 5.878906 -4.003906 5.738281 -3.84375 5.53125 -3.625 C 5.175781 -3.25 4.972656 -3.007812 4.921875 -2.90625 C 4.867188 -2.78125 4.894531 -2.632812 5 -2.46875 C 5.082031 -2.375 5.171875 -2.257812 5.265625 -2.125 C 5.367188 -1.988281 5.476562 -1.851562 5.59375 -1.71875 C 5.707031 -1.570312 5.8125 -1.425781 5.90625 -1.28125 C 6 -1.144531 6.078125 -1.003906 6.140625 -0.859375 L 6.203125 -0.71875 L 6.171875 -0.59375 C 6.128906 -0.351562 6.019531 -0.171875 5.84375 -0.046875 C 5.664062 0.078125 5.460938 0.140625 5.234375 0.140625 C 5.054688 0.140625 4.894531 0.0664062 4.75 -0.078125 C 4.3125 -0.460938 3.960938 -0.851562 3.703125 -1.25 C 3.679688 -1.28125 3.65625 -1.304688 3.625 -1.328125 L 3.59375 -1.375 C 3.59375 -1.375 3.46875 -1.257812 3.21875 -1.03125 C 2.925781 -0.75 2.664062 -0.515625 2.4375 -0.328125 C 2.207031 -0.148438 2.003906 -0.015625 1.828125 0.078125 C 1.785156 0.0976562 1.722656 0.109375 1.640625 0.109375 C 1.554688 0.117188 1.484375 0.113281 1.421875 0.09375 C 1.296875 0.03125 1.1875 -0.03125 1.09375 -0.09375 C 1.007812 -0.164062 0.914062 -0.257812 0.8125 -0.375 C 0.789062 -0.394531 0.742188 -0.453125 0.671875 -0.546875 C 0.609375 -0.648438 0.535156 -0.773438 0.453125 -0.921875 C 0.398438 -1.035156 0.367188 -1.144531 0.359375 -1.25 C 0.347656 -1.363281 0.378906 -1.460938 0.453125 -1.546875 L 2.0625 -3.15625 L 1.9375 -3.359375 C 1.863281 -3.460938 1.765625 -3.585938 1.640625 -3.734375 C 1.523438 -3.878906 1.351562 -4.09375 1.125 -4.375 C 1.019531 -4.5 0.945312 -4.628906 0.90625 -4.765625 C 0.820312 -5.046875 0.863281 -5.242188 1.03125 -5.359375 C 1.101562 -5.421875 1.191406 -5.46875 1.296875 -5.5 C 1.410156 -5.53125 1.515625 -5.546875 1.609375 -5.546875 Z M 5.140625 -5.25 C 5.023438 -5.28125 4.9375 -5.273438 4.875 -5.234375 C 4.820312 -5.179688 4.828125 -5.117188 4.890625 -5.046875 C 4.953125 -4.972656 5.039062 -4.90625 5.15625 -4.84375 C 5.226562 -4.800781 5.285156 -4.785156 5.328125 -4.796875 C 5.429688 -4.835938 5.476562 -4.894531 5.46875 -4.96875 C 5.457031 -5 5.410156 -5.050781 5.328125 -5.125 C 5.253906 -5.195312 5.191406 -5.238281 5.140625 -5.25 Z M 5.140625 -5.25 "/></g></g></g><g clip-path="url(#ac21a5a080)"><path fill="#04428c" d="M 68.328125 12.511719 C 67.800781 12.277344 67.324219 11.933594 66.949219 11.496094 C 66.925781 11.46875 66.902344 11.441406 66.882812 11.417969 C 66.976562 11.363281 67.066406 11.304688 67.152344 11.242188 C 67.519531 10.972656 67.824219 10.621094 67.984375 10.191406 C 68.015625 10.109375 68.035156 10.011719 67.953125 9.949219 C 67.886719 9.902344 67.789062 9.90625 67.710938 9.929688 C 67.609375 9.957031 67.519531 10.023438 67.4375 10.089844 C 67.332031 10.167969 67.234375 10.257812 67.148438 10.355469 C 67.085938 10.421875 67.03125 10.496094 66.976562 10.574219 C 66.929688 10.300781 66.75 10.058594 66.492188 9.941406 C 66.367188 9.886719 66.207031 9.886719 66.152344 10.035156 C 66.105469 10.167969 66.167969 10.316406 66.214844 10.4375 C 66.34375 10.773438 66.515625 11.089844 66.730469 11.378906 C 65.878906 11.820312 64.878906 11.816406 63.941406 11.675781 C 63.359375 11.589844 62.785156 11.457031 62.207031 11.34375 C 61.648438 11.234375 61.089844 11.136719 60.53125 11.054688 C 59.417969 10.898438 58.289062 10.820312 57.167969 10.933594 C 56.089844 11.039062 54.984375 11.320312 54.0625 11.90625 C 53.953125 11.976562 53.847656 12.050781 53.746094 12.132812 C 53.734375 12.144531 53.75 12.164062 53.761719 12.15625 C 54.226562 11.8125 54.75 11.578125 55.296875 11.40625 C 55.859375 11.230469 56.4375 11.117188 57.023438 11.054688 C 58.195312 10.929688 59.386719 11.015625 60.550781 11.1875 C 61.136719 11.273438 61.722656 11.378906 62.304688 11.496094 C 62.90625 11.613281 63.5 11.746094 64.109375 11.824219 C 64.691406 11.898438 65.292969 11.917969 65.871094 11.796875 C 66.191406 11.730469 66.507812 11.617188 66.796875 11.460938 C 66.960938 11.664062 67.144531 11.855469 67.347656 12.023438 C 67.632812 12.257812 67.949219 12.449219 68.292969 12.589844 C 68.339844 12.609375 68.371094 12.53125 68.328125 12.511719 Z M 66.460938 10.785156 C 66.390625 10.65625 66.332031 10.523438 66.28125 10.386719 C 66.242188 10.289062 66.15625 10.085938 66.273438 10.003906 C 66.351562 9.949219 66.476562 10.015625 66.546875 10.058594 C 66.613281 10.101562 66.671875 10.152344 66.722656 10.207031 C 66.835938 10.335938 66.90625 10.496094 66.921875 10.664062 C 66.925781 10.699219 66.96875 10.710938 66.984375 10.683594 C 67.125 10.460938 67.320312 10.265625 67.539062 10.117188 C 67.621094 10.058594 67.710938 10 67.816406 10 C 67.851562 10 67.898438 10.007812 67.917969 10.042969 C 67.941406 10.097656 67.886719 10.191406 67.863281 10.242188 C 67.671875 10.652344 67.359375 10.988281 66.980469 11.234375 C 66.925781 11.269531 66.871094 11.300781 66.816406 11.332031 C 66.683594 11.160156 66.5625 10.976562 66.460938 10.785156 Z M 66.460938 10.785156 " fill-opacity="1" fill-rule="nonzero"/></g><g clip-path="url(#6019bf085b)"><path fill="#04428c" d="M 25.722656 13.433594 C 25.363281 13.558594 25.003906 13.6875 24.644531 13.8125 C 24.480469 13.871094 24.550781 14.128906 24.714844 14.074219 C 25.074219 13.945312 25.433594 13.820312 25.792969 13.691406 C 25.953125 13.636719 25.886719 13.375 25.722656 13.433594 Z M 25.722656 13.433594 " fill-opacity="1" fill-rule="nonzero"/></g><g clip-path="url(#7932f34d1c)"><path fill="#04428c" d="M 25.4375 12.367188 C 25.171875 12.382812 24.910156 12.394531 24.644531 12.410156 C 24.472656 12.417969 24.472656 12.6875 24.644531 12.675781 C 24.910156 12.664062 25.171875 12.648438 25.4375 12.636719 C 25.609375 12.628906 25.609375 12.359375 25.4375 12.367188 Z M 25.4375 12.367188 " fill-opacity="1" fill-rule="nonzero"/></g><path fill="#04428c" d="M 26.335938 10.472656 C 26.1875 10.324219 26.035156 10.175781 25.882812 10.023438 C 25.761719 9.902344 25.570312 10.09375 25.695312 10.214844 C 25.84375 10.363281 25.996094 10.511719 26.144531 10.664062 C 26.269531 10.785156 26.460938 10.59375 26.335938 10.472656 Z M 26.335938 10.472656 " fill-opacity="1" fill-rule="nonzero"/><g clip-path="url(#72d9f9157d)"><path fill="#04428c" d="M 27.175781 9.949219 C 27.070312 9.765625 26.96875 9.582031 26.863281 9.398438 C 26.777344 9.246094 26.542969 9.382812 26.628906 9.53125 C 26.734375 9.71875 26.839844 9.902344 26.945312 10.085938 C 27.03125 10.234375 27.261719 10.101562 27.175781 9.949219 Z M 27.175781 9.949219 " fill-opacity="1" fill-rule="nonzero"/></g><g clip-path="url(#91e255336a)"><path fill="#04428c" d="M 25.644531 11.351562 C 25.289062 11.179688 24.929688 11.003906 24.570312 10.832031 C 24.414062 10.753906 24.277344 10.988281 24.433594 11.0625 C 24.792969 11.238281 25.152344 11.410156 25.511719 11.585938 C 25.664062 11.660156 25.800781 11.429688 25.644531 11.351562 Z M 25.644531 11.351562 " fill-opacity="1" fill-rule="nonzero"/></g><g clip-path="url(#8fab18b400)"><path fill="#04428c" d="M 28.078125 9.707031 C 28.007812 9.3125 27.933594 8.921875 27.863281 8.527344 C 27.832031 8.359375 27.570312 8.429688 27.601562 8.601562 C 27.675781 8.992188 27.746094 9.386719 27.820312 9.777344 C 27.851562 9.949219 28.109375 9.875 28.078125 9.707031 Z M 28.078125 9.707031 " fill-opacity="1" fill-rule="nonzero"/></g></svg>